%FSLAX34Y34*%
%MOMM*%
%LNCOPPER_BOTTOM*%
G71*
G01*
%ADD10C, 0.500*%
%ADD11C, 0.200*%
%ADD12C, 3.000*%
%LPD*%
G54D10*
X25000Y976471D02*
X977384Y976473D01*
X977384Y422669D01*
X977342Y422627D01*
X25000Y422627D01*
X25000Y976471D01*
G54D11*
X920000Y810000D02*
X960000Y810000D01*
X960000Y680000D01*
X920000Y680000D01*
X920000Y810000D01*
G54D11*
X40800Y809200D02*
X80800Y809200D01*
X80800Y679200D01*
X40800Y679200D01*
X40800Y809200D01*
G54D11*
X175500Y605000D02*
X277115Y605000D01*
X277115Y572308D01*
X175500Y572308D01*
X175500Y605000D01*
G54D11*
X375632Y603159D02*
X477248Y603159D01*
X477248Y570467D01*
X375632Y570467D01*
X375632Y603159D01*
G54D11*
X724650Y605000D02*
X826265Y605000D01*
X826265Y572308D01*
X724650Y572308D01*
X724650Y605000D01*
G54D11*
X550526Y603355D02*
X602142Y603355D01*
X602142Y570662D01*
X550526Y570662D01*
X550526Y603355D01*
X50800Y950152D02*
G54D12*
D03*
X50800Y450408D02*
G54D12*
D03*
X950912Y450408D02*
G54D12*
D03*
X950913Y950153D02*
G54D12*
D03*
M02*
