%FSLAX34Y34*%
%MOMM*%
%LNCOPPER_BOTTOM*%
G71*
G01*
%ADD10C, 2.100*%
%ADD11C, 1.000*%
%ADD12C, 1.600*%
%ADD13C, 1.600*%
%ADD14C, 1.500*%
%ADD15C, 0.311*%
%ADD16C, 2.100*%
%ADD17C, 0.800*%
%ADD18C, 0.300*%
%ADD19C, 1.900*%
%ADD20C, 0.600*%
%ADD21C, 2.300*%
%LPD*%
X497478Y-153525D02*
G54D10*
D03*
X497478Y-178925D02*
G54D10*
D03*
X597478Y-153525D02*
G54D10*
D03*
X597478Y-178925D02*
G54D10*
D03*
X697478Y-153525D02*
G54D10*
D03*
X697478Y-178925D02*
G54D10*
D03*
X797478Y-153525D02*
G54D10*
D03*
X797478Y-178925D02*
G54D10*
D03*
X897478Y-153525D02*
G54D10*
D03*
X897478Y-178925D02*
G54D10*
D03*
X97628Y-153350D02*
G54D10*
D03*
X97628Y-178750D02*
G54D10*
D03*
X197628Y-153350D02*
G54D10*
D03*
X197628Y-178750D02*
G54D10*
D03*
X297628Y-153350D02*
G54D10*
D03*
X297628Y-178750D02*
G54D10*
D03*
X397628Y-153350D02*
G54D10*
D03*
X397628Y-178750D02*
G54D10*
D03*
X197778Y-303175D02*
G54D10*
D03*
X197778Y-328575D02*
G54D10*
D03*
X497778Y-453175D02*
G54D10*
D03*
X497778Y-478575D02*
G54D10*
D03*
G54D11*
X97778Y-43175D02*
X897452Y-43175D01*
X897628Y-43350D01*
X97778Y-43175D02*
G54D10*
D03*
X97778Y-125175D02*
G54D10*
D03*
G54D11*
X97778Y-125175D02*
X97778Y-153200D01*
X97628Y-153350D01*
X197778Y-43175D02*
G54D10*
D03*
X197778Y-125175D02*
G54D10*
D03*
G54D11*
X197778Y-125175D02*
X197778Y-153200D01*
X197628Y-153350D01*
X297778Y-43175D02*
G54D10*
D03*
X297778Y-125175D02*
G54D10*
D03*
G54D11*
X297778Y-125175D02*
X297778Y-153200D01*
X297628Y-153350D01*
X397778Y-43175D02*
G54D10*
D03*
X397778Y-125175D02*
G54D10*
D03*
G54D11*
X397778Y-125175D02*
X397778Y-153200D01*
X397628Y-153350D01*
X497778Y-43175D02*
G54D10*
D03*
X497778Y-125175D02*
G54D10*
D03*
G54D11*
X497778Y-125175D02*
X497778Y-153200D01*
X497628Y-153350D01*
X597778Y-43175D02*
G54D10*
D03*
X597778Y-125175D02*
G54D10*
D03*
G54D11*
X597778Y-125175D02*
X597778Y-153200D01*
X597628Y-153350D01*
X697778Y-43175D02*
G54D10*
D03*
X697778Y-125175D02*
G54D10*
D03*
G54D11*
X697778Y-125175D02*
X697778Y-153200D01*
X697628Y-153350D01*
X797778Y-43175D02*
G54D10*
D03*
X797778Y-125175D02*
G54D10*
D03*
G54D11*
X797778Y-125175D02*
X797778Y-153200D01*
X797628Y-153350D01*
X897778Y-43175D02*
G54D10*
D03*
X897778Y-125175D02*
G54D10*
D03*
G54D11*
X897778Y-125175D02*
X897778Y-153200D01*
X897628Y-153350D01*
G54D11*
X197778Y-303175D02*
X229778Y-303175D01*
X247778Y-285175D01*
X247778Y-203175D02*
G54D10*
D03*
X247778Y-285175D02*
G54D10*
D03*
G54D11*
X297778Y-303175D02*
X329778Y-303175D01*
X347778Y-285175D01*
G54D11*
X397778Y-303175D02*
X429778Y-303175D01*
X447778Y-285175D01*
G54D11*
X497778Y-303175D02*
X529778Y-303175D01*
X547778Y-285175D01*
G54D11*
X597778Y-303175D02*
X629778Y-303175D01*
X647778Y-285175D01*
G54D11*
X697778Y-303175D02*
X729778Y-303175D01*
X747778Y-285175D01*
G54D11*
X797778Y-303175D02*
X829778Y-303175D01*
X847778Y-285175D01*
G54D11*
X247778Y-203175D02*
X247778Y-43175D01*
G54D11*
X347778Y-203175D02*
X347778Y-43175D01*
G54D11*
X447778Y-203175D02*
X447778Y-43175D01*
G54D12*
X547778Y-203175D02*
X547778Y-46350D01*
G54D11*
X647778Y-203175D02*
X647778Y-43175D01*
G54D11*
X747778Y-203175D02*
X747778Y-43175D01*
G54D11*
X847778Y-203175D02*
X847778Y-43175D01*
X95878Y-208575D02*
G54D13*
D03*
X95878Y-233975D02*
G54D13*
D03*
X95878Y-259375D02*
G54D13*
D03*
X95878Y-284775D02*
G54D13*
D03*
G54D11*
X197628Y-178750D02*
X197628Y-204975D01*
X177178Y-225425D01*
X125078Y-225425D01*
G54D11*
X297628Y-178750D02*
X297628Y-193875D01*
X266078Y-225425D01*
X202578Y-225425D01*
X183528Y-244475D01*
X132728Y-244475D01*
X117828Y-259375D01*
X95878Y-259375D01*
G54D11*
X397628Y-178750D02*
X397628Y-195500D01*
X367528Y-225600D01*
X291328Y-225600D01*
X272278Y-244650D01*
X208778Y-244650D01*
X189728Y-263700D01*
X145278Y-263700D01*
X124028Y-284950D01*
X95878Y-284775D01*
G54D11*
X95878Y-233975D02*
X114928Y-233975D01*
X123478Y-225425D01*
X899678Y-208175D02*
G54D13*
D03*
X899678Y-233575D02*
G54D13*
D03*
X899678Y-258975D02*
G54D13*
D03*
X899678Y-284375D02*
G54D13*
D03*
G54D11*
X899678Y-233575D02*
X886978Y-233575D01*
X878428Y-225025D01*
G54D11*
X797478Y-178925D02*
X797778Y-179225D01*
X797778Y-193175D01*
X830028Y-225425D01*
X878428Y-225025D01*
G54D11*
X697478Y-178925D02*
X696278Y-180125D01*
X696278Y-193675D01*
X728028Y-225425D01*
X804228Y-225425D01*
X823278Y-244475D01*
X867728Y-244475D01*
X882228Y-258975D01*
X899678Y-258975D01*
G54D11*
X597478Y-178925D02*
X597852Y-179300D01*
X597852Y-193675D01*
X629602Y-225425D01*
X702628Y-225425D01*
X721678Y-244475D01*
X797878Y-244475D01*
X816928Y-263525D01*
X859778Y-262175D01*
X882228Y-284375D01*
X899678Y-284375D01*
G54D11*
X97628Y-178750D02*
X97628Y-206825D01*
X95878Y-208575D01*
G54D11*
X897478Y-178925D02*
X897478Y-205975D01*
X899678Y-208175D01*
X397935Y-368553D02*
G54D13*
D03*
X423335Y-368553D02*
G54D13*
D03*
X448735Y-368553D02*
G54D13*
D03*
X197802Y-368300D02*
G54D13*
D03*
X223202Y-368300D02*
G54D13*
D03*
X248602Y-368300D02*
G54D13*
D03*
G54D11*
X197778Y-328575D02*
X197802Y-328600D01*
X197802Y-368300D01*
G36*
X380472Y-397128D02*
X380472Y-416178D01*
X466197Y-416178D01*
X466197Y-397128D01*
X380472Y-397128D01*
G37*
G54D11*
X380472Y-397128D02*
X380472Y-416178D01*
X466197Y-416178D01*
X466197Y-397128D01*
X380472Y-397128D01*
G54D11*
X497778Y-178575D02*
X497778Y-269938D01*
X397935Y-406653D02*
G54D13*
D03*
X423335Y-406653D02*
G54D13*
D03*
X448735Y-406653D02*
G54D13*
D03*
X436035Y-406653D02*
G54D13*
D03*
X410635Y-406653D02*
G54D13*
D03*
X416985Y-406653D02*
G54D13*
D03*
X404285Y-406653D02*
G54D13*
D03*
X429685Y-406653D02*
G54D13*
D03*
X391585Y-406653D02*
G54D13*
D03*
X442385Y-406653D02*
G54D13*
D03*
X455085Y-406653D02*
G54D13*
D03*
G36*
X180340Y-395288D02*
X180340Y-414338D01*
X266065Y-414338D01*
X266065Y-395288D01*
X180340Y-395288D01*
G37*
G54D11*
X180340Y-395288D02*
X180340Y-414338D01*
X266065Y-414338D01*
X266065Y-395288D01*
X180340Y-395288D01*
X197803Y-404812D02*
G54D13*
D03*
X223202Y-404812D02*
G54D13*
D03*
X248602Y-404812D02*
G54D13*
D03*
X235902Y-404812D02*
G54D13*
D03*
X210503Y-404812D02*
G54D13*
D03*
X216852Y-404812D02*
G54D13*
D03*
X204152Y-404812D02*
G54D13*
D03*
X229552Y-404812D02*
G54D13*
D03*
X191452Y-404812D02*
G54D13*
D03*
X242252Y-404812D02*
G54D13*
D03*
X254952Y-404812D02*
G54D13*
D03*
G36*
X67628Y-190818D02*
X48578Y-190818D01*
X48578Y-276542D01*
X67628Y-276542D01*
X67628Y-190818D01*
G37*
G54D11*
X67628Y-190818D02*
X48578Y-190818D01*
X48578Y-276542D01*
X67628Y-276542D01*
X67628Y-190818D01*
X58102Y-208280D02*
G54D13*
D03*
X58102Y-233680D02*
G54D13*
D03*
X58102Y-259080D02*
G54D13*
D03*
X58102Y-246380D02*
G54D13*
D03*
X58102Y-220980D02*
G54D13*
D03*
X58102Y-227330D02*
G54D13*
D03*
X58102Y-214630D02*
G54D13*
D03*
X58102Y-240030D02*
G54D13*
D03*
X58102Y-201930D02*
G54D13*
D03*
X58102Y-252730D02*
G54D13*
D03*
X58102Y-265430D02*
G54D13*
D03*
G36*
X67628Y-222568D02*
X48578Y-222568D01*
X48578Y-308292D01*
X67628Y-308292D01*
X67628Y-222568D01*
G37*
G54D11*
X67628Y-222568D02*
X48578Y-222568D01*
X48578Y-308292D01*
X67628Y-308292D01*
X67628Y-222568D01*
X58102Y-240030D02*
G54D13*
D03*
X58102Y-265430D02*
G54D13*
D03*
X58102Y-290830D02*
G54D13*
D03*
X58102Y-278130D02*
G54D13*
D03*
X58102Y-252730D02*
G54D13*
D03*
X58102Y-259080D02*
G54D13*
D03*
X58102Y-246380D02*
G54D13*
D03*
X58102Y-271780D02*
G54D13*
D03*
X58102Y-233680D02*
G54D13*
D03*
X58102Y-284480D02*
G54D13*
D03*
X58102Y-297180D02*
G54D13*
D03*
G36*
X947102Y-190818D02*
X928052Y-190818D01*
X928052Y-276542D01*
X947102Y-276542D01*
X947102Y-190818D01*
G37*
G54D11*
X947102Y-190818D02*
X928052Y-190818D01*
X928052Y-276542D01*
X947102Y-276542D01*
X947102Y-190818D01*
X937578Y-208280D02*
G54D13*
D03*
X937578Y-233680D02*
G54D13*
D03*
X937578Y-259080D02*
G54D13*
D03*
X937578Y-246380D02*
G54D13*
D03*
X937578Y-220980D02*
G54D13*
D03*
X937578Y-227330D02*
G54D13*
D03*
X937578Y-214630D02*
G54D13*
D03*
X937578Y-240030D02*
G54D13*
D03*
X937578Y-201930D02*
G54D13*
D03*
X937578Y-252730D02*
G54D13*
D03*
X937578Y-265430D02*
G54D13*
D03*
G36*
X947102Y-222568D02*
X928052Y-222568D01*
X928052Y-308292D01*
X947102Y-308292D01*
X947102Y-222568D01*
G37*
G54D11*
X947102Y-222568D02*
X928052Y-222568D01*
X928052Y-308292D01*
X947102Y-308292D01*
X947102Y-222568D01*
X937578Y-240030D02*
G54D13*
D03*
X937578Y-265430D02*
G54D13*
D03*
X937578Y-290830D02*
G54D13*
D03*
X937578Y-278130D02*
G54D13*
D03*
X937578Y-252730D02*
G54D13*
D03*
X937578Y-259080D02*
G54D13*
D03*
X937578Y-246380D02*
G54D13*
D03*
X937578Y-271780D02*
G54D13*
D03*
X937578Y-233680D02*
G54D13*
D03*
X937578Y-284480D02*
G54D13*
D03*
X937578Y-297180D02*
G54D13*
D03*
G54D11*
X223202Y-368300D02*
X223202Y-355600D01*
X250228Y-328575D01*
X297778Y-328575D01*
G54D11*
X248602Y-368300D02*
X267652Y-349250D01*
X377102Y-349250D01*
X397778Y-328575D01*
X797752Y-368300D02*
G54D13*
D03*
X772352Y-368300D02*
G54D13*
D03*
X746952Y-368300D02*
G54D13*
D03*
G54D11*
X797778Y-328575D02*
X797752Y-328600D01*
X797752Y-368300D01*
G36*
X815215Y-395288D02*
X815215Y-414338D01*
X729490Y-414338D01*
X729490Y-395288D01*
X815215Y-395288D01*
G37*
G54D11*
X815215Y-395288D02*
X815215Y-414338D01*
X729490Y-414338D01*
X729490Y-395288D01*
X815215Y-395288D01*
X797752Y-404812D02*
G54D13*
D03*
X772352Y-404812D02*
G54D13*
D03*
X746952Y-404812D02*
G54D13*
D03*
X759652Y-404812D02*
G54D13*
D03*
X785052Y-404812D02*
G54D13*
D03*
X778702Y-404812D02*
G54D13*
D03*
X791402Y-404812D02*
G54D13*
D03*
X766002Y-404812D02*
G54D13*
D03*
X804102Y-404812D02*
G54D13*
D03*
X753302Y-404812D02*
G54D13*
D03*
X740602Y-404812D02*
G54D13*
D03*
G54D11*
X772352Y-368300D02*
X772352Y-355600D01*
X745328Y-328575D01*
X697778Y-328575D01*
G54D11*
X746952Y-368300D02*
X727902Y-349250D01*
X618452Y-349250D01*
X597778Y-328575D01*
G54D11*
X448735Y-368553D02*
X474281Y-368553D01*
X486728Y-381000D01*
X486728Y-425450D01*
X470852Y-441325D01*
X470852Y-466725D01*
X483552Y-479425D01*
X496928Y-479425D01*
X497778Y-478575D01*
G54D11*
X423335Y-368553D02*
X423335Y-361843D01*
X435928Y-349250D01*
X477102Y-349250D01*
X497778Y-328575D01*
G54D11*
X397935Y-368553D02*
X397935Y-358668D01*
X429578Y-327025D01*
X440690Y-327025D01*
X497778Y-269938D01*
X622702Y-454025D02*
G54D10*
D03*
X540702Y-454025D02*
G54D10*
D03*
G54D11*
X497778Y-453175D02*
X539852Y-453175D01*
X540702Y-454025D01*
G54D14*
X572877Y-368553D02*
X572877Y-228275D01*
X547778Y-203175D01*
G54D11*
X572877Y-368553D02*
X623506Y-368553D01*
X639128Y-384175D01*
X639128Y-437600D01*
X622702Y-454025D01*
G54D15*
X902024Y-551561D02*
X892690Y-526672D01*
X883357Y-551561D01*
G54D15*
X898290Y-542228D02*
X887090Y-542228D01*
G54D15*
X865312Y-537561D02*
X865312Y-551561D01*
G54D15*
X865312Y-548450D02*
X867179Y-550939D01*
X870912Y-551561D01*
X874646Y-550939D01*
X876512Y-548450D01*
X876512Y-537561D01*
G54D15*
X854735Y-526672D02*
X854735Y-550006D01*
X852868Y-551561D01*
X851002Y-550939D01*
G54D15*
X858468Y-537561D02*
X851002Y-537561D01*
G54D15*
X844158Y-551561D02*
X844158Y-526672D01*
G54D15*
X844158Y-541606D02*
X842291Y-538494D01*
X838558Y-537561D01*
X834824Y-538494D01*
X832958Y-541606D01*
X832958Y-551561D01*
G54D15*
X814914Y-547828D02*
X814914Y-541606D01*
X816780Y-538494D01*
X820514Y-537561D01*
X824247Y-538494D01*
X826114Y-541606D01*
X826114Y-547828D01*
X824247Y-550939D01*
X820514Y-551561D01*
X816780Y-550939D01*
X814914Y-547828D01*
G54D15*
X808070Y-551561D02*
X808070Y-537561D01*
G54D15*
X808070Y-540672D02*
X804336Y-537561D01*
X800603Y-537561D01*
G54D15*
X793758Y-551561D02*
X792265Y-551561D01*
X792265Y-550316D01*
X793758Y-550316D01*
X793758Y-551561D01*
G54D15*
X792265Y-532894D02*
X793758Y-532894D01*
X793758Y-531650D01*
X792265Y-531650D01*
X792265Y-532894D01*
G54D15*
X778204Y-550006D02*
X774471Y-551561D01*
X770738Y-551561D01*
X767004Y-550006D01*
X767004Y-546894D01*
X768871Y-545339D01*
X776338Y-543783D01*
X778204Y-542228D01*
X778204Y-539116D01*
X774471Y-537561D01*
X770738Y-537561D01*
X767004Y-539116D01*
G54D15*
X760160Y-551561D02*
X760160Y-526672D01*
G54D15*
X760160Y-541606D02*
X758294Y-538494D01*
X754560Y-537561D01*
X750827Y-538494D01*
X748960Y-541606D01*
X748960Y-551561D01*
G54D15*
X732783Y-538494D02*
X736516Y-537561D01*
X740250Y-538494D01*
X742116Y-541606D01*
X742116Y-547828D01*
X740250Y-550939D01*
X736516Y-551561D01*
X732783Y-550939D01*
G54D15*
X725940Y-551561D02*
X725940Y-526672D01*
G54D15*
X725940Y-541606D02*
X724073Y-538494D01*
X720340Y-537561D01*
X716606Y-538494D01*
X714740Y-541606D01*
X714740Y-551561D01*
G54D15*
X696696Y-537561D02*
X696696Y-551561D01*
G54D15*
X696696Y-548450D02*
X698562Y-550939D01*
X702296Y-551561D01*
X706029Y-550939D01*
X707896Y-548450D01*
X707896Y-537561D01*
G54D15*
X689852Y-551561D02*
X689852Y-526672D01*
G54D15*
X684252Y-542228D02*
X678652Y-551561D01*
G54D15*
X689852Y-545339D02*
X678652Y-537561D01*
G54D15*
X660608Y-547828D02*
X660608Y-541606D01*
X662474Y-538494D01*
X666208Y-537561D01*
X669941Y-538494D01*
X671808Y-541606D01*
X671808Y-547828D01*
X669941Y-550939D01*
X666208Y-551561D01*
X662474Y-550939D01*
X660608Y-547828D01*
G54D15*
X338268Y-555222D02*
X338268Y-530333D01*
X328935Y-545888D01*
X319602Y-530333D01*
X319602Y-555222D01*
G54D15*
X301557Y-553666D02*
X304544Y-555222D01*
X308277Y-555222D01*
X312011Y-553666D01*
X312757Y-550555D01*
X312757Y-545266D01*
X310891Y-542155D01*
X307157Y-541222D01*
X303424Y-542155D01*
X301557Y-544333D01*
X301557Y-547444D01*
X312757Y-547444D01*
G54D15*
X290980Y-530333D02*
X290980Y-553666D01*
X289113Y-555222D01*
X287247Y-554599D01*
G54D15*
X294713Y-541222D02*
X287247Y-541222D01*
G54D15*
X269202Y-553666D02*
X272189Y-555222D01*
X275922Y-555222D01*
X279656Y-553666D01*
X280402Y-550555D01*
X280402Y-545266D01*
X278536Y-542155D01*
X274802Y-541222D01*
X271069Y-542155D01*
X269202Y-544333D01*
X269202Y-547444D01*
X280402Y-547444D01*
G54D15*
X251158Y-551488D02*
X251158Y-545266D01*
X253025Y-542155D01*
X256758Y-541222D01*
X260492Y-542155D01*
X262358Y-545266D01*
X262358Y-551488D01*
X260492Y-554599D01*
X256758Y-555222D01*
X253025Y-554599D01*
X251158Y-551488D01*
G54D15*
X244314Y-555222D02*
X244314Y-530333D01*
X234981Y-530333D01*
X231248Y-531888D01*
X229381Y-534999D01*
X229381Y-538110D01*
X231248Y-541222D01*
X234981Y-542777D01*
X231248Y-544333D01*
X229381Y-547444D01*
X229381Y-550555D01*
X231248Y-553666D01*
X234981Y-555222D01*
X244314Y-555222D01*
G54D15*
X244314Y-542777D02*
X234981Y-542777D01*
G54D15*
X211337Y-551488D02*
X211337Y-545266D01*
X213204Y-542155D01*
X216937Y-541222D01*
X220671Y-542155D01*
X222537Y-545266D01*
X222537Y-551488D01*
X220671Y-554599D01*
X216937Y-555222D01*
X213204Y-554599D01*
X211337Y-551488D01*
G54D15*
X204493Y-541222D02*
X189560Y-555222D01*
G54D15*
X204493Y-555222D02*
X189560Y-541222D01*
G54D15*
X175499Y-541222D02*
X168033Y-555222D01*
X160566Y-541222D01*
G54D15*
X153722Y-539666D02*
X144389Y-530333D01*
X144389Y-555222D01*
G54D15*
X136052Y-555222D02*
X137545Y-555222D01*
X137545Y-553977D01*
X136052Y-553977D01*
X136052Y-555222D01*
X137545Y-555222D01*
G54D15*
X114275Y-534999D02*
X114275Y-550555D01*
X116142Y-553666D01*
X119875Y-555222D01*
X123608Y-555222D01*
X127342Y-553666D01*
X129208Y-550555D01*
X129208Y-534999D01*
X127342Y-531888D01*
X123608Y-530333D01*
X119875Y-530333D01*
X116142Y-531888D01*
X114275Y-534999D01*
X397935Y-368553D02*
G54D16*
D03*
X423335Y-368553D02*
G54D16*
D03*
X448735Y-368553D02*
G54D16*
D03*
X746952Y-368300D02*
G54D16*
D03*
X772352Y-368300D02*
G54D16*
D03*
X797752Y-368300D02*
G54D16*
D03*
X197802Y-368300D02*
G54D16*
D03*
X223202Y-368300D02*
G54D16*
D03*
X248602Y-368300D02*
G54D16*
D03*
X899678Y-284375D02*
G54D16*
D03*
X899678Y-258975D02*
G54D16*
D03*
X899678Y-233575D02*
G54D16*
D03*
X899678Y-208175D02*
G54D16*
D03*
X95878Y-284775D02*
G54D16*
D03*
X95878Y-259375D02*
G54D16*
D03*
X95878Y-233975D02*
G54D16*
D03*
X95878Y-208575D02*
G54D16*
D03*
X572877Y-368553D02*
G54D16*
D03*
G54D17*
G75*
G01X64648Y-543096D02*
G03X64648Y-543096I-17000J0D01*
G01*
G54D18*
G75*
G01X55548Y-543096D02*
G03X55548Y-543096I-7900J0D01*
G01*
G54D18*
X42036Y-537483D02*
X24636Y-520084D01*
G54D18*
X70660Y-566108D02*
X53261Y-548709D01*
G54D18*
X24546Y-566731D02*
X41946Y-549332D01*
G54D18*
X53732Y-537545D02*
X71131Y-520146D01*
G54D17*
G75*
G01X964737Y-543243D02*
G03X964737Y-543243I-17000J0D01*
G01*
G54D18*
G75*
G01X955637Y-543243D02*
G03X955637Y-543243I-7900J0D01*
G01*
G54D18*
X953350Y-537630D02*
X970749Y-520230D01*
G54D18*
X924726Y-566254D02*
X942125Y-548855D01*
G54D18*
X970839Y-566878D02*
X953440Y-549478D01*
G54D18*
X941653Y-537692D02*
X924254Y-520292D01*
G54D17*
G75*
G01X64625Y-43497D02*
G03X64625Y-43497I-17000J0D01*
G01*
G54D18*
G75*
G01X55525Y-43497D02*
G03X55525Y-43497I-7900J0D01*
G01*
G54D18*
X42013Y-49110D02*
X24613Y-66509D01*
G54D18*
X70637Y-20485D02*
X53238Y-37884D01*
G54D18*
X24523Y-19862D02*
X41923Y-37261D01*
G54D18*
X53709Y-49048D02*
X71108Y-66447D01*
G54D17*
G75*
G01X964738Y-43498D02*
G03X964738Y-43498I-17000J0D01*
G01*
G54D18*
G75*
G01X955638Y-43498D02*
G03X955638Y-43498I-7900J0D01*
G01*
G54D18*
X953350Y-49110D02*
X970749Y-66509D01*
G54D18*
X924726Y-20485D02*
X942125Y-37885D01*
G54D18*
X970839Y-19862D02*
X953440Y-37262D01*
G54D18*
X941653Y-49048D02*
X924254Y-66447D01*
X47625Y-43498D02*
G54D19*
D03*
X947738Y-43497D02*
G54D19*
D03*
X947738Y-543242D02*
G54D19*
D03*
X47625Y-543242D02*
G54D19*
D03*
G54D20*
X974209Y-17177D02*
X974209Y-570981D01*
X974167Y-571023D01*
X21825Y-571023D01*
X21825Y-17179D01*
X974209Y-17177D01*
G36*
X555732Y-397128D02*
X555732Y-416178D01*
X590657Y-416178D01*
X590657Y-397128D01*
X555732Y-397128D01*
G37*
G54D11*
X555732Y-397128D02*
X555732Y-416178D01*
X590657Y-416178D01*
X590657Y-397128D01*
X555732Y-397128D01*
X578956Y-406702D02*
G54D21*
D03*
X572606Y-406702D02*
G54D21*
D03*
X566256Y-406702D02*
G54D21*
D03*
G54D18*
X63040Y-482657D02*
X39040Y-482657D01*
X39040Y-474257D01*
G54D18*
X39040Y-459257D02*
X39040Y-467657D01*
X63040Y-467657D01*
X63040Y-459257D01*
G54D18*
X51040Y-467657D02*
X51040Y-459257D01*
G54D18*
X39040Y-452657D02*
X63040Y-452657D01*
X63040Y-446657D01*
X61540Y-444257D01*
X58540Y-443057D01*
X43540Y-443057D01*
X40540Y-444257D01*
X39040Y-446657D01*
X39040Y-452657D01*
G54D18*
X39040Y-429617D02*
X52540Y-429617D01*
G54D18*
X50140Y-429617D02*
X52540Y-427217D01*
X51640Y-424817D01*
X49540Y-423617D01*
X39040Y-423617D01*
G54D18*
X50140Y-423617D02*
X52540Y-421217D01*
X51640Y-418817D01*
X49540Y-417617D01*
X39040Y-417617D01*
G54D18*
X42640Y-403817D02*
X48640Y-403817D01*
X51640Y-405017D01*
X52540Y-407417D01*
X51640Y-409817D01*
X48640Y-411017D01*
X42640Y-411017D01*
X39640Y-409817D01*
X39040Y-407417D01*
X39640Y-405017D01*
X42640Y-403817D01*
G54D18*
X39040Y-390017D02*
X63040Y-390017D01*
G54D18*
X48640Y-390017D02*
X51640Y-391217D01*
X52540Y-393617D01*
X51640Y-396017D01*
X48640Y-397217D01*
X42640Y-397217D01*
X39640Y-396017D01*
X39040Y-393617D01*
X39640Y-391217D01*
X42640Y-390017D01*
G54D18*
X52540Y-376217D02*
X39040Y-376217D01*
G54D18*
X42040Y-376217D02*
X39640Y-377417D01*
X39040Y-379817D01*
X39640Y-382217D01*
X42040Y-383417D01*
X52540Y-383417D01*
G54D18*
X39040Y-369617D02*
X63040Y-369617D01*
G54D18*
X40540Y-355817D02*
X39040Y-357737D01*
X39040Y-360137D01*
X40540Y-362537D01*
X43540Y-363017D01*
X48640Y-363017D01*
X51640Y-361817D01*
X52540Y-359417D01*
X51640Y-357017D01*
X49540Y-355817D01*
X46540Y-355817D01*
X46540Y-363017D01*
X347778Y-203175D02*
G54D10*
D03*
X347778Y-285175D02*
G54D10*
D03*
X447778Y-203175D02*
G54D10*
D03*
X447778Y-285175D02*
G54D10*
D03*
X547778Y-203175D02*
G54D10*
D03*
X547778Y-285175D02*
G54D10*
D03*
X647778Y-203175D02*
G54D10*
D03*
X647778Y-285175D02*
G54D10*
D03*
X847778Y-203175D02*
G54D10*
D03*
X847778Y-285175D02*
G54D10*
D03*
X747778Y-203175D02*
G54D10*
D03*
X747778Y-285175D02*
G54D10*
D03*
X297778Y-303175D02*
G54D10*
D03*
X297778Y-328575D02*
G54D10*
D03*
X397778Y-303175D02*
G54D10*
D03*
X397778Y-328575D02*
G54D10*
D03*
X497778Y-303175D02*
G54D10*
D03*
X497778Y-328575D02*
G54D10*
D03*
X597778Y-303175D02*
G54D10*
D03*
X597778Y-328575D02*
G54D10*
D03*
X697778Y-303175D02*
G54D10*
D03*
X697778Y-328575D02*
G54D10*
D03*
X797778Y-303175D02*
G54D10*
D03*
X797778Y-328575D02*
G54D10*
D03*
M02*
