%FSLAX34Y34*%
%MOMM*%
%LNSILK_TOP*%
G71*
G01*
%ADD10C, 0.100*%
%ADD11C, 0.150*%
%ADD12C, 0.200*%
%ADD13C, 0.144*%
%ADD14C, 0.189*%
%ADD15C, 0.156*%
%ADD16C, 0.333*%
%ADD17C, 0.311*%
%ADD18C, 0.400*%
%ADD19C, 0.300*%
%ADD20C, 1.500*%
%ADD21C, 0.600*%
%LPD*%
G54D10*
G75*
G01X505928Y-180618D02*
G03X510854Y-152681I-8450J15893D01*
G01*
G54D10*
G75*
G01X483689Y-153155D02*
G03X489027Y-180618I13789J-11570D01*
G01*
G54D10*
X510978Y-152725D02*
X506178Y-152725D01*
G54D10*
X483978Y-152825D02*
X488778Y-152825D01*
G54D11*
X488428Y-171750D02*
X496840Y-163338D01*
G54D12*
X497628Y-161938D02*
X497628Y-153350D01*
G54D11*
X497628Y-162750D02*
X506628Y-171750D01*
G54D12*
X488628Y-171750D02*
X506628Y-171750D01*
G54D12*
X488628Y-161750D02*
X506128Y-161750D01*
G54D12*
X497428Y-178950D02*
X497428Y-172250D01*
G54D10*
X508540Y-167638D02*
X514890Y-161288D01*
G54D10*
X508540Y-161288D02*
X514890Y-154938D01*
G54D10*
X511715Y-154938D02*
X514890Y-154938D01*
X514890Y-158112D01*
G54D10*
X511715Y-161288D02*
X514890Y-161288D01*
X514890Y-164462D01*
G54D13*
X516422Y-175277D02*
X516422Y-186833D01*
X522489Y-186833D01*
G54D13*
X531734Y-186833D02*
X525668Y-186833D01*
X525668Y-175277D01*
X531734Y-175277D01*
G54D13*
X525668Y-181055D02*
X531734Y-181055D01*
G54D13*
X534912Y-186833D02*
X534912Y-175277D01*
X539246Y-175277D01*
X540979Y-176000D01*
X541846Y-177444D01*
X541846Y-184666D01*
X540979Y-186111D01*
X539246Y-186833D01*
X534912Y-186833D01*
G54D13*
X551957Y-175277D02*
X545024Y-175277D01*
X545024Y-180333D01*
X545890Y-180333D01*
X547624Y-179611D01*
X549357Y-179611D01*
X551090Y-180333D01*
X551957Y-181777D01*
X551957Y-184666D01*
X551090Y-186111D01*
X549357Y-186833D01*
X547624Y-186833D01*
X545890Y-186111D01*
X545024Y-184666D01*
G54D10*
G75*
G01X605928Y-180618D02*
G03X610854Y-152681I-8450J15893D01*
G01*
G54D10*
G75*
G01X583689Y-153155D02*
G03X589027Y-180618I13789J-11570D01*
G01*
G54D10*
X610978Y-152725D02*
X606178Y-152725D01*
G54D10*
X583978Y-152825D02*
X588778Y-152825D01*
G54D11*
X588428Y-171750D02*
X596840Y-163338D01*
G54D12*
X597628Y-161938D02*
X597628Y-153350D01*
G54D11*
X597628Y-162750D02*
X606628Y-171750D01*
G54D12*
X588628Y-171750D02*
X606628Y-171750D01*
G54D12*
X588628Y-161750D02*
X606128Y-161750D01*
G54D12*
X597428Y-178950D02*
X597428Y-172250D01*
G54D10*
X608540Y-167638D02*
X614890Y-161288D01*
G54D10*
X608540Y-161288D02*
X614890Y-154938D01*
G54D10*
X611715Y-154938D02*
X614890Y-154938D01*
X614890Y-158112D01*
G54D10*
X611715Y-161288D02*
X614890Y-161288D01*
X614890Y-164462D01*
G54D13*
X616422Y-175277D02*
X616422Y-186833D01*
X622489Y-186833D01*
G54D13*
X631734Y-186833D02*
X625668Y-186833D01*
X625668Y-175277D01*
X631734Y-175277D01*
G54D13*
X625668Y-181055D02*
X631734Y-181055D01*
G54D13*
X634912Y-186833D02*
X634912Y-175277D01*
X639246Y-175277D01*
X640979Y-176000D01*
X641846Y-177444D01*
X641846Y-184666D01*
X640979Y-186111D01*
X639246Y-186833D01*
X634912Y-186833D01*
G54D13*
X651957Y-177444D02*
X651090Y-176000D01*
X649357Y-175277D01*
X647624Y-175277D01*
X645890Y-176000D01*
X645024Y-177444D01*
X645024Y-181055D01*
X645024Y-181777D01*
X647624Y-180333D01*
X649357Y-180333D01*
X651090Y-181055D01*
X651957Y-182500D01*
X651957Y-184666D01*
X651090Y-186111D01*
X649357Y-186833D01*
X647624Y-186833D01*
X645890Y-186111D01*
X645024Y-184666D01*
X645024Y-181055D01*
G54D10*
G75*
G01X705928Y-180618D02*
G03X710854Y-152681I-8450J15893D01*
G01*
G54D10*
G75*
G01X683689Y-153155D02*
G03X689027Y-180618I13789J-11570D01*
G01*
G54D10*
X710978Y-152725D02*
X706178Y-152725D01*
G54D10*
X683978Y-152825D02*
X688778Y-152825D01*
G54D11*
X688428Y-171750D02*
X696840Y-163338D01*
G54D12*
X697628Y-161938D02*
X697628Y-153350D01*
G54D11*
X697628Y-162750D02*
X706628Y-171750D01*
G54D12*
X688628Y-171750D02*
X706628Y-171750D01*
G54D12*
X688628Y-161750D02*
X706128Y-161750D01*
G54D12*
X697428Y-178950D02*
X697428Y-172250D01*
G54D10*
X708540Y-167638D02*
X714890Y-161288D01*
G54D10*
X708540Y-161288D02*
X714890Y-154938D01*
G54D10*
X711715Y-154938D02*
X714890Y-154938D01*
X714890Y-158112D01*
G54D10*
X711715Y-161288D02*
X714890Y-161288D01*
X714890Y-164462D01*
G54D13*
X719598Y-175277D02*
X719598Y-186833D01*
X725664Y-186833D01*
G54D13*
X734909Y-186833D02*
X728842Y-186833D01*
X728842Y-175277D01*
X734909Y-175277D01*
G54D13*
X728842Y-181055D02*
X734909Y-181055D01*
G54D13*
X738088Y-186833D02*
X738088Y-175277D01*
X742421Y-175277D01*
X744154Y-176000D01*
X745021Y-177444D01*
X745021Y-184666D01*
X744154Y-186111D01*
X742421Y-186833D01*
X738088Y-186833D01*
G54D13*
X748198Y-175277D02*
X755132Y-175277D01*
X754265Y-176722D01*
X752532Y-178889D01*
X750798Y-181777D01*
X749932Y-183944D01*
X749932Y-186833D01*
G54D10*
G75*
G01X805928Y-180618D02*
G03X810854Y-152681I-8450J15893D01*
G01*
G54D10*
G75*
G01X783689Y-153155D02*
G03X789027Y-180618I13789J-11570D01*
G01*
G54D10*
X810978Y-152725D02*
X806178Y-152725D01*
G54D10*
X783978Y-152825D02*
X788778Y-152825D01*
G54D11*
X788428Y-171750D02*
X796840Y-163338D01*
G54D12*
X797628Y-161938D02*
X797628Y-153350D01*
G54D11*
X797628Y-162750D02*
X806628Y-171750D01*
G54D12*
X788628Y-171750D02*
X806628Y-171750D01*
G54D12*
X788628Y-161750D02*
X806128Y-161750D01*
G54D12*
X797428Y-178950D02*
X797428Y-172250D01*
G54D10*
X808540Y-167638D02*
X814890Y-161288D01*
G54D10*
X808540Y-161288D02*
X814890Y-154938D01*
G54D10*
X811715Y-154938D02*
X814890Y-154938D01*
X814890Y-158112D01*
G54D10*
X811715Y-161288D02*
X814890Y-161288D01*
X814890Y-164462D01*
G54D13*
X816422Y-175277D02*
X816422Y-186833D01*
X822489Y-186833D01*
G54D13*
X831734Y-186833D02*
X825668Y-186833D01*
X825668Y-175277D01*
X831734Y-175277D01*
G54D13*
X825668Y-181055D02*
X831734Y-181055D01*
G54D13*
X834912Y-186833D02*
X834912Y-175277D01*
X839246Y-175277D01*
X840979Y-176000D01*
X841846Y-177444D01*
X841846Y-184666D01*
X840979Y-186111D01*
X839246Y-186833D01*
X834912Y-186833D01*
G54D13*
X849357Y-181055D02*
X847624Y-181055D01*
X845890Y-180333D01*
X845024Y-178889D01*
X845024Y-177444D01*
X845890Y-176000D01*
X847624Y-175277D01*
X849357Y-175277D01*
X851090Y-176000D01*
X851957Y-177444D01*
X851957Y-178889D01*
X851090Y-180333D01*
X849357Y-181055D01*
X851090Y-181777D01*
X851957Y-183222D01*
X851957Y-184666D01*
X851090Y-186111D01*
X849357Y-186833D01*
X847624Y-186833D01*
X845890Y-186111D01*
X845024Y-184666D01*
X845024Y-183222D01*
X845890Y-181777D01*
X847624Y-181055D01*
G54D10*
G75*
G01X905928Y-180618D02*
G03X910854Y-152681I-8450J15893D01*
G01*
G54D10*
G75*
G01X883689Y-153155D02*
G03X889027Y-180618I13789J-11570D01*
G01*
G54D10*
X910978Y-152725D02*
X906178Y-152725D01*
G54D10*
X883978Y-152825D02*
X888778Y-152825D01*
G54D11*
X888428Y-171750D02*
X896840Y-163338D01*
G54D12*
X897628Y-161938D02*
X897628Y-153350D01*
G54D11*
X897628Y-162750D02*
X906628Y-171750D01*
G54D12*
X888628Y-171750D02*
X906628Y-171750D01*
G54D12*
X888628Y-161750D02*
X906128Y-161750D01*
G54D12*
X897428Y-178950D02*
X897428Y-172250D01*
G54D10*
X908540Y-167638D02*
X914890Y-161288D01*
G54D10*
X908540Y-161288D02*
X914890Y-154938D01*
G54D10*
X911715Y-154938D02*
X914890Y-154938D01*
X914890Y-158112D01*
G54D10*
X911715Y-161288D02*
X914890Y-161288D01*
X914890Y-164462D01*
G54D13*
X918129Y-175556D02*
X918129Y-187112D01*
X924196Y-187112D01*
G54D13*
X933441Y-187112D02*
X927374Y-187112D01*
X927374Y-175556D01*
X933441Y-175556D01*
G54D13*
X927374Y-181334D02*
X933441Y-181334D01*
G54D13*
X936619Y-187112D02*
X936619Y-175556D01*
X940952Y-175556D01*
X942686Y-176278D01*
X943552Y-177723D01*
X943552Y-184945D01*
X942686Y-186389D01*
X940952Y-187112D01*
X936619Y-187112D01*
G54D13*
X946730Y-184945D02*
X947597Y-186389D01*
X949330Y-187112D01*
X951064Y-187112D01*
X952797Y-186389D01*
X953664Y-184945D01*
X953664Y-181334D01*
X953664Y-180612D01*
X951064Y-182056D01*
X949330Y-182056D01*
X947597Y-181334D01*
X946730Y-179889D01*
X946730Y-177723D01*
X947597Y-176278D01*
X949330Y-175556D01*
X951064Y-175556D01*
X952797Y-176278D01*
X953664Y-177723D01*
X953664Y-181334D01*
G54D10*
G75*
G01X106078Y-180443D02*
G03X111004Y-152506I-8450J15893D01*
G01*
G54D10*
G75*
G01X83839Y-152980D02*
G03X89177Y-180443I13789J-11570D01*
G01*
G54D10*
X111128Y-152550D02*
X106328Y-152550D01*
G54D10*
X84128Y-152650D02*
X88928Y-152650D01*
G54D11*
X88578Y-171575D02*
X96990Y-163162D01*
G54D12*
X97778Y-161762D02*
X97778Y-153175D01*
G54D11*
X97778Y-162575D02*
X106778Y-171575D01*
G54D12*
X88778Y-171575D02*
X106778Y-171575D01*
G54D12*
X88778Y-161575D02*
X106278Y-161575D01*
G54D12*
X97578Y-178775D02*
X97578Y-172075D01*
G54D10*
X108690Y-167462D02*
X115040Y-161112D01*
G54D10*
X108690Y-161112D02*
X115040Y-154762D01*
G54D10*
X111865Y-154762D02*
X115040Y-154762D01*
X115040Y-157938D01*
G54D10*
X111865Y-161112D02*
X115040Y-161112D01*
X115040Y-164288D01*
G54D13*
X116572Y-175102D02*
X116572Y-186658D01*
X122639Y-186658D01*
G54D13*
X131884Y-186658D02*
X125818Y-186658D01*
X125818Y-175102D01*
X131884Y-175102D01*
G54D13*
X125818Y-180880D02*
X131884Y-180880D01*
G54D13*
X135062Y-186658D02*
X135062Y-175102D01*
X139396Y-175102D01*
X141129Y-175825D01*
X141996Y-177269D01*
X141996Y-184491D01*
X141129Y-185936D01*
X139396Y-186658D01*
X135062Y-186658D01*
G54D13*
X145174Y-179436D02*
X149507Y-175102D01*
X149507Y-186658D01*
G54D10*
G75*
G01X206078Y-180443D02*
G03X211004Y-152506I-8450J15893D01*
G01*
G54D10*
G75*
G01X183839Y-152980D02*
G03X189177Y-180443I13789J-11570D01*
G01*
G54D10*
X211128Y-152550D02*
X206328Y-152550D01*
G54D10*
X184128Y-152650D02*
X188928Y-152650D01*
G54D11*
X188578Y-171575D02*
X196990Y-163162D01*
G54D12*
X197778Y-161762D02*
X197778Y-153175D01*
G54D11*
X197778Y-162575D02*
X206778Y-171575D01*
G54D12*
X188778Y-171575D02*
X206778Y-171575D01*
G54D12*
X188778Y-161575D02*
X206278Y-161575D01*
G54D12*
X197578Y-178775D02*
X197578Y-172075D01*
G54D10*
X208690Y-167462D02*
X215040Y-161112D01*
G54D10*
X208690Y-161112D02*
X215040Y-154762D01*
G54D10*
X211865Y-154762D02*
X215040Y-154762D01*
X215040Y-157938D01*
G54D10*
X211865Y-161112D02*
X215040Y-161112D01*
X215040Y-164288D01*
G54D13*
X216890Y-174785D02*
X216890Y-186340D01*
X222957Y-186340D01*
G54D13*
X232202Y-186340D02*
X226135Y-186340D01*
X226135Y-174785D01*
X232202Y-174785D01*
G54D13*
X226135Y-180563D02*
X232202Y-180563D01*
G54D13*
X235380Y-186340D02*
X235380Y-174785D01*
X239713Y-174785D01*
X241447Y-175507D01*
X242313Y-176952D01*
X242313Y-184174D01*
X241447Y-185618D01*
X239713Y-186340D01*
X235380Y-186340D01*
G54D13*
X252424Y-186340D02*
X245491Y-186340D01*
X245491Y-185618D01*
X246358Y-184174D01*
X251558Y-179840D01*
X252424Y-178396D01*
X252424Y-176952D01*
X251558Y-175507D01*
X249824Y-174785D01*
X248091Y-174785D01*
X246358Y-175507D01*
X245491Y-176952D01*
G54D10*
G75*
G01X306078Y-180443D02*
G03X311004Y-152506I-8450J15893D01*
G01*
G54D10*
G75*
G01X283839Y-152980D02*
G03X289177Y-180443I13789J-11570D01*
G01*
G54D10*
X311128Y-152550D02*
X306328Y-152550D01*
G54D10*
X284128Y-152650D02*
X288928Y-152650D01*
G54D11*
X288578Y-171575D02*
X296990Y-163162D01*
G54D12*
X297778Y-161762D02*
X297778Y-153175D01*
G54D11*
X297778Y-162575D02*
X306778Y-171575D01*
G54D12*
X288778Y-171575D02*
X306778Y-171575D01*
G54D12*
X288778Y-161575D02*
X306278Y-161575D01*
G54D12*
X297578Y-178775D02*
X297578Y-172075D01*
G54D10*
X308690Y-167462D02*
X315040Y-161112D01*
G54D10*
X308690Y-161112D02*
X315040Y-154762D01*
G54D10*
X311865Y-154762D02*
X315040Y-154762D01*
X315040Y-157938D01*
G54D10*
X311865Y-161112D02*
X315040Y-161112D01*
X315040Y-164288D01*
G54D13*
X316572Y-175102D02*
X316572Y-186658D01*
X322639Y-186658D01*
G54D13*
X331884Y-186658D02*
X325818Y-186658D01*
X325818Y-175102D01*
X331884Y-175102D01*
G54D13*
X325818Y-180880D02*
X331884Y-180880D01*
G54D13*
X335062Y-186658D02*
X335062Y-175102D01*
X339396Y-175102D01*
X341129Y-175825D01*
X341996Y-177269D01*
X341996Y-184491D01*
X341129Y-185936D01*
X339396Y-186658D01*
X335062Y-186658D01*
G54D13*
X345174Y-177269D02*
X346040Y-175825D01*
X347774Y-175102D01*
X349507Y-175102D01*
X351240Y-175825D01*
X352107Y-177269D01*
X352107Y-178714D01*
X351240Y-180158D01*
X349507Y-180880D01*
X351240Y-181602D01*
X352107Y-183047D01*
X352107Y-184491D01*
X351240Y-185936D01*
X349507Y-186658D01*
X347774Y-186658D01*
X346040Y-185936D01*
X345174Y-184491D01*
G54D10*
G75*
G01X406078Y-180443D02*
G03X411004Y-152506I-8450J15893D01*
G01*
G54D10*
G75*
G01X383839Y-152980D02*
G03X389177Y-180443I13789J-11570D01*
G01*
G54D10*
X411128Y-152550D02*
X406328Y-152550D01*
G54D10*
X384128Y-152650D02*
X388928Y-152650D01*
G54D11*
X388578Y-171575D02*
X396990Y-163162D01*
G54D12*
X397778Y-161762D02*
X397778Y-153175D01*
G54D11*
X397778Y-162575D02*
X406778Y-171575D01*
G54D12*
X388778Y-171575D02*
X406778Y-171575D01*
G54D12*
X388778Y-161575D02*
X406278Y-161575D01*
G54D12*
X397578Y-178775D02*
X397578Y-172075D01*
G54D10*
X408690Y-167462D02*
X415040Y-161112D01*
G54D10*
X408690Y-161112D02*
X415040Y-154762D01*
G54D10*
X411865Y-154762D02*
X415040Y-154762D01*
X415040Y-157938D01*
G54D10*
X411865Y-161112D02*
X415040Y-161112D01*
X415040Y-164288D01*
G54D13*
X416572Y-175102D02*
X416572Y-186658D01*
X422639Y-186658D01*
G54D13*
X431884Y-186658D02*
X425818Y-186658D01*
X425818Y-175102D01*
X431884Y-175102D01*
G54D13*
X425818Y-180880D02*
X431884Y-180880D01*
G54D13*
X435062Y-186658D02*
X435062Y-175102D01*
X439396Y-175102D01*
X441129Y-175825D01*
X441996Y-177269D01*
X441996Y-184491D01*
X441129Y-185936D01*
X439396Y-186658D01*
X435062Y-186658D01*
G54D13*
X450374Y-186658D02*
X450374Y-175102D01*
X445174Y-182325D01*
X445174Y-183769D01*
X452107Y-183769D01*
G54D10*
G75*
G01X206228Y-330268D02*
G03X211154Y-302331I-8450J15893D01*
G01*
G54D10*
G75*
G01X183989Y-302805D02*
G03X189327Y-330268I13789J-11570D01*
G01*
G54D10*
X211278Y-302375D02*
X206478Y-302375D01*
G54D10*
X184278Y-302475D02*
X189078Y-302475D01*
G54D11*
X188728Y-321400D02*
X197140Y-312988D01*
G54D12*
X197928Y-311588D02*
X197928Y-303000D01*
G54D11*
X197928Y-312400D02*
X206928Y-321400D01*
G54D12*
X188928Y-321400D02*
X206928Y-321400D01*
G54D12*
X188928Y-311400D02*
X206428Y-311400D01*
G54D12*
X197728Y-328600D02*
X197728Y-321900D01*
G54D10*
X208840Y-317288D02*
X215190Y-310938D01*
G54D10*
X208840Y-310938D02*
X215190Y-304588D01*
G54D10*
X212015Y-304588D02*
X215190Y-304588D01*
X215190Y-307762D01*
G54D10*
X212015Y-310938D02*
X215190Y-310938D01*
X215190Y-314112D01*
G54D13*
X130997Y-299526D02*
X130997Y-311082D01*
X137064Y-311082D01*
G54D13*
X146309Y-311082D02*
X140242Y-311082D01*
X140242Y-299526D01*
X146309Y-299526D01*
G54D13*
X140242Y-305304D02*
X146309Y-305304D01*
G54D13*
X149487Y-311082D02*
X149487Y-299526D01*
X153820Y-299526D01*
X155554Y-300248D01*
X156420Y-301693D01*
X156420Y-308915D01*
X155554Y-310359D01*
X153820Y-311082D01*
X149487Y-311082D01*
G54D13*
X159598Y-303859D02*
X163931Y-299526D01*
X163931Y-311082D01*
G54D13*
X174042Y-301693D02*
X174042Y-308915D01*
X173176Y-310359D01*
X171442Y-311082D01*
X169709Y-311082D01*
X167976Y-310359D01*
X167109Y-308915D01*
X167109Y-301693D01*
X167976Y-300248D01*
X169709Y-299526D01*
X171442Y-299526D01*
X173176Y-300248D01*
X174042Y-301693D01*
G54D10*
G75*
G01X506228Y-480268D02*
G03X511154Y-452331I-8450J15893D01*
G01*
G54D10*
G75*
G01X483989Y-452805D02*
G03X489327Y-480268I13789J-11570D01*
G01*
G54D10*
X511278Y-452375D02*
X506478Y-452375D01*
G54D10*
X484278Y-452475D02*
X489078Y-452475D01*
G54D11*
X488728Y-471400D02*
X497140Y-462988D01*
G54D12*
X497928Y-461588D02*
X497928Y-453000D01*
G54D11*
X497928Y-462400D02*
X506928Y-471400D01*
G54D12*
X488928Y-471400D02*
X506928Y-471400D01*
G54D12*
X488928Y-461400D02*
X506428Y-461400D01*
G54D12*
X497728Y-478600D02*
X497728Y-471900D01*
G54D10*
X508840Y-467288D02*
X515190Y-460938D01*
G54D10*
X508840Y-460938D02*
X515190Y-454588D01*
G54D10*
X512015Y-454588D02*
X515190Y-454588D01*
X515190Y-457762D01*
G54D10*
X512015Y-460938D02*
X515190Y-460938D01*
X515190Y-464112D01*
G54D13*
X462510Y-485020D02*
X474065Y-485020D01*
X474065Y-478953D01*
G54D13*
X474065Y-469708D02*
X474065Y-475775D01*
X462510Y-475775D01*
X462510Y-469708D01*
G54D13*
X468287Y-475775D02*
X468287Y-469708D01*
G54D13*
X474065Y-466530D02*
X462510Y-466530D01*
X462510Y-462196D01*
X463232Y-460463D01*
X464676Y-459596D01*
X471898Y-459596D01*
X473343Y-460463D01*
X474065Y-462196D01*
X474065Y-466530D01*
G54D13*
X466843Y-456419D02*
X462510Y-452085D01*
X474065Y-452085D01*
G54D13*
X462510Y-448908D02*
X462510Y-441974D01*
X463954Y-442841D01*
X466121Y-444574D01*
X469010Y-446308D01*
X471176Y-447174D01*
X474065Y-447174D01*
G54D10*
X105778Y-54175D02*
X109778Y-58175D01*
X109778Y-66175D01*
X107778Y-68175D01*
X107778Y-100175D01*
X109778Y-102175D01*
X109778Y-110175D01*
X105778Y-114175D01*
X89778Y-114175D01*
X85778Y-110175D01*
X85778Y-102175D01*
X87778Y-100175D01*
X87778Y-68175D01*
X85778Y-66175D01*
X85778Y-58175D01*
X89778Y-54175D01*
X105778Y-54175D01*
G54D10*
X107778Y-68175D02*
X87778Y-68175D01*
G54D10*
X107778Y-100175D02*
X87778Y-100175D01*
G54D10*
X100778Y-43175D02*
X100778Y-54175D01*
G54D10*
X94778Y-43175D02*
X94778Y-54175D01*
G54D10*
X94778Y-125175D02*
X94778Y-114175D01*
G54D10*
X100778Y-125175D02*
X100778Y-114175D01*
G54D12*
X125414Y-92248D02*
X127414Y-88648D01*
X129414Y-87448D01*
X133414Y-87448D01*
G54D12*
X133414Y-97048D02*
X117414Y-97048D01*
X117414Y-91048D01*
X118414Y-88648D01*
X120414Y-87448D01*
X122414Y-87448D01*
X124414Y-88648D01*
X125414Y-91048D01*
X125414Y-97048D01*
G54D12*
X123414Y-83048D02*
X117414Y-77048D01*
X133414Y-77048D01*
G54D10*
X205778Y-54175D02*
X209778Y-58175D01*
X209778Y-66175D01*
X207778Y-68175D01*
X207778Y-100175D01*
X209778Y-102175D01*
X209778Y-110175D01*
X205778Y-114175D01*
X189778Y-114175D01*
X185778Y-110175D01*
X185778Y-102175D01*
X187778Y-100175D01*
X187778Y-68175D01*
X185778Y-66175D01*
X185778Y-58175D01*
X189778Y-54175D01*
X205778Y-54175D01*
G54D10*
X207778Y-68175D02*
X187778Y-68175D01*
G54D10*
X207778Y-100175D02*
X187778Y-100175D01*
G54D10*
X200778Y-43175D02*
X200778Y-54175D01*
G54D10*
X194778Y-43175D02*
X194778Y-54175D01*
G54D10*
X194778Y-125175D02*
X194778Y-114175D01*
G54D10*
X200778Y-125175D02*
X200778Y-114175D01*
G54D12*
X224970Y-91593D02*
X226970Y-87993D01*
X228970Y-86793D01*
X232970Y-86793D01*
G54D12*
X232970Y-96393D02*
X216970Y-96393D01*
X216970Y-90393D01*
X217970Y-87993D01*
X219970Y-86793D01*
X221970Y-86793D01*
X223970Y-87993D01*
X224970Y-90393D01*
X224970Y-96393D01*
G54D12*
X232970Y-72793D02*
X232970Y-82393D01*
X231970Y-82393D01*
X229970Y-81193D01*
X223970Y-73993D01*
X221970Y-72793D01*
X219970Y-72793D01*
X217970Y-73993D01*
X216970Y-76393D01*
X216970Y-78793D01*
X217970Y-81193D01*
X219970Y-82393D01*
G54D10*
X305778Y-54175D02*
X309778Y-58175D01*
X309778Y-66175D01*
X307778Y-68175D01*
X307778Y-100175D01*
X309778Y-102175D01*
X309778Y-110175D01*
X305778Y-114175D01*
X289778Y-114175D01*
X285778Y-110175D01*
X285778Y-102175D01*
X287778Y-100175D01*
X287778Y-68175D01*
X285778Y-66175D01*
X285778Y-58175D01*
X289778Y-54175D01*
X305778Y-54175D01*
G54D10*
X307778Y-68175D02*
X287778Y-68175D01*
G54D10*
X307778Y-100175D02*
X287778Y-100175D01*
G54D10*
X300778Y-43175D02*
X300778Y-54175D01*
G54D10*
X294778Y-43175D02*
X294778Y-54175D01*
G54D10*
X294778Y-125175D02*
X294778Y-114175D01*
G54D10*
X300778Y-125175D02*
X300778Y-114175D01*
G54D12*
X325414Y-92248D02*
X327414Y-88648D01*
X329414Y-87448D01*
X333414Y-87448D01*
G54D12*
X333414Y-97048D02*
X317414Y-97048D01*
X317414Y-91048D01*
X318414Y-88648D01*
X320414Y-87448D01*
X322414Y-87448D01*
X324414Y-88648D01*
X325414Y-91048D01*
X325414Y-97048D01*
G54D12*
X320414Y-83048D02*
X318414Y-81848D01*
X317414Y-79448D01*
X317414Y-77048D01*
X318414Y-74648D01*
X320414Y-73448D01*
X322414Y-73448D01*
X324414Y-74648D01*
X325414Y-77048D01*
X326414Y-74648D01*
X328414Y-73448D01*
X330414Y-73448D01*
X332414Y-74648D01*
X333414Y-77048D01*
X333414Y-79448D01*
X332414Y-81848D01*
X330414Y-83048D01*
G54D10*
X405778Y-54175D02*
X409778Y-58175D01*
X409778Y-66175D01*
X407778Y-68175D01*
X407778Y-100175D01*
X409778Y-102175D01*
X409778Y-110175D01*
X405778Y-114175D01*
X389778Y-114175D01*
X385778Y-110175D01*
X385778Y-102175D01*
X387778Y-100175D01*
X387778Y-68175D01*
X385778Y-66175D01*
X385778Y-58175D01*
X389778Y-54175D01*
X405778Y-54175D01*
G54D10*
X407778Y-68175D02*
X387778Y-68175D01*
G54D10*
X407778Y-100175D02*
X387778Y-100175D01*
G54D10*
X400778Y-43175D02*
X400778Y-54175D01*
G54D10*
X394778Y-43175D02*
X394778Y-54175D01*
G54D10*
X394778Y-125175D02*
X394778Y-114175D01*
G54D10*
X400778Y-125175D02*
X400778Y-114175D01*
G54D12*
X425414Y-92248D02*
X427414Y-88648D01*
X429414Y-87448D01*
X433414Y-87448D01*
G54D12*
X433414Y-97048D02*
X417414Y-97048D01*
X417414Y-91048D01*
X418414Y-88648D01*
X420414Y-87448D01*
X422414Y-87448D01*
X424414Y-88648D01*
X425414Y-91048D01*
X425414Y-97048D01*
G54D12*
X433414Y-75848D02*
X417414Y-75848D01*
X427414Y-83048D01*
X429414Y-83048D01*
X429414Y-73448D01*
G54D10*
X505778Y-54175D02*
X509778Y-58175D01*
X509778Y-66175D01*
X507778Y-68175D01*
X507778Y-100175D01*
X509778Y-102175D01*
X509778Y-110175D01*
X505778Y-114175D01*
X489778Y-114175D01*
X485778Y-110175D01*
X485778Y-102175D01*
X487778Y-100175D01*
X487778Y-68175D01*
X485778Y-66175D01*
X485778Y-58175D01*
X489778Y-54175D01*
X505778Y-54175D01*
G54D10*
X507778Y-68175D02*
X487778Y-68175D01*
G54D10*
X507778Y-100175D02*
X487778Y-100175D01*
G54D10*
X500778Y-43175D02*
X500778Y-54175D01*
G54D10*
X494778Y-43175D02*
X494778Y-54175D01*
G54D10*
X494778Y-125175D02*
X494778Y-114175D01*
G54D10*
X500778Y-125175D02*
X500778Y-114175D01*
G54D12*
X525414Y-92248D02*
X527414Y-88648D01*
X529414Y-87448D01*
X533414Y-87448D01*
G54D12*
X533414Y-97048D02*
X517414Y-97048D01*
X517414Y-91048D01*
X518414Y-88648D01*
X520414Y-87448D01*
X522414Y-87448D01*
X524414Y-88648D01*
X525414Y-91048D01*
X525414Y-97048D01*
G54D12*
X517414Y-73448D02*
X517414Y-83048D01*
X524414Y-83048D01*
X524414Y-81848D01*
X523414Y-79448D01*
X523414Y-77048D01*
X524414Y-74648D01*
X526414Y-73448D01*
X530414Y-73448D01*
X532414Y-74648D01*
X533414Y-77048D01*
X533414Y-79448D01*
X532414Y-81848D01*
X530414Y-83048D01*
G54D10*
X605778Y-54175D02*
X609778Y-58175D01*
X609778Y-66175D01*
X607778Y-68175D01*
X607778Y-100175D01*
X609778Y-102175D01*
X609778Y-110175D01*
X605778Y-114175D01*
X589778Y-114175D01*
X585778Y-110175D01*
X585778Y-102175D01*
X587778Y-100175D01*
X587778Y-68175D01*
X585778Y-66175D01*
X585778Y-58175D01*
X589778Y-54175D01*
X605778Y-54175D01*
G54D10*
X607778Y-68175D02*
X587778Y-68175D01*
G54D10*
X607778Y-100175D02*
X587778Y-100175D01*
G54D10*
X600778Y-43175D02*
X600778Y-54175D01*
G54D10*
X594778Y-43175D02*
X594778Y-54175D01*
G54D10*
X594778Y-125175D02*
X594778Y-114175D01*
G54D10*
X600778Y-125175D02*
X600778Y-114175D01*
G54D14*
X622683Y-92516D02*
X624572Y-89116D01*
X626461Y-87982D01*
X630239Y-87982D01*
G54D14*
X630239Y-97049D02*
X615128Y-97049D01*
X615128Y-91382D01*
X616072Y-89116D01*
X617961Y-87982D01*
X619850Y-87982D01*
X621739Y-89116D01*
X622683Y-91382D01*
X622683Y-97049D01*
G54D14*
X617961Y-74759D02*
X616072Y-75893D01*
X615128Y-78159D01*
X615128Y-80426D01*
X616072Y-82693D01*
X617961Y-83826D01*
X622683Y-83826D01*
X623628Y-83826D01*
X621739Y-80426D01*
X621739Y-78159D01*
X622683Y-75893D01*
X624572Y-74759D01*
X627406Y-74759D01*
X629295Y-75893D01*
X630239Y-78159D01*
X630239Y-80426D01*
X629295Y-82693D01*
X627406Y-83826D01*
X622683Y-83826D01*
G54D10*
X705778Y-54175D02*
X709778Y-58175D01*
X709778Y-66175D01*
X707778Y-68175D01*
X707778Y-100175D01*
X709778Y-102175D01*
X709778Y-110175D01*
X705778Y-114175D01*
X689778Y-114175D01*
X685778Y-110175D01*
X685778Y-102175D01*
X687778Y-100175D01*
X687778Y-68175D01*
X685778Y-66175D01*
X685778Y-58175D01*
X689778Y-54175D01*
X705778Y-54175D01*
G54D10*
X707778Y-68175D02*
X687778Y-68175D01*
G54D10*
X707778Y-100175D02*
X687778Y-100175D01*
G54D10*
X700778Y-43175D02*
X700778Y-54175D01*
G54D10*
X694778Y-43175D02*
X694778Y-54175D01*
G54D10*
X694778Y-125175D02*
X694778Y-114175D01*
G54D10*
X700778Y-125175D02*
X700778Y-114175D01*
G54D12*
X725414Y-92249D02*
X727414Y-88649D01*
X729414Y-87449D01*
X733414Y-87449D01*
G54D12*
X733414Y-97049D02*
X717414Y-97049D01*
X717414Y-91049D01*
X718414Y-88649D01*
X720414Y-87449D01*
X722414Y-87449D01*
X724414Y-88649D01*
X725414Y-91049D01*
X725414Y-97049D01*
G54D12*
X717414Y-83049D02*
X717414Y-73449D01*
X719414Y-74649D01*
X722414Y-77049D01*
X726414Y-79449D01*
X729414Y-80649D01*
X733414Y-80649D01*
G54D10*
X805778Y-54175D02*
X809778Y-58175D01*
X809778Y-66175D01*
X807778Y-68175D01*
X807778Y-100175D01*
X809778Y-102175D01*
X809778Y-110175D01*
X805778Y-114175D01*
X789778Y-114175D01*
X785778Y-110175D01*
X785778Y-102175D01*
X787778Y-100175D01*
X787778Y-68175D01*
X785778Y-66175D01*
X785778Y-58175D01*
X789778Y-54175D01*
X805778Y-54175D01*
G54D10*
X807778Y-68175D02*
X787778Y-68175D01*
G54D10*
X807778Y-100175D02*
X787778Y-100175D01*
G54D10*
X800778Y-43175D02*
X800778Y-54175D01*
G54D10*
X794778Y-43175D02*
X794778Y-54175D01*
G54D10*
X794778Y-125175D02*
X794778Y-114175D01*
G54D10*
X800778Y-125175D02*
X800778Y-114175D01*
G54D12*
X825414Y-92249D02*
X827414Y-88649D01*
X829414Y-87449D01*
X833414Y-87449D01*
G54D12*
X833414Y-97049D02*
X817414Y-97049D01*
X817414Y-91049D01*
X818414Y-88649D01*
X820414Y-87449D01*
X822414Y-87449D01*
X824414Y-88649D01*
X825414Y-91049D01*
X825414Y-97049D01*
G54D12*
X825414Y-77049D02*
X825414Y-79449D01*
X824414Y-81849D01*
X822414Y-83049D01*
X820414Y-83049D01*
X818414Y-81849D01*
X817414Y-79449D01*
X817414Y-77049D01*
X818414Y-74649D01*
X820414Y-73449D01*
X822414Y-73449D01*
X824414Y-74649D01*
X825414Y-77049D01*
X826414Y-74649D01*
X828414Y-73449D01*
X830414Y-73449D01*
X832414Y-74649D01*
X833414Y-77049D01*
X833414Y-79449D01*
X832414Y-81849D01*
X830414Y-83049D01*
X828414Y-83049D01*
X826414Y-81849D01*
X825414Y-79449D01*
G54D10*
X905778Y-54175D02*
X909778Y-58175D01*
X909778Y-66175D01*
X907778Y-68175D01*
X907778Y-100175D01*
X909778Y-102175D01*
X909778Y-110175D01*
X905778Y-114175D01*
X889778Y-114175D01*
X885778Y-110175D01*
X885778Y-102175D01*
X887778Y-100175D01*
X887778Y-68175D01*
X885778Y-66175D01*
X885778Y-58175D01*
X889778Y-54175D01*
X905778Y-54175D01*
G54D10*
X907778Y-68175D02*
X887778Y-68175D01*
G54D10*
X907778Y-100175D02*
X887778Y-100175D01*
G54D10*
X900778Y-43175D02*
X900778Y-54175D01*
G54D10*
X894778Y-43175D02*
X894778Y-54175D01*
G54D10*
X894778Y-125175D02*
X894778Y-114175D01*
G54D10*
X900778Y-125175D02*
X900778Y-114175D01*
G54D12*
X922239Y-90026D02*
X924239Y-86426D01*
X926239Y-85226D01*
X930239Y-85226D01*
G54D12*
X930239Y-94826D02*
X914239Y-94826D01*
X914239Y-88826D01*
X915239Y-86426D01*
X917239Y-85226D01*
X919239Y-85226D01*
X921239Y-86426D01*
X922239Y-88826D01*
X922239Y-94826D01*
G54D12*
X927239Y-80826D02*
X929239Y-79626D01*
X930239Y-77226D01*
X930239Y-74826D01*
X929239Y-72426D01*
X927239Y-71226D01*
X922239Y-71226D01*
X921239Y-71226D01*
X923239Y-74826D01*
X923239Y-77226D01*
X922239Y-79626D01*
X920239Y-80826D01*
X917239Y-80826D01*
X915239Y-79626D01*
X914239Y-77226D01*
X914239Y-74826D01*
X915239Y-72426D01*
X917239Y-71226D01*
X922239Y-71226D01*
G54D10*
X255778Y-214175D02*
X259778Y-218175D01*
X259778Y-226175D01*
X257778Y-228175D01*
X257778Y-260175D01*
X259778Y-262175D01*
X259778Y-270175D01*
X255778Y-274175D01*
X239778Y-274175D01*
X235778Y-270175D01*
X235778Y-262175D01*
X237778Y-260175D01*
X237778Y-228175D01*
X235778Y-226175D01*
X235778Y-218175D01*
X239778Y-214175D01*
X255778Y-214175D01*
G54D10*
X257778Y-228175D02*
X237778Y-228175D01*
G54D10*
X257778Y-260175D02*
X237778Y-260175D01*
G54D10*
X250778Y-203175D02*
X250778Y-214175D01*
G54D10*
X244778Y-203175D02*
X244778Y-214175D01*
G54D10*
X244778Y-285175D02*
X244778Y-274175D01*
G54D10*
X250778Y-285175D02*
X250778Y-274175D01*
G54D12*
X272863Y-256374D02*
X274863Y-252774D01*
X276863Y-251574D01*
X280863Y-251574D01*
G54D12*
X280863Y-261174D02*
X264863Y-261174D01*
X264863Y-255174D01*
X265863Y-252774D01*
X267863Y-251574D01*
X269863Y-251574D01*
X271863Y-252774D01*
X272863Y-255174D01*
X272863Y-261174D01*
G54D12*
X270863Y-247174D02*
X264863Y-241174D01*
X280863Y-241174D01*
G54D12*
X267863Y-227174D02*
X277863Y-227174D01*
X279863Y-228374D01*
X280863Y-230774D01*
X280863Y-233174D01*
X279863Y-235574D01*
X277863Y-236774D01*
X267863Y-236774D01*
X265863Y-235574D01*
X264863Y-233174D01*
X264863Y-230774D01*
X265863Y-228374D01*
X267863Y-227174D01*
G54D10*
X611702Y-462025D02*
X607702Y-466025D01*
X599702Y-466025D01*
X597702Y-464025D01*
X565702Y-464025D01*
X563702Y-466025D01*
X555702Y-466025D01*
X551702Y-462025D01*
X551702Y-446025D01*
X555702Y-442025D01*
X563702Y-442025D01*
X565702Y-444025D01*
X597702Y-444025D01*
X599702Y-442025D01*
X607702Y-442025D01*
X611702Y-446025D01*
X611702Y-462025D01*
G54D10*
X597702Y-464025D02*
X597702Y-444025D01*
G54D10*
X565702Y-464025D02*
X565702Y-444025D01*
G54D10*
X622702Y-457025D02*
X611702Y-457025D01*
G54D10*
X622702Y-451025D02*
X611702Y-451025D01*
G54D10*
X540702Y-451025D02*
X551702Y-451025D01*
G54D10*
X540702Y-457025D02*
X551702Y-457025D01*
G54D12*
X569928Y-480075D02*
X573528Y-482075D01*
X574728Y-484075D01*
X574728Y-488075D01*
G54D12*
X565128Y-488075D02*
X565128Y-472075D01*
X571128Y-472075D01*
X573528Y-473075D01*
X574728Y-475075D01*
X574728Y-477075D01*
X573528Y-479075D01*
X571128Y-480075D01*
X565128Y-480075D01*
G54D12*
X579128Y-478075D02*
X585128Y-472075D01*
X585128Y-488075D01*
G54D12*
X589528Y-472075D02*
X599128Y-472075D01*
X597928Y-474075D01*
X595528Y-477075D01*
X593128Y-481075D01*
X591928Y-484075D01*
X591928Y-488075D01*
G54D15*
X69994Y-180390D02*
X69994Y-175413D01*
G54D15*
X75438Y-167013D02*
X75438Y-171990D01*
X74660Y-171990D01*
X73105Y-171368D01*
X68438Y-167635D01*
X66882Y-167013D01*
X65327Y-167013D01*
X63771Y-167635D01*
X62994Y-168879D01*
X62994Y-170124D01*
X63771Y-171368D01*
X65327Y-171990D01*
G54D15*
X65327Y-158613D02*
X73105Y-158613D01*
X74660Y-159235D01*
X75438Y-160479D01*
X75438Y-161724D01*
X74660Y-162968D01*
X73105Y-163590D01*
X65327Y-163590D01*
X63771Y-162968D01*
X62994Y-161724D01*
X62994Y-160479D01*
X63771Y-159235D01*
X65327Y-158613D01*
G54D15*
X65327Y-150213D02*
X73105Y-150213D01*
X74660Y-150835D01*
X75438Y-152079D01*
X75438Y-153324D01*
X74660Y-154568D01*
X73105Y-155190D01*
X65327Y-155190D01*
X63771Y-154568D01*
X62994Y-153324D01*
X62994Y-152079D01*
X63771Y-150835D01*
X65327Y-150213D01*
G54D15*
X75438Y-143244D02*
X62994Y-143244D01*
X62994Y-140133D01*
X63771Y-138889D01*
X65327Y-138267D01*
X66882Y-138267D01*
X68438Y-138889D01*
X69216Y-140133D01*
X69216Y-143244D01*
G54D15*
X69216Y-134844D02*
X68438Y-133600D01*
X68438Y-132107D01*
X69994Y-131111D01*
X75438Y-131111D01*
G54D15*
X73105Y-131111D02*
X71549Y-131733D01*
X71238Y-132978D01*
X71549Y-134222D01*
X73105Y-134844D01*
X74660Y-134596D01*
X75438Y-133600D01*
X75438Y-132978D01*
X75438Y-132729D01*
X74660Y-131733D01*
X73105Y-131111D01*
G54D15*
X75438Y-127690D02*
X62994Y-122712D01*
G54D15*
X75438Y-119290D02*
X62994Y-119290D01*
G54D15*
X70460Y-119290D02*
X68905Y-118667D01*
X68438Y-117423D01*
X68905Y-116178D01*
X70460Y-115556D01*
X75438Y-115556D01*
G54D15*
X165561Y-173480D02*
X165561Y-166013D01*
G54D15*
X163228Y-162591D02*
X158561Y-157924D01*
X171006Y-157924D01*
G54D15*
X158561Y-147035D02*
X158561Y-154502D01*
X164006Y-154502D01*
X164006Y-153569D01*
X163228Y-151702D01*
X163228Y-149835D01*
X164006Y-147969D01*
X165561Y-147035D01*
X168672Y-147035D01*
X170228Y-147969D01*
X171006Y-149835D01*
X171006Y-151702D01*
X170228Y-153569D01*
X168672Y-154502D01*
G54D15*
X160894Y-136146D02*
X168672Y-136146D01*
X170228Y-137080D01*
X171006Y-138946D01*
X171006Y-140813D01*
X170228Y-142680D01*
X168672Y-143613D01*
X160894Y-143613D01*
X159339Y-142680D01*
X158561Y-140813D01*
X158561Y-138946D01*
X159339Y-137080D01*
X160894Y-136146D01*
G54D15*
X171006Y-129115D02*
X158561Y-129115D01*
X158561Y-124448D01*
X159339Y-122582D01*
X160894Y-121648D01*
X162450Y-121648D01*
X164006Y-122582D01*
X164783Y-124448D01*
X164783Y-129115D01*
G54D15*
X164783Y-118226D02*
X164006Y-116359D01*
X164006Y-114119D01*
X165561Y-112626D01*
X171006Y-112626D01*
G54D15*
X168672Y-112626D02*
X167117Y-113559D01*
X166806Y-115426D01*
X167117Y-117293D01*
X168672Y-118226D01*
X170228Y-117853D01*
X171006Y-116359D01*
X171006Y-115426D01*
X171006Y-115053D01*
X170228Y-113559D01*
X168672Y-112626D01*
G54D15*
X171006Y-109204D02*
X158561Y-101737D01*
G54D15*
X171006Y-98315D02*
X158561Y-98315D01*
G54D15*
X166028Y-98315D02*
X164472Y-97382D01*
X164006Y-95515D01*
X164472Y-93648D01*
X166028Y-92715D01*
X171006Y-92715D01*
G54D15*
X267161Y-173480D02*
X267161Y-166013D01*
G54D15*
X264828Y-162591D02*
X260161Y-157924D01*
X272606Y-157924D01*
G54D15*
X262494Y-147035D02*
X270272Y-147035D01*
X271828Y-147969D01*
X272606Y-149835D01*
X272606Y-151702D01*
X271828Y-153569D01*
X270272Y-154502D01*
X262494Y-154502D01*
X260939Y-153569D01*
X260161Y-151702D01*
X260161Y-149835D01*
X260939Y-147969D01*
X262494Y-147035D01*
G54D15*
X262494Y-136146D02*
X270272Y-136146D01*
X271828Y-137080D01*
X272606Y-138946D01*
X272606Y-140813D01*
X271828Y-142680D01*
X270272Y-143613D01*
X262494Y-143613D01*
X260939Y-142680D01*
X260161Y-140813D01*
X260161Y-138946D01*
X260939Y-137080D01*
X262494Y-136146D01*
G54D15*
X272606Y-129115D02*
X260161Y-129115D01*
X260161Y-124448D01*
X260939Y-122582D01*
X262494Y-121648D01*
X264050Y-121648D01*
X265606Y-122582D01*
X266383Y-124448D01*
X266383Y-129115D01*
G54D15*
X266383Y-118226D02*
X265606Y-116359D01*
X265606Y-114119D01*
X267161Y-112626D01*
X272606Y-112626D01*
G54D15*
X270272Y-112626D02*
X268717Y-113559D01*
X268406Y-115426D01*
X268717Y-117293D01*
X270272Y-118226D01*
X271828Y-117853D01*
X272606Y-116359D01*
X272606Y-115426D01*
X272606Y-115053D01*
X271828Y-113559D01*
X270272Y-112626D01*
G54D15*
X272606Y-109204D02*
X260161Y-101737D01*
G54D15*
X272606Y-98315D02*
X260161Y-98315D01*
G54D15*
X267628Y-98315D02*
X266072Y-97382D01*
X265606Y-95515D01*
X266072Y-93648D01*
X267628Y-92715D01*
X272606Y-92715D01*
G54D15*
X365586Y-172325D02*
X365586Y-164858D01*
G54D15*
X358586Y-153969D02*
X358586Y-161436D01*
X364030Y-161436D01*
X364030Y-160503D01*
X363253Y-158636D01*
X363253Y-156769D01*
X364030Y-154903D01*
X365586Y-153969D01*
X368697Y-153969D01*
X370253Y-154903D01*
X371030Y-156769D01*
X371030Y-158636D01*
X370253Y-160503D01*
X368697Y-161436D01*
G54D15*
X360919Y-143080D02*
X368697Y-143080D01*
X370253Y-144014D01*
X371030Y-145880D01*
X371030Y-147747D01*
X370253Y-149614D01*
X368697Y-150547D01*
X360919Y-150547D01*
X359364Y-149614D01*
X358586Y-147747D01*
X358586Y-145880D01*
X359364Y-144014D01*
X360919Y-143080D01*
G54D15*
X371030Y-136049D02*
X358586Y-136049D01*
X358586Y-131382D01*
X359364Y-129516D01*
X360919Y-128582D01*
X362475Y-128582D01*
X364030Y-129516D01*
X364808Y-131382D01*
X364808Y-136049D01*
G54D15*
X364808Y-125160D02*
X364030Y-123293D01*
X364030Y-121053D01*
X365586Y-119560D01*
X371030Y-119560D01*
G54D15*
X368697Y-119560D02*
X367142Y-120493D01*
X366830Y-122360D01*
X367142Y-124227D01*
X368697Y-125160D01*
X370253Y-124787D01*
X371030Y-123293D01*
X371030Y-122360D01*
X371030Y-121987D01*
X370253Y-120493D01*
X368697Y-119560D01*
G54D15*
X371030Y-116138D02*
X358586Y-108671D01*
G54D15*
X371030Y-105249D02*
X358586Y-105249D01*
G54D15*
X366053Y-105249D02*
X364497Y-104316D01*
X364030Y-102449D01*
X364497Y-100582D01*
X366053Y-99649D01*
X371030Y-99649D01*
G54D15*
X568786Y-172325D02*
X568786Y-164858D01*
G54D15*
X565675Y-168592D02*
X571897Y-168592D01*
G54D15*
X561786Y-153969D02*
X561786Y-161436D01*
X567230Y-161436D01*
X567230Y-160503D01*
X566453Y-158636D01*
X566453Y-156769D01*
X567230Y-154903D01*
X568786Y-153969D01*
X571897Y-153969D01*
X573453Y-154903D01*
X574230Y-156769D01*
X574230Y-158636D01*
X573453Y-160503D01*
X571897Y-161436D01*
G54D15*
X564119Y-143080D02*
X571897Y-143080D01*
X573453Y-144014D01*
X574230Y-145880D01*
X574230Y-147747D01*
X573453Y-149614D01*
X571897Y-150547D01*
X564119Y-150547D01*
X562564Y-149614D01*
X561786Y-147747D01*
X561786Y-145880D01*
X562564Y-144014D01*
X564119Y-143080D01*
G54D15*
X574230Y-136049D02*
X561786Y-136049D01*
X561786Y-131382D01*
X562564Y-129516D01*
X564119Y-128582D01*
X565675Y-128582D01*
X567230Y-129516D01*
X568008Y-131382D01*
X568008Y-136049D01*
G54D15*
X568008Y-125160D02*
X567230Y-123293D01*
X567230Y-121053D01*
X568786Y-119560D01*
X574230Y-119560D01*
G54D15*
X571897Y-119560D02*
X570342Y-120493D01*
X570030Y-122360D01*
X570342Y-124227D01*
X571897Y-125160D01*
X573453Y-124787D01*
X574230Y-123293D01*
X574230Y-122360D01*
X574230Y-121987D01*
X573453Y-120493D01*
X571897Y-119560D01*
G54D15*
X574230Y-116138D02*
X561786Y-108671D01*
G54D15*
X574230Y-105249D02*
X561786Y-105249D01*
G54D15*
X569253Y-105249D02*
X567697Y-104316D01*
X567230Y-102449D01*
X567697Y-100582D01*
X569253Y-99649D01*
X574230Y-99649D01*
G54D15*
X667211Y-176656D02*
X667211Y-169189D01*
G54D15*
X664100Y-172923D02*
X670322Y-172923D01*
G54D15*
X664878Y-165767D02*
X660211Y-161100D01*
X672656Y-161100D01*
G54D15*
X662544Y-150211D02*
X670322Y-150211D01*
X671878Y-151145D01*
X672656Y-153011D01*
X672656Y-154878D01*
X671878Y-156745D01*
X670322Y-157678D01*
X662544Y-157678D01*
X660989Y-156745D01*
X660211Y-154878D01*
X660211Y-153011D01*
X660989Y-151145D01*
X662544Y-150211D01*
G54D15*
X662544Y-139322D02*
X670322Y-139322D01*
X671878Y-140256D01*
X672656Y-142122D01*
X672656Y-143989D01*
X671878Y-145856D01*
X670322Y-146789D01*
X662544Y-146789D01*
X660989Y-145856D01*
X660211Y-143989D01*
X660211Y-142122D01*
X660989Y-140256D01*
X662544Y-139322D01*
G54D15*
X672656Y-132291D02*
X660211Y-132291D01*
X660211Y-127624D01*
X660989Y-125758D01*
X662544Y-124824D01*
X664100Y-124824D01*
X665656Y-125758D01*
X666433Y-127624D01*
X666433Y-132291D01*
G54D15*
X666433Y-121402D02*
X665656Y-119535D01*
X665656Y-117295D01*
X667211Y-115802D01*
X672656Y-115802D01*
G54D15*
X670322Y-115802D02*
X668767Y-116735D01*
X668456Y-118602D01*
X668767Y-120469D01*
X670322Y-121402D01*
X671878Y-121029D01*
X672656Y-119535D01*
X672656Y-118602D01*
X672656Y-118229D01*
X671878Y-116735D01*
X670322Y-115802D01*
G54D15*
X672656Y-112380D02*
X660211Y-104913D01*
G54D15*
X672656Y-101491D02*
X660211Y-101491D01*
G54D15*
X667678Y-101491D02*
X666122Y-100558D01*
X665656Y-98691D01*
X666122Y-96824D01*
X667678Y-95891D01*
X672656Y-95891D01*
G54D15*
X768811Y-176656D02*
X768811Y-169189D01*
G54D15*
X765700Y-172923D02*
X771922Y-172923D01*
G54D15*
X766478Y-165767D02*
X761811Y-161100D01*
X774256Y-161100D01*
G54D15*
X761811Y-150211D02*
X761811Y-157678D01*
X767256Y-157678D01*
X767256Y-156745D01*
X766478Y-154878D01*
X766478Y-153011D01*
X767256Y-151145D01*
X768811Y-150211D01*
X771922Y-150211D01*
X773478Y-151145D01*
X774256Y-153011D01*
X774256Y-154878D01*
X773478Y-156745D01*
X771922Y-157678D01*
G54D15*
X764144Y-139322D02*
X771922Y-139322D01*
X773478Y-140256D01*
X774256Y-142122D01*
X774256Y-143989D01*
X773478Y-145856D01*
X771922Y-146789D01*
X764144Y-146789D01*
X762589Y-145856D01*
X761811Y-143989D01*
X761811Y-142122D01*
X762589Y-140256D01*
X764144Y-139322D01*
G54D15*
X774256Y-132291D02*
X761811Y-132291D01*
X761811Y-127624D01*
X762589Y-125758D01*
X764144Y-124824D01*
X765700Y-124824D01*
X767256Y-125758D01*
X768033Y-127624D01*
X768033Y-132291D01*
G54D15*
X768033Y-121402D02*
X767256Y-119535D01*
X767256Y-117295D01*
X768811Y-115802D01*
X774256Y-115802D01*
G54D15*
X771922Y-115802D02*
X770367Y-116735D01*
X770056Y-118602D01*
X770367Y-120469D01*
X771922Y-121402D01*
X773478Y-121029D01*
X774256Y-119535D01*
X774256Y-118602D01*
X774256Y-118229D01*
X773478Y-116735D01*
X771922Y-115802D01*
G54D15*
X774256Y-112380D02*
X761811Y-104913D01*
G54D15*
X774256Y-101491D02*
X761811Y-101491D01*
G54D15*
X769278Y-101491D02*
X767722Y-100558D01*
X767256Y-98691D01*
X767722Y-96824D01*
X769278Y-95891D01*
X774256Y-95891D01*
G54D15*
X867236Y-177056D02*
X867236Y-169589D01*
G54D15*
X864125Y-173323D02*
X870347Y-173323D01*
G54D15*
X872680Y-158700D02*
X872680Y-166167D01*
X871903Y-166167D01*
X870347Y-165234D01*
X865680Y-159634D01*
X864125Y-158700D01*
X862569Y-158700D01*
X861014Y-159634D01*
X860236Y-161500D01*
X860236Y-163367D01*
X861014Y-165234D01*
X862569Y-166167D01*
G54D15*
X862569Y-147811D02*
X870347Y-147811D01*
X871903Y-148745D01*
X872680Y-150611D01*
X872680Y-152478D01*
X871903Y-154345D01*
X870347Y-155278D01*
X862569Y-155278D01*
X861014Y-154345D01*
X860236Y-152478D01*
X860236Y-150611D01*
X861014Y-148745D01*
X862569Y-147811D01*
G54D15*
X862569Y-136922D02*
X870347Y-136922D01*
X871903Y-137856D01*
X872680Y-139722D01*
X872680Y-141589D01*
X871903Y-143456D01*
X870347Y-144389D01*
X862569Y-144389D01*
X861014Y-143456D01*
X860236Y-141589D01*
X860236Y-139722D01*
X861014Y-137856D01*
X862569Y-136922D01*
G54D15*
X872680Y-129891D02*
X860236Y-129891D01*
X860236Y-125224D01*
X861014Y-123358D01*
X862569Y-122424D01*
X864125Y-122424D01*
X865680Y-123358D01*
X866458Y-125224D01*
X866458Y-129891D01*
G54D15*
X866458Y-119002D02*
X865680Y-117135D01*
X865680Y-114895D01*
X867236Y-113402D01*
X872680Y-113402D01*
G54D15*
X870347Y-113402D02*
X868792Y-114335D01*
X868480Y-116202D01*
X868792Y-118069D01*
X870347Y-119002D01*
X871903Y-118629D01*
X872680Y-117135D01*
X872680Y-116202D01*
X872680Y-115829D01*
X871903Y-114335D01*
X870347Y-113402D01*
G54D15*
X872680Y-109980D02*
X860236Y-102513D01*
G54D15*
X872680Y-99091D02*
X860236Y-99091D01*
G54D15*
X867703Y-99091D02*
X866147Y-98158D01*
X865680Y-96291D01*
X866147Y-94424D01*
X867703Y-93491D01*
X872680Y-93491D01*
G54D12*
X397935Y-355853D02*
X391535Y-355853D01*
X385235Y-362153D01*
X385235Y-374953D01*
X391535Y-381253D01*
X404335Y-381253D01*
X410635Y-374953D01*
X410635Y-362153D01*
X404335Y-355853D01*
X397935Y-355853D01*
G54D12*
X423335Y-355853D02*
X416935Y-355853D01*
X410635Y-362153D01*
X410635Y-374953D01*
X416935Y-381253D01*
X429735Y-381253D01*
X436035Y-374953D01*
X436035Y-362153D01*
X429735Y-355853D01*
X423335Y-355853D01*
G54D12*
X448735Y-355853D02*
X442335Y-355853D01*
X436035Y-362153D01*
X436035Y-374953D01*
X442335Y-381253D01*
X455135Y-381253D01*
X461435Y-374953D01*
X461435Y-362153D01*
X455135Y-355853D01*
X448735Y-355853D01*
G54D12*
X746952Y-355600D02*
X740552Y-355600D01*
X734252Y-361900D01*
X734252Y-374700D01*
X740552Y-381000D01*
X753352Y-381000D01*
X759652Y-374700D01*
X759652Y-361900D01*
X753352Y-355600D01*
X746952Y-355600D01*
G54D12*
X772352Y-355600D02*
X765952Y-355600D01*
X759652Y-361900D01*
X759652Y-374700D01*
X765952Y-381000D01*
X778752Y-381000D01*
X785052Y-374700D01*
X785052Y-361900D01*
X778752Y-355600D01*
X772352Y-355600D01*
G54D12*
X797752Y-355600D02*
X791352Y-355600D01*
X785052Y-361900D01*
X785052Y-374700D01*
X791352Y-381000D01*
X804152Y-381000D01*
X810452Y-374700D01*
X810452Y-361900D01*
X804152Y-355600D01*
X797752Y-355600D01*
G54D12*
X197802Y-355600D02*
X191402Y-355600D01*
X185102Y-361900D01*
X185102Y-374700D01*
X191402Y-381000D01*
X204202Y-381000D01*
X210502Y-374700D01*
X210502Y-361900D01*
X204202Y-355600D01*
X197802Y-355600D01*
G54D12*
X223202Y-355600D02*
X216802Y-355600D01*
X210502Y-361900D01*
X210502Y-374700D01*
X216802Y-381000D01*
X229602Y-381000D01*
X235902Y-374700D01*
X235902Y-361900D01*
X229602Y-355600D01*
X223202Y-355600D01*
G54D12*
X248602Y-355600D02*
X242202Y-355600D01*
X235902Y-361900D01*
X235902Y-374700D01*
X242202Y-381000D01*
X255002Y-381000D01*
X261302Y-374700D01*
X261302Y-361900D01*
X255002Y-355600D01*
X248602Y-355600D01*
G54D12*
X886978Y-284375D02*
X886978Y-290775D01*
X893278Y-297075D01*
X906078Y-297075D01*
X912378Y-290775D01*
X912378Y-277975D01*
X906078Y-271675D01*
X893278Y-271675D01*
X886978Y-277975D01*
X886978Y-284375D01*
G54D12*
X886978Y-258975D02*
X886978Y-265375D01*
X893278Y-271675D01*
X906078Y-271675D01*
X912378Y-265375D01*
X912378Y-252575D01*
X906078Y-246275D01*
X893278Y-246275D01*
X886978Y-252575D01*
X886978Y-258975D01*
G54D12*
X886978Y-233575D02*
X886978Y-239975D01*
X893278Y-246275D01*
X906078Y-246275D01*
X912378Y-239975D01*
X912378Y-227175D01*
X906078Y-220875D01*
X893278Y-220875D01*
X886978Y-227175D01*
X886978Y-233575D01*
G54D12*
X886978Y-208175D02*
X886978Y-214575D01*
X893278Y-220875D01*
X906078Y-220875D01*
X912378Y-214575D01*
X912378Y-201775D01*
X906078Y-195475D01*
X893278Y-195475D01*
X886978Y-201775D01*
X886978Y-208175D01*
G54D12*
X83178Y-284775D02*
X83178Y-291175D01*
X89478Y-297475D01*
X102278Y-297475D01*
X108578Y-291175D01*
X108578Y-278375D01*
X102278Y-272075D01*
X89478Y-272075D01*
X83178Y-278375D01*
X83178Y-284775D01*
G54D12*
X83178Y-259375D02*
X83178Y-265775D01*
X89478Y-272075D01*
X102278Y-272075D01*
X108578Y-265775D01*
X108578Y-252975D01*
X102278Y-246675D01*
X89478Y-246675D01*
X83178Y-252975D01*
X83178Y-259375D01*
G54D12*
X83178Y-233975D02*
X83178Y-240375D01*
X89478Y-246675D01*
X102278Y-246675D01*
X108578Y-240375D01*
X108578Y-227575D01*
X102278Y-221275D01*
X89478Y-221275D01*
X83178Y-227575D01*
X83178Y-233975D01*
G54D12*
X83178Y-208575D02*
X83178Y-214975D01*
X89478Y-221275D01*
X102278Y-221275D01*
X108578Y-214975D01*
X108578Y-202175D01*
X102278Y-195875D01*
X89478Y-195875D01*
X83178Y-202175D01*
X83178Y-208575D01*
G54D15*
X464853Y-172325D02*
X464853Y-164858D01*
G54D15*
X467964Y-168592D02*
X461742Y-168592D01*
G54D15*
X471075Y-172325D02*
X471075Y-164858D01*
G54D15*
X472630Y-153969D02*
X472630Y-161436D01*
X471853Y-161436D01*
X470297Y-160503D01*
X465630Y-154903D01*
X464075Y-153969D01*
X462519Y-153969D01*
X460964Y-154903D01*
X460186Y-156769D01*
X460186Y-158636D01*
X460964Y-160503D01*
X462519Y-161436D01*
G54D15*
X460186Y-143080D02*
X460186Y-150547D01*
X465630Y-150547D01*
X465630Y-149614D01*
X464853Y-147747D01*
X464853Y-145880D01*
X465630Y-144014D01*
X467186Y-143080D01*
X470297Y-143080D01*
X471853Y-144014D01*
X472630Y-145880D01*
X472630Y-147747D01*
X471853Y-149614D01*
X470297Y-150547D01*
G54D15*
X472630Y-136049D02*
X460186Y-136049D01*
X460186Y-131382D01*
X460964Y-129516D01*
X462519Y-128582D01*
X464075Y-128582D01*
X465630Y-129516D01*
X466408Y-131382D01*
X466408Y-136049D01*
G54D15*
X466408Y-125160D02*
X465630Y-123293D01*
X465630Y-121053D01*
X467186Y-119560D01*
X472630Y-119560D01*
G54D15*
X470297Y-119560D02*
X468742Y-120493D01*
X468430Y-122360D01*
X468742Y-124227D01*
X470297Y-125160D01*
X471853Y-124787D01*
X472630Y-123293D01*
X472630Y-122360D01*
X472630Y-121987D01*
X471853Y-120493D01*
X470297Y-119560D01*
G54D15*
X472630Y-116138D02*
X460186Y-108671D01*
G54D15*
X472630Y-105249D02*
X460186Y-105249D01*
G54D15*
X467653Y-105249D02*
X466097Y-104316D01*
X465630Y-102449D01*
X466097Y-100582D01*
X467653Y-99649D01*
X472630Y-99649D01*
G54D15*
X177187Y-285292D02*
X184654Y-285292D01*
G54D15*
X180920Y-282181D02*
X180920Y-288404D01*
G54D15*
X188076Y-282959D02*
X192743Y-278292D01*
X192743Y-290737D01*
G54D15*
X203632Y-280626D02*
X202698Y-279070D01*
X200832Y-278292D01*
X198965Y-278292D01*
X197098Y-279070D01*
X196165Y-280626D01*
X196165Y-284515D01*
X196165Y-285292D01*
X198965Y-283737D01*
X200832Y-283737D01*
X202698Y-284515D01*
X203632Y-286070D01*
X203632Y-288404D01*
X202698Y-289959D01*
X200832Y-290737D01*
X198965Y-290737D01*
X197098Y-289959D01*
X196165Y-288404D01*
X196165Y-284515D01*
G54D15*
X210414Y-278759D02*
X208921Y-278292D01*
X207614Y-278759D01*
X207054Y-280159D01*
X207614Y-281559D01*
X208921Y-282026D01*
X210414Y-281559D01*
X210787Y-280159D01*
X210414Y-278759D01*
G54D15*
X221676Y-288404D02*
X220742Y-289959D01*
X218876Y-290737D01*
X217009Y-290737D01*
X215142Y-289959D01*
X214209Y-288404D01*
X214209Y-280626D01*
X215142Y-279070D01*
X217009Y-278292D01*
X218876Y-278292D01*
X220742Y-279070D01*
X221676Y-280626D01*
G54D15*
X275612Y-285293D02*
X283079Y-285293D01*
G54D15*
X279345Y-282182D02*
X279345Y-288404D01*
G54D15*
X286501Y-282960D02*
X291168Y-278293D01*
X291168Y-290738D01*
G54D15*
X299257Y-284515D02*
X297390Y-284515D01*
X295523Y-283738D01*
X294590Y-282182D01*
X294590Y-280626D01*
X295523Y-279071D01*
X297390Y-278293D01*
X299257Y-278293D01*
X301123Y-279071D01*
X302057Y-280626D01*
X302057Y-282182D01*
X301123Y-283738D01*
X299257Y-284515D01*
X301123Y-285293D01*
X302057Y-286849D01*
X302057Y-288404D01*
X301123Y-289960D01*
X299257Y-290738D01*
X297390Y-290738D01*
X295523Y-289960D01*
X294590Y-288404D01*
X294590Y-286849D01*
X295523Y-285293D01*
X297390Y-284515D01*
G54D15*
X308839Y-278760D02*
X307346Y-278293D01*
X306039Y-278760D01*
X305479Y-280160D01*
X306039Y-281560D01*
X307346Y-282026D01*
X308839Y-281560D01*
X309212Y-280160D01*
X308839Y-278760D01*
G54D15*
X320101Y-288404D02*
X319167Y-289960D01*
X317301Y-290738D01*
X315434Y-290738D01*
X313567Y-289960D01*
X312634Y-288404D01*
X312634Y-280626D01*
X313567Y-279071D01*
X315434Y-278293D01*
X317301Y-278293D01*
X319167Y-279071D01*
X320101Y-280626D01*
G54D15*
X375812Y-284293D02*
X383279Y-284293D01*
G54D15*
X379545Y-281182D02*
X379545Y-287404D01*
G54D15*
X394168Y-289738D02*
X386701Y-289738D01*
X386701Y-288960D01*
X387634Y-287404D01*
X393234Y-282738D01*
X394168Y-281182D01*
X394168Y-279626D01*
X393234Y-278071D01*
X391368Y-277293D01*
X389501Y-277293D01*
X387634Y-278071D01*
X386701Y-279626D01*
G54D15*
X405057Y-279626D02*
X405057Y-287404D01*
X404123Y-288960D01*
X402257Y-289738D01*
X400390Y-289738D01*
X398523Y-288960D01*
X397590Y-287404D01*
X397590Y-279626D01*
X398523Y-278071D01*
X400390Y-277293D01*
X402257Y-277293D01*
X404123Y-278071D01*
X405057Y-279626D01*
G54D15*
X411839Y-277760D02*
X410346Y-277293D01*
X409039Y-277760D01*
X408479Y-279160D01*
X409039Y-280560D01*
X410346Y-281026D01*
X411839Y-280560D01*
X412212Y-279160D01*
X411839Y-277760D01*
G54D15*
X423101Y-287404D02*
X422167Y-288960D01*
X420301Y-289738D01*
X418434Y-289738D01*
X416567Y-288960D01*
X415634Y-287404D01*
X415634Y-279626D01*
X416567Y-278071D01*
X418434Y-277293D01*
X420301Y-277293D01*
X422167Y-278071D01*
X423101Y-279626D01*
G54D13*
X437561Y-348305D02*
X432659Y-353207D01*
X432148Y-352697D01*
X431739Y-351062D01*
X432352Y-344321D01*
X431944Y-342687D01*
X430922Y-341666D01*
X429288Y-341257D01*
X427552Y-341972D01*
X426326Y-343198D01*
X425611Y-344934D01*
X426020Y-346568D01*
G54D13*
X444711Y-341155D02*
X439808Y-346058D01*
X439298Y-345547D01*
X438889Y-343913D01*
X439502Y-337172D01*
X439093Y-335538D01*
X438072Y-334516D01*
X436438Y-334108D01*
X434701Y-334823D01*
X433476Y-336048D01*
X432761Y-337785D01*
X433169Y-339419D01*
G54D13*
X441299Y-328837D02*
X440012Y-329512D01*
X439461Y-330676D01*
X440012Y-331963D01*
X441299Y-332514D01*
X442464Y-331963D01*
X443138Y-330676D01*
X442464Y-329512D01*
X441299Y-328837D01*
G54D13*
X455027Y-327775D02*
X455436Y-329409D01*
X454721Y-331145D01*
X453495Y-332371D01*
X451759Y-333086D01*
X450124Y-332677D01*
X445018Y-327570D01*
X444609Y-325936D01*
X445324Y-324200D01*
X446550Y-322974D01*
X448286Y-322259D01*
X449920Y-322668D01*
G54D15*
X575837Y-284293D02*
X583304Y-284293D01*
G54D15*
X579570Y-281182D02*
X579570Y-287404D01*
G54D15*
X594193Y-289738D02*
X586726Y-289738D01*
X586726Y-288960D01*
X587659Y-287404D01*
X593259Y-282738D01*
X594193Y-281182D01*
X594193Y-279626D01*
X593259Y-278071D01*
X591393Y-277293D01*
X589526Y-277293D01*
X587659Y-278071D01*
X586726Y-279626D01*
G54D15*
X603215Y-289738D02*
X603215Y-277293D01*
X597615Y-285071D01*
X597615Y-286626D01*
X605082Y-286626D01*
G54D15*
X611864Y-277760D02*
X610371Y-277293D01*
X609064Y-277760D01*
X608504Y-279160D01*
X609064Y-280560D01*
X610371Y-281026D01*
X611864Y-280560D01*
X612237Y-279160D01*
X611864Y-277760D01*
G54D15*
X623126Y-287404D02*
X622192Y-288960D01*
X620326Y-289738D01*
X618459Y-289738D01*
X616592Y-288960D01*
X615659Y-287404D01*
X615659Y-279626D01*
X616592Y-278071D01*
X618459Y-277293D01*
X620326Y-277293D01*
X622192Y-278071D01*
X623126Y-279626D01*
G54D15*
X674261Y-284293D02*
X681728Y-284293D01*
G54D15*
X677994Y-281182D02*
X677994Y-287404D01*
G54D15*
X692617Y-289738D02*
X685150Y-289738D01*
X685150Y-288960D01*
X686083Y-287404D01*
X691683Y-282738D01*
X692617Y-281182D01*
X692617Y-279627D01*
X691683Y-278071D01*
X689817Y-277293D01*
X687950Y-277293D01*
X686083Y-278071D01*
X685150Y-279627D01*
G54D15*
X703506Y-279627D02*
X702572Y-278071D01*
X700706Y-277293D01*
X698839Y-277293D01*
X696972Y-278071D01*
X696039Y-279627D01*
X696039Y-283516D01*
X696039Y-284293D01*
X698839Y-282738D01*
X700706Y-282738D01*
X702572Y-283516D01*
X703506Y-285071D01*
X703506Y-287404D01*
X702572Y-288960D01*
X700706Y-289738D01*
X698839Y-289738D01*
X696972Y-288960D01*
X696039Y-287404D01*
X696039Y-283516D01*
G54D15*
X710288Y-277760D02*
X708795Y-277293D01*
X707488Y-277760D01*
X706928Y-279160D01*
X707488Y-280560D01*
X708795Y-281027D01*
X710288Y-280560D01*
X710661Y-279160D01*
X710288Y-277760D01*
G54D15*
X721550Y-287404D02*
X720616Y-288960D01*
X718750Y-289738D01*
X716883Y-289738D01*
X715016Y-288960D01*
X714083Y-287404D01*
X714083Y-279627D01*
X715016Y-278071D01*
X716883Y-277293D01*
X718750Y-277293D01*
X720616Y-278071D01*
X721550Y-279627D01*
G54D15*
X775862Y-284293D02*
X783329Y-284293D01*
G54D15*
X779595Y-281182D02*
X779595Y-287404D01*
G54D15*
X794218Y-289738D02*
X786751Y-289738D01*
X786751Y-288960D01*
X787684Y-287404D01*
X793284Y-282738D01*
X794218Y-281182D01*
X794218Y-279626D01*
X793284Y-278071D01*
X791418Y-277293D01*
X789551Y-277293D01*
X787684Y-278071D01*
X786751Y-279626D01*
G54D15*
X802307Y-283515D02*
X800440Y-283515D01*
X798573Y-282738D01*
X797640Y-281182D01*
X797640Y-279626D01*
X798573Y-278071D01*
X800440Y-277293D01*
X802307Y-277293D01*
X804173Y-278071D01*
X805107Y-279626D01*
X805107Y-281182D01*
X804173Y-282738D01*
X802307Y-283515D01*
X804173Y-284293D01*
X805107Y-285849D01*
X805107Y-287404D01*
X804173Y-288960D01*
X802307Y-289738D01*
X800440Y-289738D01*
X798573Y-288960D01*
X797640Y-287404D01*
X797640Y-285849D01*
X798573Y-284293D01*
X800440Y-283515D01*
G54D15*
X811889Y-277760D02*
X810396Y-277293D01*
X809089Y-277760D01*
X808529Y-279160D01*
X809089Y-280560D01*
X810396Y-281026D01*
X811889Y-280560D01*
X812262Y-279160D01*
X811889Y-277760D01*
G54D15*
X823151Y-287404D02*
X822217Y-288960D01*
X820351Y-289738D01*
X818484Y-289738D01*
X816617Y-288960D01*
X815684Y-287404D01*
X815684Y-279626D01*
X816617Y-278071D01*
X818484Y-277293D01*
X820351Y-277293D01*
X822217Y-278071D01*
X823151Y-279626D01*
G54D13*
X563295Y-345474D02*
X566762Y-345474D01*
X566762Y-349085D01*
X565895Y-350529D01*
X564162Y-351252D01*
X562428Y-351252D01*
X560695Y-350529D01*
X559828Y-349085D01*
X559828Y-341863D01*
X560695Y-340418D01*
X562428Y-339696D01*
X564162Y-339696D01*
X565895Y-340418D01*
X566762Y-341863D01*
G54D13*
X569940Y-351252D02*
X569940Y-339696D01*
X576873Y-351252D01*
X576873Y-339696D01*
G54D13*
X580050Y-351252D02*
X580050Y-339696D01*
X584384Y-339696D01*
X586117Y-340418D01*
X586984Y-341863D01*
X586984Y-349085D01*
X586117Y-350529D01*
X584384Y-351252D01*
X580050Y-351252D01*
G54D13*
X113794Y-207756D02*
X120727Y-207756D01*
G54D13*
X130838Y-212812D02*
X123905Y-212812D01*
X123905Y-212090D01*
X124771Y-210645D01*
X129971Y-206312D01*
X130838Y-204868D01*
X130838Y-203423D01*
X129971Y-201979D01*
X128238Y-201256D01*
X126505Y-201256D01*
X124771Y-201979D01*
X123905Y-203423D01*
G54D13*
X140949Y-203423D02*
X140949Y-210645D01*
X140082Y-212090D01*
X138349Y-212812D01*
X136616Y-212812D01*
X134882Y-212090D01*
X134016Y-210645D01*
X134016Y-203423D01*
X134882Y-201979D01*
X136616Y-201256D01*
X138349Y-201256D01*
X140082Y-201979D01*
X140949Y-203423D01*
G54D13*
X151060Y-203423D02*
X151060Y-210645D01*
X150193Y-212090D01*
X148460Y-212812D01*
X146727Y-212812D01*
X144993Y-212090D01*
X144127Y-210645D01*
X144127Y-203423D01*
X144993Y-201979D01*
X146727Y-201256D01*
X148460Y-201256D01*
X150193Y-201979D01*
X151060Y-203423D01*
G54D13*
X157589Y-212812D02*
X157589Y-201256D01*
X161922Y-201256D01*
X163655Y-201979D01*
X164522Y-203423D01*
X164522Y-204868D01*
X163655Y-206312D01*
X161922Y-207034D01*
X157589Y-207034D01*
G54D13*
X167700Y-207034D02*
X169433Y-206312D01*
X171513Y-206312D01*
X172900Y-207756D01*
X172900Y-212812D01*
G54D13*
X172900Y-210645D02*
X172033Y-209201D01*
X170300Y-208912D01*
X168566Y-209201D01*
X167700Y-210645D01*
X168046Y-212090D01*
X169433Y-212812D01*
X170300Y-212812D01*
X170646Y-212812D01*
X172033Y-212090D01*
X172900Y-210645D01*
G54D13*
X176078Y-212812D02*
X183011Y-201256D01*
G54D13*
X186189Y-212812D02*
X186189Y-201256D01*
G54D13*
X186189Y-208190D02*
X187055Y-206745D01*
X188789Y-206312D01*
X190522Y-206745D01*
X191389Y-208190D01*
X191389Y-212812D01*
G54D13*
X114495Y-232426D02*
X121429Y-232426D01*
G54D13*
X124606Y-230259D02*
X128940Y-225926D01*
X128940Y-237482D01*
G54D13*
X139051Y-225926D02*
X132117Y-225926D01*
X132117Y-230982D01*
X132984Y-230982D01*
X134717Y-230259D01*
X136451Y-230259D01*
X138184Y-230982D01*
X139051Y-232426D01*
X139051Y-235315D01*
X138184Y-236759D01*
X136451Y-237482D01*
X134717Y-237482D01*
X132984Y-236759D01*
X132117Y-235315D01*
G54D13*
X149162Y-228093D02*
X149162Y-235315D01*
X148295Y-236759D01*
X146562Y-237482D01*
X144828Y-237482D01*
X143095Y-236759D01*
X142228Y-235315D01*
X142228Y-228093D01*
X143095Y-226648D01*
X144828Y-225926D01*
X146562Y-225926D01*
X148295Y-226648D01*
X149162Y-228093D01*
G54D13*
X155690Y-237482D02*
X155690Y-225926D01*
X160024Y-225926D01*
X161757Y-226648D01*
X162624Y-228093D01*
X162624Y-229537D01*
X161757Y-230982D01*
X160024Y-231704D01*
X155690Y-231704D01*
G54D13*
X165801Y-231704D02*
X167535Y-230982D01*
X169615Y-230982D01*
X171001Y-232426D01*
X171001Y-237482D01*
G54D13*
X171001Y-235315D02*
X170135Y-233870D01*
X168401Y-233582D01*
X166668Y-233870D01*
X165801Y-235315D01*
X166148Y-236759D01*
X167535Y-237482D01*
X168401Y-237482D01*
X168748Y-237482D01*
X170135Y-236759D01*
X171001Y-235315D01*
G54D13*
X174179Y-237482D02*
X181113Y-225926D01*
G54D13*
X184290Y-237482D02*
X184290Y-225926D01*
G54D13*
X184290Y-232859D02*
X185157Y-231415D01*
X186890Y-230982D01*
X188624Y-231415D01*
X189490Y-232859D01*
X189490Y-237482D01*
G54D13*
X114495Y-257826D02*
X121429Y-257826D01*
G54D13*
X124606Y-255659D02*
X128940Y-251326D01*
X128940Y-262882D01*
G54D13*
X139051Y-253493D02*
X139051Y-260715D01*
X138184Y-262159D01*
X136451Y-262882D01*
X134717Y-262882D01*
X132984Y-262159D01*
X132117Y-260715D01*
X132117Y-253493D01*
X132984Y-252048D01*
X134717Y-251326D01*
X136451Y-251326D01*
X138184Y-252048D01*
X139051Y-253493D01*
G54D13*
X149162Y-253493D02*
X149162Y-260715D01*
X148295Y-262159D01*
X146562Y-262882D01*
X144828Y-262882D01*
X143095Y-262159D01*
X142228Y-260715D01*
X142228Y-253493D01*
X143095Y-252048D01*
X144828Y-251326D01*
X146562Y-251326D01*
X148295Y-252048D01*
X149162Y-253493D01*
G54D13*
X155690Y-262882D02*
X155690Y-251326D01*
X160024Y-251326D01*
X161757Y-252048D01*
X162624Y-253493D01*
X162624Y-254937D01*
X161757Y-256382D01*
X160024Y-257104D01*
X155690Y-257104D01*
G54D13*
X165801Y-257104D02*
X167535Y-256382D01*
X169615Y-256382D01*
X171001Y-257826D01*
X171001Y-262882D01*
G54D13*
X171001Y-260715D02*
X170135Y-259270D01*
X168401Y-258982D01*
X166668Y-259270D01*
X165801Y-260715D01*
X166148Y-262159D01*
X167535Y-262882D01*
X168401Y-262882D01*
X168748Y-262882D01*
X170135Y-262159D01*
X171001Y-260715D01*
G54D13*
X174179Y-262882D02*
X181113Y-251326D01*
G54D13*
X184290Y-262882D02*
X184290Y-251326D01*
G54D13*
X184290Y-258259D02*
X185157Y-256815D01*
X186890Y-256382D01*
X188624Y-256815D01*
X189490Y-258259D01*
X189490Y-262882D01*
G54D13*
X115362Y-284814D02*
X119985Y-284814D01*
G54D13*
X127785Y-278314D02*
X123162Y-278314D01*
X123162Y-283369D01*
X123740Y-283369D01*
X124896Y-282647D01*
X126051Y-282647D01*
X127207Y-283369D01*
X127785Y-284814D01*
X127785Y-287702D01*
X127207Y-289147D01*
X126051Y-289869D01*
X124896Y-289869D01*
X123740Y-289147D01*
X123162Y-287702D01*
G54D13*
X135585Y-280480D02*
X135585Y-287702D01*
X135007Y-289147D01*
X133851Y-289869D01*
X132696Y-289869D01*
X131540Y-289147D01*
X130962Y-287702D01*
X130962Y-280480D01*
X131540Y-279036D01*
X132696Y-278314D01*
X133851Y-278314D01*
X135007Y-279036D01*
X135585Y-280480D01*
G54D13*
X142056Y-289869D02*
X142056Y-278314D01*
X144945Y-278314D01*
X146101Y-279036D01*
X146679Y-280480D01*
X146679Y-281925D01*
X146101Y-283369D01*
X144945Y-284091D01*
X142056Y-284091D01*
G54D13*
X149856Y-284091D02*
X151012Y-283369D01*
X152399Y-283369D01*
X153323Y-284814D01*
X153323Y-289869D01*
G54D13*
X153323Y-287702D02*
X152745Y-286258D01*
X151590Y-285969D01*
X150434Y-286258D01*
X149856Y-287702D01*
X150088Y-289147D01*
X151012Y-289869D01*
X151590Y-289869D01*
X151821Y-289869D01*
X152745Y-289147D01*
X153323Y-287702D01*
G54D13*
X156501Y-289869D02*
X161124Y-278314D01*
G54D13*
X164301Y-289869D02*
X164301Y-278314D01*
G54D13*
X164301Y-285247D02*
X164879Y-283802D01*
X166035Y-283369D01*
X167190Y-283802D01*
X167768Y-285247D01*
X167768Y-289869D01*
G54D13*
X888568Y-371079D02*
X888568Y-364146D01*
G54D13*
X885679Y-367612D02*
X891457Y-367613D01*
G54D13*
X882068Y-354035D02*
X882068Y-360968D01*
X887124Y-360968D01*
X887123Y-360102D01*
X886401Y-358368D01*
X886401Y-356635D01*
X887124Y-354902D01*
X888568Y-354035D01*
X891457Y-354035D01*
X892901Y-354901D01*
X893624Y-356635D01*
X893624Y-358368D01*
X892901Y-360102D01*
X891457Y-360968D01*
G54D13*
X884235Y-343924D02*
X891457Y-343924D01*
X892901Y-344791D01*
X893624Y-346524D01*
X893624Y-348257D01*
X892901Y-349991D01*
X891457Y-350857D01*
X884235Y-350857D01*
X882790Y-349990D01*
X882068Y-348257D01*
X882068Y-346524D01*
X882790Y-344790D01*
X884235Y-343924D01*
G54D13*
X893624Y-337395D02*
X882068Y-337395D01*
X882068Y-333062D01*
X882790Y-331329D01*
X884235Y-330462D01*
X885679Y-330462D01*
X887124Y-331328D01*
X887846Y-333062D01*
X887846Y-337395D01*
G54D13*
X887846Y-327284D02*
X887123Y-325551D01*
X887124Y-323471D01*
X888568Y-322084D01*
X893624Y-322084D01*
G54D13*
X891457Y-322084D02*
X890012Y-322951D01*
X889724Y-324684D01*
X890012Y-326418D01*
X891457Y-327284D01*
X892901Y-326937D01*
X893624Y-325551D01*
X893624Y-324684D01*
X893624Y-324338D01*
X892901Y-322951D01*
X891457Y-322084D01*
G54D13*
X893624Y-318906D02*
X882068Y-311973D01*
G54D13*
X893624Y-308795D02*
X882068Y-308795D01*
G54D13*
X889001Y-308795D02*
X887557Y-307928D01*
X887124Y-306195D01*
X887557Y-304462D01*
X889001Y-303595D01*
X893624Y-303595D01*
G54D13*
X765885Y-249168D02*
X770508Y-249168D01*
G54D13*
X768196Y-246279D02*
X768196Y-252057D01*
G54D13*
X773685Y-247002D02*
X776574Y-242668D01*
X776574Y-254224D01*
G54D13*
X784375Y-244835D02*
X784375Y-252057D01*
X783797Y-253502D01*
X782641Y-254224D01*
X781486Y-254224D01*
X780330Y-253502D01*
X779752Y-252057D01*
X779752Y-244835D01*
X780330Y-243390D01*
X781486Y-242668D01*
X782641Y-242668D01*
X783797Y-243390D01*
X784375Y-244835D01*
G54D13*
X792175Y-244835D02*
X792175Y-252057D01*
X791597Y-253502D01*
X790441Y-254224D01*
X789286Y-254224D01*
X788130Y-253502D01*
X787552Y-252057D01*
X787552Y-244835D01*
X788130Y-243390D01*
X789286Y-242668D01*
X790441Y-242668D01*
X791597Y-243390D01*
X792175Y-244835D01*
G54D13*
X798646Y-254224D02*
X798646Y-242668D01*
X801535Y-242668D01*
X802691Y-243390D01*
X803269Y-244835D01*
X803269Y-246279D01*
X802691Y-247724D01*
X801535Y-248446D01*
X798646Y-248446D01*
G54D13*
X806446Y-248446D02*
X807602Y-247724D01*
X808989Y-247724D01*
X809913Y-249168D01*
X809913Y-254224D01*
G54D13*
X809913Y-252057D02*
X809335Y-250613D01*
X808180Y-250324D01*
X807024Y-250613D01*
X806446Y-252057D01*
X806678Y-253502D01*
X807602Y-254224D01*
X808180Y-254224D01*
X808411Y-254224D01*
X809335Y-253502D01*
X809913Y-252057D01*
G54D13*
X813091Y-254224D02*
X817714Y-242668D01*
G54D13*
X820891Y-254224D02*
X820891Y-242668D01*
G54D13*
X820891Y-249602D02*
X821469Y-248157D01*
X822625Y-247724D01*
X823780Y-248157D01*
X824358Y-249602D01*
X824358Y-254224D01*
G54D13*
X411787Y-347609D02*
X406884Y-352512D01*
X406374Y-352001D01*
X405965Y-350367D01*
X406578Y-343626D01*
X406169Y-341992D01*
X405148Y-340970D01*
X403514Y-340562D01*
X401777Y-341277D01*
X400552Y-342502D01*
X399837Y-344239D01*
X400245Y-345873D01*
G54D13*
X410765Y-332289D02*
X405863Y-337191D01*
X409438Y-340766D01*
X410050Y-340153D01*
X410765Y-338417D01*
X411991Y-337191D01*
X413727Y-336476D01*
X415362Y-336885D01*
X417404Y-338928D01*
X417813Y-340562D01*
X417098Y-342298D01*
X415872Y-343524D01*
X414136Y-344239D01*
X412502Y-343830D01*
G54D13*
X423553Y-335843D02*
X415382Y-327672D01*
X418446Y-324608D01*
X420182Y-323893D01*
X421816Y-324302D01*
X422838Y-325323D01*
X423246Y-326957D01*
X422531Y-328694D01*
X419467Y-331758D01*
G54D13*
X426617Y-324608D02*
X427332Y-322872D01*
X428803Y-321401D01*
X430804Y-321442D01*
X434379Y-325017D01*
G54D13*
X432847Y-323485D02*
X431213Y-323076D01*
X429783Y-324097D01*
X428762Y-325527D01*
X429170Y-327162D01*
X430437Y-327938D01*
X431928Y-327468D01*
X432541Y-326855D01*
X432786Y-326610D01*
X433256Y-325119D01*
X432847Y-323485D01*
G54D13*
X436626Y-322770D02*
X433358Y-309696D01*
G54D13*
X443776Y-315620D02*
X435605Y-307449D01*
G54D13*
X440508Y-312352D02*
X440099Y-310717D01*
X441018Y-309185D01*
X442550Y-308266D01*
X444185Y-308674D01*
X447453Y-311943D01*
G54D13*
X199500Y-349001D02*
X199500Y-342873D01*
X207671Y-351044D01*
G54D13*
X208182Y-337255D02*
X206548Y-336847D01*
X204812Y-337562D01*
X203586Y-338787D01*
X202871Y-340524D01*
X203279Y-342158D01*
X205833Y-344711D01*
X206344Y-345222D01*
X207161Y-342362D01*
X208386Y-341137D01*
X210123Y-340422D01*
X211757Y-340830D01*
X213289Y-342362D01*
X213697Y-343996D01*
X212982Y-345733D01*
X211757Y-346958D01*
X210020Y-347673D01*
X208386Y-347265D01*
X205833Y-344711D01*
G54D13*
X211410Y-331577D02*
X210123Y-332251D01*
X209571Y-333415D01*
X210123Y-334702D01*
X211410Y-335254D01*
X212574Y-334702D01*
X213248Y-333415D01*
X212574Y-332251D01*
X211410Y-331577D01*
G54D13*
X225137Y-330514D02*
X225546Y-332148D01*
X224831Y-333884D01*
X223605Y-335110D01*
X221869Y-335825D01*
X220235Y-335417D01*
X215128Y-330310D01*
X214719Y-328675D01*
X215434Y-326939D01*
X216660Y-325714D01*
X218396Y-324998D01*
X220030Y-325407D01*
G54D13*
X224750Y-348789D02*
X224750Y-342661D01*
X232921Y-350832D01*
G54D13*
X234147Y-341435D02*
X232921Y-342661D01*
X231185Y-343376D01*
X229551Y-342967D01*
X228529Y-341946D01*
X228121Y-340312D01*
X228836Y-338575D01*
X230061Y-337350D01*
X231798Y-336635D01*
X233432Y-337043D01*
X234453Y-338065D01*
X234862Y-339699D01*
X234147Y-341435D01*
X235883Y-340720D01*
X237517Y-341129D01*
X238539Y-342150D01*
X238947Y-343784D01*
X238232Y-345521D01*
X237007Y-346746D01*
X235270Y-347461D01*
X233636Y-347053D01*
X232615Y-346031D01*
X232206Y-344397D01*
X232921Y-342661D01*
G54D13*
X236659Y-331365D02*
X235372Y-332039D01*
X234821Y-333203D01*
X235372Y-334490D01*
X236659Y-335042D01*
X237824Y-334490D01*
X238498Y-333203D01*
X237824Y-332039D01*
X236659Y-331365D01*
G54D13*
X250387Y-330302D02*
X250796Y-331936D01*
X250080Y-333672D01*
X248855Y-334898D01*
X247119Y-335613D01*
X245484Y-335205D01*
X240378Y-330098D01*
X239969Y-328463D01*
X240684Y-326727D01*
X241910Y-325502D01*
X243646Y-324786D01*
X245280Y-325195D01*
G54D13*
X261933Y-347444D02*
X257030Y-352346D01*
X256520Y-351836D01*
X256111Y-350201D01*
X256724Y-343460D01*
X256316Y-341826D01*
X255294Y-340805D01*
X253660Y-340396D01*
X251924Y-341111D01*
X250698Y-342337D01*
X249983Y-344073D01*
X250392Y-345707D01*
G54D13*
X262444Y-333655D02*
X267551Y-338762D01*
X267959Y-340396D01*
X267244Y-342132D01*
X266018Y-343358D01*
X264282Y-344073D01*
X262648Y-343665D01*
X257541Y-338558D01*
X257132Y-336924D01*
X257848Y-335187D01*
X259073Y-333962D01*
X260810Y-333246D01*
X262444Y-333655D01*
G54D13*
X265671Y-327976D02*
X264384Y-328650D01*
X263833Y-329815D01*
X264384Y-331102D01*
X265671Y-331653D01*
X266836Y-331102D01*
X267510Y-329815D01*
X266836Y-328650D01*
X265671Y-327976D01*
G54D13*
X279399Y-326914D02*
X279807Y-328548D01*
X279092Y-330284D01*
X277867Y-331510D01*
X276130Y-332225D01*
X274496Y-331816D01*
X269389Y-326709D01*
X268981Y-325075D01*
X269696Y-323339D01*
X270921Y-322113D01*
X272658Y-321398D01*
X274292Y-321807D01*
G54D15*
X474237Y-284293D02*
X481704Y-284293D01*
G54D15*
X477970Y-281182D02*
X477970Y-287404D01*
G54D15*
X492593Y-289738D02*
X485126Y-289738D01*
X485126Y-288960D01*
X486059Y-287404D01*
X491659Y-282738D01*
X492593Y-281182D01*
X492593Y-279626D01*
X491659Y-278071D01*
X489793Y-277293D01*
X487926Y-277293D01*
X486059Y-278071D01*
X485126Y-279626D01*
G54D15*
X503482Y-289738D02*
X496015Y-289738D01*
X496015Y-288960D01*
X496948Y-287404D01*
X502548Y-282738D01*
X503482Y-281182D01*
X503482Y-279626D01*
X502548Y-278071D01*
X500682Y-277293D01*
X498815Y-277293D01*
X496948Y-278071D01*
X496015Y-279626D01*
G54D15*
X510264Y-277760D02*
X508771Y-277293D01*
X507464Y-277760D01*
X506904Y-279160D01*
X507464Y-280560D01*
X508771Y-281026D01*
X510264Y-280560D01*
X510637Y-279160D01*
X510264Y-277760D01*
G54D15*
X521526Y-287404D02*
X520592Y-288960D01*
X518726Y-289738D01*
X516859Y-289738D01*
X514992Y-288960D01*
X514059Y-287404D01*
X514059Y-279626D01*
X514992Y-278071D01*
X516859Y-277293D01*
X518726Y-277293D01*
X520592Y-278071D01*
X521526Y-279626D01*
G54D13*
X756584Y-347605D02*
X751682Y-352508D01*
X751171Y-351997D01*
X750762Y-350363D01*
X751375Y-343622D01*
X750967Y-341988D01*
X749945Y-340966D01*
X748311Y-340558D01*
X746575Y-341273D01*
X745349Y-342498D01*
X744634Y-344235D01*
X745043Y-345869D01*
G54D13*
X762508Y-341681D02*
X754337Y-333510D01*
X755767Y-342294D01*
X756788Y-343316D01*
X761691Y-338413D01*
G54D13*
X760322Y-328138D02*
X759035Y-328812D01*
X758484Y-329976D01*
X759035Y-331263D01*
X760322Y-331815D01*
X761487Y-331263D01*
X762161Y-329976D01*
X761487Y-328812D01*
X760322Y-328138D01*
G54D13*
X774050Y-327075D02*
X774459Y-328710D01*
X773744Y-330446D01*
X772518Y-331672D01*
X770782Y-332386D01*
X769147Y-331978D01*
X764041Y-326871D01*
X763632Y-325237D01*
X764347Y-323500D01*
X765573Y-322275D01*
X767309Y-321560D01*
X768943Y-321968D01*
G54D13*
X781828Y-347573D02*
X776925Y-352475D01*
X776414Y-351965D01*
X776006Y-350330D01*
X776619Y-343589D01*
X776210Y-341955D01*
X775189Y-340934D01*
X773555Y-340525D01*
X771818Y-341240D01*
X770593Y-342466D01*
X769878Y-344202D01*
X770286Y-345836D01*
G54D13*
X782338Y-333784D02*
X780704Y-333376D01*
X778968Y-334091D01*
X777742Y-335316D01*
X777027Y-337053D01*
X777436Y-338687D01*
X779989Y-341240D01*
X780500Y-341751D01*
X781317Y-338891D01*
X782543Y-337665D01*
X784279Y-336950D01*
X785913Y-337359D01*
X787445Y-338891D01*
X787854Y-340525D01*
X787139Y-342262D01*
X785913Y-343487D01*
X784177Y-344202D01*
X782543Y-343794D01*
X779989Y-341240D01*
G54D13*
X807294Y-347580D02*
X802391Y-352482D01*
X801880Y-351972D01*
X801472Y-350337D01*
X802085Y-343596D01*
X801676Y-341962D01*
X800655Y-340941D01*
X799021Y-340532D01*
X797284Y-341247D01*
X796059Y-342473D01*
X795344Y-344209D01*
X795752Y-345843D01*
G54D13*
X808519Y-338183D02*
X807294Y-339409D01*
X805557Y-340124D01*
X803923Y-339715D01*
X802902Y-338694D01*
X802493Y-337060D01*
X803208Y-335323D01*
X804434Y-334098D01*
X806170Y-333383D01*
X807804Y-333791D01*
X808826Y-334813D01*
X809234Y-336447D01*
X808519Y-338183D01*
X810256Y-337468D01*
X811890Y-337877D01*
X812911Y-338898D01*
X813320Y-340532D01*
X812605Y-342269D01*
X811379Y-343494D01*
X809643Y-344209D01*
X808009Y-343801D01*
X806987Y-342779D01*
X806579Y-341145D01*
X807294Y-339409D01*
G54D13*
X459369Y-353475D02*
X451198Y-345304D01*
X454262Y-342240D01*
X455998Y-341525D01*
X457632Y-341933D01*
X458654Y-342955D01*
X459062Y-344589D01*
X458347Y-346325D01*
X455283Y-349389D01*
G54D13*
X458347Y-338154D02*
X466518Y-346325D01*
X464476Y-338154D01*
X472646Y-340197D01*
X464476Y-332026D01*
G54D13*
X473260Y-331413D02*
X476120Y-330596D01*
X477754Y-331004D01*
X479797Y-333047D01*
G54D13*
X474894Y-337950D02*
X466723Y-329778D01*
X469787Y-326714D01*
X471523Y-325999D01*
X473158Y-326408D01*
X474179Y-327429D01*
X474588Y-329064D01*
X473873Y-330800D01*
X470808Y-333864D01*
G54D12*
X572877Y-355853D02*
X566477Y-355853D01*
X560177Y-362153D01*
X560177Y-374953D01*
X566477Y-381253D01*
X579277Y-381253D01*
X585577Y-374953D01*
X585577Y-362153D01*
X579277Y-355853D01*
X572877Y-355853D01*
G54D15*
X482314Y-439314D02*
X482314Y-426870D01*
X486981Y-426870D01*
X488847Y-427647D01*
X489781Y-429203D01*
X489781Y-430758D01*
X488847Y-432314D01*
X486981Y-433092D01*
X482314Y-433092D01*
G54D15*
X493203Y-426870D02*
X493203Y-439314D01*
X497870Y-431536D01*
X502536Y-439314D01*
X502536Y-426870D01*
G54D15*
X509691Y-433092D02*
X512491Y-434647D01*
X513425Y-436203D01*
X513425Y-439314D01*
G54D15*
X505958Y-439314D02*
X505958Y-426870D01*
X510625Y-426870D01*
X512491Y-427647D01*
X513425Y-429203D01*
X513425Y-430758D01*
X512491Y-432314D01*
X510625Y-433092D01*
X505958Y-433092D01*
G54D16*
X99428Y-556891D02*
X99428Y-530224D01*
X109428Y-546891D01*
X119428Y-530224D01*
X119428Y-556891D01*
G54D16*
X138761Y-555224D02*
X135561Y-556891D01*
X131561Y-556891D01*
X127561Y-555224D01*
X126761Y-551891D01*
X126761Y-546224D01*
X128761Y-542891D01*
X132761Y-541891D01*
X136761Y-542891D01*
X138761Y-545224D01*
X138761Y-548558D01*
X126761Y-548558D01*
G54D16*
X150094Y-530224D02*
X150094Y-555224D01*
X152094Y-556891D01*
X154094Y-556224D01*
G54D16*
X146094Y-541891D02*
X154094Y-541891D01*
G54D16*
X173427Y-555224D02*
X170227Y-556891D01*
X166227Y-556891D01*
X162227Y-555224D01*
X161427Y-551891D01*
X161427Y-546224D01*
X163427Y-542891D01*
X167427Y-541891D01*
X171427Y-542891D01*
X173427Y-545224D01*
X173427Y-548558D01*
X161427Y-548558D01*
G54D16*
X192760Y-552891D02*
X192760Y-546224D01*
X190760Y-542891D01*
X186760Y-541891D01*
X182760Y-542891D01*
X180760Y-546224D01*
X180760Y-552891D01*
X182760Y-556224D01*
X186760Y-556891D01*
X190760Y-556224D01*
X192760Y-552891D01*
G54D16*
X200093Y-556891D02*
X200093Y-530224D01*
X210093Y-530224D01*
X214093Y-531891D01*
X216093Y-535224D01*
X216093Y-538558D01*
X214093Y-541891D01*
X210093Y-543558D01*
X214093Y-545224D01*
X216093Y-548558D01*
X216093Y-551891D01*
X214093Y-555224D01*
X210093Y-556891D01*
X200093Y-556891D01*
G54D16*
X200093Y-543558D02*
X210093Y-543558D01*
G54D16*
X235426Y-552891D02*
X235426Y-546224D01*
X233426Y-542891D01*
X229426Y-541891D01*
X225426Y-542891D01*
X223426Y-546224D01*
X223426Y-552891D01*
X225426Y-556224D01*
X229426Y-556891D01*
X233426Y-556224D01*
X235426Y-552891D01*
G54D16*
X242759Y-541891D02*
X258759Y-556891D01*
G54D16*
X242759Y-556891D02*
X258759Y-541891D01*
G54D16*
X273825Y-541891D02*
X281825Y-556891D01*
X289825Y-541891D01*
G54D16*
X297158Y-540224D02*
X307158Y-530224D01*
X307158Y-556891D01*
G54D16*
X316091Y-556891D02*
X314491Y-556891D01*
X314491Y-555558D01*
X316091Y-555558D01*
X316091Y-556891D01*
X314491Y-556891D01*
G54D16*
X339424Y-535224D02*
X339424Y-551891D01*
X337424Y-555224D01*
X333424Y-556891D01*
X329424Y-556891D01*
X325424Y-555224D01*
X323424Y-551891D01*
X323424Y-535224D01*
X325424Y-531891D01*
X329424Y-530224D01*
X333424Y-530224D01*
X337424Y-531891D01*
X339424Y-535224D01*
G54D17*
X659026Y-551561D02*
X668360Y-526672D01*
X677693Y-551561D01*
G54D17*
X662760Y-542228D02*
X673960Y-542228D01*
G54D17*
X695738Y-537561D02*
X695738Y-551561D01*
G54D17*
X695738Y-548450D02*
X693871Y-550939D01*
X690138Y-551561D01*
X686404Y-550939D01*
X684538Y-548450D01*
X684538Y-537561D01*
G54D17*
X706315Y-526672D02*
X706315Y-550006D01*
X708182Y-551561D01*
X710048Y-550939D01*
G54D17*
X702582Y-537561D02*
X710048Y-537561D01*
G54D17*
X716892Y-551561D02*
X716892Y-526672D01*
G54D17*
X716892Y-541606D02*
X718759Y-538494D01*
X722492Y-537561D01*
X726226Y-538494D01*
X728092Y-541606D01*
X728092Y-551561D01*
G54D17*
X746136Y-547828D02*
X746136Y-541606D01*
X744270Y-538494D01*
X740536Y-537561D01*
X736803Y-538494D01*
X734936Y-541606D01*
X734936Y-547828D01*
X736803Y-550939D01*
X740536Y-551561D01*
X744270Y-550939D01*
X746136Y-547828D01*
G54D17*
X752980Y-551561D02*
X752980Y-537561D01*
G54D17*
X752980Y-540672D02*
X756714Y-537561D01*
X760447Y-537561D01*
G54D17*
X767292Y-551561D02*
X768785Y-551561D01*
X768785Y-550316D01*
X767292Y-550316D01*
X767292Y-551561D01*
G54D17*
X768785Y-532894D02*
X767292Y-532894D01*
X767292Y-531650D01*
X768785Y-531650D01*
X768785Y-532894D01*
G54D17*
X782846Y-550006D02*
X786579Y-551561D01*
X790312Y-551561D01*
X794046Y-550006D01*
X794046Y-546894D01*
X792179Y-545339D01*
X784712Y-543783D01*
X782846Y-542228D01*
X782846Y-539116D01*
X786579Y-537561D01*
X790312Y-537561D01*
X794046Y-539116D01*
G54D17*
X800890Y-551561D02*
X800890Y-526672D01*
G54D17*
X800890Y-541606D02*
X802756Y-538494D01*
X806490Y-537561D01*
X810223Y-538494D01*
X812090Y-541606D01*
X812090Y-551561D01*
G54D17*
X828267Y-538494D02*
X824534Y-537561D01*
X820800Y-538494D01*
X818934Y-541606D01*
X818934Y-547828D01*
X820800Y-550939D01*
X824534Y-551561D01*
X828267Y-550939D01*
G54D17*
X835110Y-551561D02*
X835110Y-526672D01*
G54D17*
X835110Y-541606D02*
X836977Y-538494D01*
X840710Y-537561D01*
X844444Y-538494D01*
X846310Y-541606D01*
X846310Y-551561D01*
G54D17*
X864354Y-537561D02*
X864354Y-551561D01*
G54D17*
X864354Y-548450D02*
X862488Y-550939D01*
X858754Y-551561D01*
X855021Y-550939D01*
X853154Y-548450D01*
X853154Y-537561D01*
G54D17*
X871198Y-551561D02*
X871198Y-526672D01*
G54D17*
X876798Y-542228D02*
X882398Y-551561D01*
G54D17*
X871198Y-545339D02*
X882398Y-537561D01*
G54D17*
X900442Y-547828D02*
X900442Y-541606D01*
X898576Y-538494D01*
X894842Y-537561D01*
X891109Y-538494D01*
X889242Y-541606D01*
X889242Y-547828D01*
X891109Y-550939D01*
X894842Y-551561D01*
X898576Y-550939D01*
X900442Y-547828D01*
G54D18*
G75*
G01X63503Y-543242D02*
G03X63503Y-543242I-15878J0D01*
G01*
G54D18*
G75*
G01X963615Y-543243D02*
G03X963615Y-543243I-15878J0D01*
G01*
G54D12*
G75*
G01X65252Y-484329D02*
G03X30252Y-484329I-17500J0D01*
G01*
G54D12*
X30561Y-484125D02*
X65359Y-484124D01*
G54D12*
X47594Y-520608D02*
X38342Y-484222D01*
G54D12*
X56569Y-485129D02*
X47854Y-520672D01*
G54D12*
X54142Y-484550D02*
X41755Y-496938D01*
G54D12*
X54936Y-492487D02*
X43342Y-504081D01*
G54D12*
X51761Y-503600D02*
X44930Y-510431D01*
G54D12*
G75*
G01X965133Y-484475D02*
G03X930133Y-484475I-17500J0D01*
G01*
G54D12*
X964825Y-484271D02*
X930026Y-484271D01*
G54D12*
X947791Y-520754D02*
X957044Y-484368D01*
G54D12*
X938817Y-485275D02*
X947531Y-520818D01*
G54D12*
X941243Y-484696D02*
X953631Y-497084D01*
G54D12*
X940449Y-492634D02*
X952043Y-504228D01*
G54D12*
X943624Y-503746D02*
X950456Y-510578D01*
G54D12*
G75*
G01X30229Y-102264D02*
G03X65229Y-102264I17500J0D01*
G01*
G54D12*
X30538Y-102468D02*
X65336Y-102469D01*
G54D12*
X47571Y-65985D02*
X38319Y-102371D01*
G54D12*
X56546Y-101464D02*
X47832Y-65921D01*
G54D12*
X54120Y-102044D02*
X41732Y-89656D01*
G54D12*
X54913Y-94106D02*
X43319Y-82512D01*
G54D12*
X51738Y-82993D02*
X44907Y-76162D01*
G54D12*
G75*
G01X930133Y-102265D02*
G03X965133Y-102265I17500J0D01*
G01*
G54D12*
X964825Y-102469D02*
X930026Y-102469D01*
G54D12*
X947791Y-65986D02*
X957044Y-102372D01*
G54D12*
X938817Y-101464D02*
X947531Y-65922D01*
G54D12*
X941243Y-102044D02*
X953631Y-89656D01*
G54D12*
X940450Y-94106D02*
X952044Y-82512D01*
G54D12*
X943625Y-82994D02*
X950456Y-76162D01*
G54D18*
G75*
G01X63503Y-43497D02*
G03X63503Y-43497I-15878J0D01*
G01*
G54D18*
G75*
G01X963616Y-43498D02*
G03X963616Y-43498I-15878J0D01*
G01*
G54D19*
X35865Y-447732D02*
X59865Y-447732D01*
X59865Y-439332D01*
G54D19*
X59865Y-424332D02*
X59865Y-432732D01*
X35865Y-432732D01*
X35865Y-424332D01*
G54D19*
X47865Y-432732D02*
X47865Y-424332D01*
G54D19*
X59865Y-417732D02*
X35865Y-417732D01*
X35865Y-411732D01*
X37365Y-409332D01*
X40365Y-408132D01*
X55365Y-408132D01*
X58365Y-409332D01*
X59865Y-411732D01*
X59865Y-417732D01*
G54D19*
X59865Y-394692D02*
X46365Y-394692D01*
G54D19*
X48765Y-394692D02*
X46365Y-392292D01*
X47265Y-389892D01*
X49365Y-388692D01*
X59865Y-388692D01*
G54D19*
X48765Y-388692D02*
X46365Y-386292D01*
X47265Y-383892D01*
X49365Y-382692D01*
X59865Y-382692D01*
G54D19*
X56265Y-368892D02*
X50265Y-368892D01*
X47265Y-370092D01*
X46365Y-372492D01*
X47265Y-374892D01*
X50265Y-376092D01*
X56265Y-376092D01*
X59265Y-374892D01*
X59865Y-372492D01*
X59265Y-370092D01*
X56265Y-368892D01*
G54D19*
X59865Y-355092D02*
X35865Y-355092D01*
G54D19*
X50265Y-355092D02*
X47265Y-356292D01*
X46365Y-358692D01*
X47265Y-361092D01*
X50265Y-362292D01*
X56265Y-362292D01*
X59265Y-361092D01*
X59865Y-358692D01*
X59265Y-356292D01*
X56265Y-355092D01*
G54D19*
X46365Y-341292D02*
X59865Y-341292D01*
G54D19*
X56865Y-341292D02*
X59265Y-342492D01*
X59865Y-344892D01*
X59265Y-347292D01*
X56865Y-348492D01*
X46365Y-348492D01*
G54D19*
X59865Y-334692D02*
X35865Y-334692D01*
G54D19*
X58365Y-320892D02*
X59865Y-322812D01*
X59865Y-325212D01*
X58365Y-327612D01*
X55365Y-328092D01*
X50265Y-328092D01*
X47265Y-326892D01*
X46365Y-324492D01*
X47265Y-322092D01*
X49365Y-320892D01*
X52365Y-320892D01*
X52365Y-328092D01*
X47625Y-543242D02*
G54D20*
D03*
X47625Y-43498D02*
G54D20*
D03*
X947738Y-43497D02*
G54D20*
D03*
X947738Y-543242D02*
G54D20*
D03*
G36*
X108578Y-214975D02*
X102278Y-221275D01*
X108578Y-227575D01*
X108578Y-240375D01*
X102278Y-246675D01*
X108578Y-252975D01*
X108578Y-214975D01*
G37*
G54D12*
X108578Y-214975D02*
X102278Y-221275D01*
X108578Y-227575D01*
X108578Y-240375D01*
X102278Y-246675D01*
X108578Y-252975D01*
X108578Y-214975D01*
G36*
X108578Y-240375D02*
X102278Y-246675D01*
X108578Y-252975D01*
X108578Y-265775D01*
X102278Y-272075D01*
X108578Y-278375D01*
X108578Y-240375D01*
G37*
G54D12*
X108578Y-240375D02*
X102278Y-246675D01*
X108578Y-252975D01*
X108578Y-265775D01*
X102278Y-272075D01*
X108578Y-278375D01*
X108578Y-240375D01*
G36*
X912378Y-214575D02*
X906078Y-220875D01*
X912378Y-227175D01*
X912378Y-239975D01*
X906078Y-246275D01*
X912378Y-252575D01*
X912378Y-214575D01*
G37*
G54D12*
X912378Y-214575D02*
X906078Y-220875D01*
X912378Y-227175D01*
X912378Y-239975D01*
X906078Y-246275D01*
X912378Y-252575D01*
X912378Y-214575D01*
G36*
X912378Y-239975D02*
X906078Y-246275D01*
X912378Y-252575D01*
X912378Y-265375D01*
X906078Y-271675D01*
X912378Y-277975D01*
X912378Y-239975D01*
G37*
G54D12*
X912378Y-239975D02*
X906078Y-246275D01*
X912378Y-252575D01*
X912378Y-265375D01*
X906078Y-271675D01*
X912378Y-277975D01*
X912378Y-239975D01*
G36*
X886978Y-214575D02*
X893278Y-220875D01*
X886978Y-227175D01*
X886978Y-239975D01*
X893278Y-246275D01*
X886978Y-252575D01*
X886978Y-214575D01*
G37*
G54D12*
X886978Y-214575D02*
X893278Y-220875D01*
X886978Y-227175D01*
X886978Y-239975D01*
X893278Y-246275D01*
X886978Y-252575D01*
X886978Y-214575D01*
G36*
X886978Y-239975D02*
X893278Y-246275D01*
X886978Y-252575D01*
X886978Y-265375D01*
X893278Y-271675D01*
X886978Y-277975D01*
X886978Y-239975D01*
G37*
G54D12*
X886978Y-239975D02*
X893278Y-246275D01*
X886978Y-252575D01*
X886978Y-265375D01*
X893278Y-271675D01*
X886978Y-277975D01*
X886978Y-239975D01*
G36*
X83178Y-214975D02*
X89478Y-221275D01*
X83178Y-227575D01*
X83178Y-240375D01*
X89478Y-246675D01*
X83178Y-252975D01*
X83178Y-214975D01*
G37*
G54D12*
X83178Y-214975D02*
X89478Y-221275D01*
X83178Y-227575D01*
X83178Y-240375D01*
X89478Y-246675D01*
X83178Y-252975D01*
X83178Y-214975D01*
G36*
X83178Y-240375D02*
X89478Y-246675D01*
X83178Y-252975D01*
X83178Y-265775D01*
X89478Y-272075D01*
X83178Y-278375D01*
X83178Y-240375D01*
G37*
G54D12*
X83178Y-240375D02*
X89478Y-246675D01*
X83178Y-252975D01*
X83178Y-265775D01*
X89478Y-272075D01*
X83178Y-278375D01*
X83178Y-240375D01*
G54D12*
X898525Y-371475D02*
X898525Y-301625D01*
G54D13*
X765265Y-223920D02*
X769887Y-223920D01*
G54D13*
X767576Y-221031D02*
X767576Y-226809D01*
G54D13*
X773065Y-221753D02*
X775954Y-217420D01*
X775954Y-228975D01*
G54D13*
X783754Y-217420D02*
X779132Y-217420D01*
X779132Y-222475D01*
X779709Y-222475D01*
X780865Y-221753D01*
X782021Y-221753D01*
X783176Y-222475D01*
X783754Y-223920D01*
X783754Y-226809D01*
X783176Y-228253D01*
X782021Y-228975D01*
X780865Y-228975D01*
X779709Y-228253D01*
X779132Y-226809D01*
G54D13*
X791554Y-219586D02*
X791554Y-226809D01*
X790976Y-228253D01*
X789821Y-228975D01*
X788665Y-228975D01*
X787509Y-228253D01*
X786932Y-226809D01*
X786932Y-219586D01*
X787509Y-218142D01*
X788665Y-217420D01*
X789821Y-217420D01*
X790976Y-218142D01*
X791554Y-219586D01*
G54D13*
X798026Y-228975D02*
X798026Y-217420D01*
X800915Y-217420D01*
X802070Y-218142D01*
X802648Y-219586D01*
X802648Y-221031D01*
X802070Y-222475D01*
X800915Y-223198D01*
X798026Y-223198D01*
G54D13*
X805826Y-223198D02*
X806981Y-222475D01*
X808368Y-222475D01*
X809292Y-223920D01*
X809292Y-228975D01*
G54D13*
X809292Y-226809D02*
X808715Y-225364D01*
X807559Y-225075D01*
X806403Y-225364D01*
X805826Y-226809D01*
X806057Y-228253D01*
X806981Y-228975D01*
X807559Y-228975D01*
X807790Y-228975D01*
X808715Y-228253D01*
X809292Y-226809D01*
G54D13*
X812471Y-228975D02*
X817093Y-217420D01*
G54D13*
X820271Y-228975D02*
X820271Y-217420D01*
G54D13*
X820271Y-224353D02*
X820848Y-222909D01*
X822004Y-222475D01*
X823160Y-222909D01*
X823737Y-224353D01*
X823737Y-228975D01*
G54D13*
X763658Y-198404D02*
X768280Y-198404D01*
G54D13*
X765969Y-195515D02*
X765969Y-201293D01*
G54D13*
X776080Y-203459D02*
X771458Y-203459D01*
X771458Y-202737D01*
X772035Y-201293D01*
X775502Y-196959D01*
X776080Y-195515D01*
X776080Y-194070D01*
X775502Y-192626D01*
X774346Y-191904D01*
X773191Y-191904D01*
X772035Y-192626D01*
X771458Y-194070D01*
G54D13*
X783880Y-194070D02*
X783880Y-201293D01*
X783302Y-202737D01*
X782146Y-203459D01*
X780991Y-203459D01*
X779835Y-202737D01*
X779258Y-201293D01*
X779258Y-194070D01*
X779835Y-192626D01*
X780991Y-191904D01*
X782146Y-191904D01*
X783302Y-192626D01*
X783880Y-194070D01*
G54D13*
X791680Y-194070D02*
X791680Y-201293D01*
X791102Y-202737D01*
X789946Y-203459D01*
X788791Y-203459D01*
X787635Y-202737D01*
X787058Y-201293D01*
X787058Y-194070D01*
X787635Y-192626D01*
X788791Y-191904D01*
X789946Y-191904D01*
X791102Y-192626D01*
X791680Y-194070D01*
G54D13*
X798152Y-203459D02*
X798152Y-191904D01*
X801040Y-191904D01*
X802196Y-192626D01*
X802774Y-194070D01*
X802774Y-195515D01*
X802196Y-196959D01*
X801040Y-197682D01*
X798152Y-197682D01*
G54D13*
X805952Y-197682D02*
X807107Y-196959D01*
X808494Y-196959D01*
X809418Y-198404D01*
X809418Y-203459D01*
G54D13*
X809418Y-201293D02*
X808840Y-199848D01*
X807685Y-199559D01*
X806529Y-199848D01*
X805952Y-201293D01*
X806183Y-202737D01*
X807107Y-203459D01*
X807685Y-203459D01*
X807916Y-203459D01*
X808840Y-202737D01*
X809418Y-201293D01*
G54D13*
X812597Y-203459D02*
X817219Y-191904D01*
G54D13*
X820397Y-203459D02*
X820397Y-191904D01*
G54D13*
X820397Y-198837D02*
X820974Y-197393D01*
X822130Y-196959D01*
X823285Y-197393D01*
X823863Y-198837D01*
X823863Y-203459D01*
G54D12*
X882228Y-258975D02*
X861487Y-258975D01*
G54D12*
X882228Y-233575D02*
X861487Y-233575D01*
G54D12*
X882228Y-208175D02*
X861487Y-208175D01*
G54D12*
X832062Y-208175D02*
X766872Y-208175D01*
G54D12*
X832062Y-233575D02*
X766872Y-233575D01*
G54D12*
X832062Y-258975D02*
X766872Y-258975D01*
G36*
X242202Y-355600D02*
X235902Y-361900D01*
X229602Y-355600D01*
X216802Y-355600D01*
X210502Y-361900D01*
X204202Y-355600D01*
X242202Y-355600D01*
G37*
G54D12*
X242202Y-355600D02*
X235902Y-361900D01*
X229602Y-355600D01*
X216802Y-355600D01*
X210502Y-361900D01*
X204202Y-355600D01*
X242202Y-355600D01*
G36*
X442335Y-355853D02*
X436035Y-362153D01*
X429735Y-355853D01*
X416935Y-355853D01*
X410635Y-362153D01*
X404335Y-355853D01*
X442335Y-355853D01*
G37*
G54D12*
X442335Y-355853D02*
X436035Y-362153D01*
X429735Y-355853D01*
X416935Y-355853D01*
X410635Y-362153D01*
X404335Y-355853D01*
X442335Y-355853D01*
G36*
X791352Y-355600D02*
X785052Y-361900D01*
X778752Y-355600D01*
X765952Y-355600D01*
X759652Y-361900D01*
X753352Y-355600D01*
X791352Y-355600D01*
G37*
G54D12*
X791352Y-355600D02*
X785052Y-361900D01*
X778752Y-355600D01*
X765952Y-355600D01*
X759652Y-361900D01*
X753352Y-355600D01*
X791352Y-355600D01*
G36*
X791352Y-381000D02*
X785052Y-374700D01*
X778752Y-381000D01*
X765952Y-381000D01*
X759652Y-374700D01*
X753352Y-381000D01*
X791352Y-381000D01*
G37*
G54D12*
X791352Y-381000D02*
X785052Y-374700D01*
X778752Y-381000D01*
X765952Y-381000D01*
X759652Y-374700D01*
X753352Y-381000D01*
X791352Y-381000D01*
G36*
X442335Y-381253D02*
X436035Y-374953D01*
X429735Y-381253D01*
X416935Y-381253D01*
X410635Y-374953D01*
X404335Y-381253D01*
X442335Y-381253D01*
G37*
G54D12*
X442335Y-381253D02*
X436035Y-374953D01*
X429735Y-381253D01*
X416935Y-381253D01*
X410635Y-374953D01*
X404335Y-381253D01*
X442335Y-381253D01*
G36*
X242202Y-381000D02*
X235902Y-374700D01*
X229602Y-381000D01*
X216802Y-381000D01*
X210502Y-374700D01*
X204202Y-381000D01*
X242202Y-381000D01*
G37*
G54D12*
X242202Y-381000D02*
X235902Y-374700D01*
X229602Y-381000D01*
X216802Y-381000D01*
X210502Y-374700D01*
X204202Y-381000D01*
X242202Y-381000D01*
G54D21*
X21825Y-17179D02*
X974209Y-17177D01*
X974209Y-570981D01*
X974167Y-571023D01*
X21825Y-571023D01*
X21825Y-17179D01*
G54D10*
X355777Y-214175D02*
X359778Y-218175D01*
X359778Y-226175D01*
X357777Y-228175D01*
X357777Y-260175D01*
X359778Y-262175D01*
X359778Y-270175D01*
X355777Y-274175D01*
X339778Y-274175D01*
X335778Y-270175D01*
X335778Y-262175D01*
X337778Y-260175D01*
X337778Y-228175D01*
X335778Y-226175D01*
X335778Y-218175D01*
X339778Y-214175D01*
X355777Y-214175D01*
G54D10*
X357777Y-228175D02*
X337778Y-228175D01*
G54D10*
X357777Y-260175D02*
X337778Y-260175D01*
G54D10*
X350778Y-203175D02*
X350778Y-214175D01*
G54D10*
X344778Y-203175D02*
X344778Y-214175D01*
G54D10*
X344778Y-285175D02*
X344778Y-274175D01*
G54D10*
X350778Y-285175D02*
X350778Y-274175D01*
G54D12*
X372863Y-256374D02*
X374863Y-252774D01*
X376863Y-251574D01*
X380863Y-251574D01*
G54D12*
X380863Y-261174D02*
X364863Y-261174D01*
X364863Y-255174D01*
X365863Y-252774D01*
X367863Y-251574D01*
X369863Y-251574D01*
X371863Y-252774D01*
X372863Y-255174D01*
X372863Y-261174D01*
G54D12*
X370863Y-247174D02*
X364863Y-241174D01*
X380863Y-241174D01*
G54D12*
X370863Y-236774D02*
X364863Y-230774D01*
X380863Y-230774D01*
G54D10*
X455777Y-214175D02*
X459778Y-218175D01*
X459778Y-226175D01*
X457777Y-228175D01*
X457777Y-260175D01*
X459778Y-262175D01*
X459778Y-270175D01*
X455777Y-274175D01*
X439778Y-274175D01*
X435778Y-270175D01*
X435778Y-262175D01*
X437778Y-260175D01*
X437778Y-228175D01*
X435778Y-226175D01*
X435778Y-218175D01*
X439778Y-214175D01*
X455777Y-214175D01*
G54D10*
X457777Y-228175D02*
X437778Y-228175D01*
G54D10*
X457777Y-260175D02*
X437778Y-260175D01*
G54D10*
X450778Y-203175D02*
X450778Y-214175D01*
G54D10*
X444778Y-203175D02*
X444778Y-214175D01*
G54D10*
X444778Y-285175D02*
X444778Y-274175D01*
G54D10*
X450778Y-285175D02*
X450778Y-274175D01*
G54D12*
X472863Y-256374D02*
X474863Y-252774D01*
X476863Y-251574D01*
X480863Y-251574D01*
G54D12*
X480863Y-261174D02*
X464863Y-261174D01*
X464863Y-255174D01*
X465863Y-252774D01*
X467863Y-251574D01*
X469863Y-251574D01*
X471863Y-252774D01*
X472863Y-255174D01*
X472863Y-261174D01*
G54D12*
X470863Y-247174D02*
X464863Y-241174D01*
X480863Y-241174D01*
G54D12*
X480863Y-227174D02*
X480863Y-236774D01*
X479863Y-236774D01*
X477863Y-235574D01*
X471863Y-228374D01*
X469863Y-227174D01*
X467863Y-227174D01*
X465863Y-228374D01*
X464863Y-230774D01*
X464863Y-233174D01*
X465863Y-235574D01*
X467863Y-236774D01*
G54D10*
X555778Y-214175D02*
X559778Y-218175D01*
X559778Y-226175D01*
X557778Y-228175D01*
X557778Y-260175D01*
X559778Y-262175D01*
X559778Y-270175D01*
X555778Y-274175D01*
X539778Y-274175D01*
X535778Y-270175D01*
X535778Y-262175D01*
X537778Y-260175D01*
X537778Y-228175D01*
X535778Y-226175D01*
X535778Y-218175D01*
X539778Y-214175D01*
X555778Y-214175D01*
G54D10*
X557778Y-228175D02*
X537778Y-228175D01*
G54D10*
X557778Y-260175D02*
X537778Y-260175D01*
G54D10*
X550778Y-203175D02*
X550778Y-214175D01*
G54D10*
X544778Y-203175D02*
X544778Y-214175D01*
G54D10*
X544778Y-285175D02*
X544778Y-274175D01*
G54D10*
X550778Y-285175D02*
X550778Y-274175D01*
G54D12*
X572863Y-256374D02*
X574863Y-252774D01*
X576863Y-251574D01*
X580863Y-251574D01*
G54D12*
X580863Y-261174D02*
X564863Y-261174D01*
X564863Y-255174D01*
X565863Y-252774D01*
X567863Y-251574D01*
X569863Y-251574D01*
X571863Y-252774D01*
X572863Y-255174D01*
X572863Y-261174D01*
G54D12*
X570863Y-247174D02*
X564863Y-241174D01*
X580863Y-241174D01*
G54D12*
X567863Y-236774D02*
X565863Y-235574D01*
X564863Y-233174D01*
X564863Y-230774D01*
X565863Y-228374D01*
X567863Y-227174D01*
X569863Y-227174D01*
X571863Y-228374D01*
X572863Y-230774D01*
X573863Y-228374D01*
X575863Y-227174D01*
X577863Y-227174D01*
X579863Y-228374D01*
X580863Y-230774D01*
X580863Y-233174D01*
X579863Y-235574D01*
X577863Y-236774D01*
G54D10*
X655778Y-214175D02*
X659778Y-218175D01*
X659778Y-226175D01*
X657778Y-228175D01*
X657778Y-260175D01*
X659778Y-262175D01*
X659778Y-270175D01*
X655778Y-274175D01*
X639778Y-274175D01*
X635778Y-270175D01*
X635778Y-262175D01*
X637778Y-260175D01*
X637778Y-228175D01*
X635778Y-226175D01*
X635778Y-218175D01*
X639778Y-214175D01*
X655778Y-214175D01*
G54D10*
X657778Y-228175D02*
X637778Y-228175D01*
G54D10*
X657778Y-260175D02*
X637778Y-260175D01*
G54D10*
X650778Y-203175D02*
X650778Y-214175D01*
G54D10*
X644778Y-203175D02*
X644778Y-214175D01*
G54D10*
X644778Y-285175D02*
X644778Y-274175D01*
G54D10*
X650778Y-285175D02*
X650778Y-274175D01*
G54D12*
X672863Y-256374D02*
X674863Y-252774D01*
X676863Y-251574D01*
X680863Y-251574D01*
G54D12*
X680863Y-261174D02*
X664863Y-261174D01*
X664863Y-255174D01*
X665863Y-252774D01*
X667863Y-251574D01*
X669863Y-251574D01*
X671863Y-252774D01*
X672863Y-255174D01*
X672863Y-261174D01*
G54D12*
X670863Y-247174D02*
X664863Y-241174D01*
X680863Y-241174D01*
G54D12*
X680863Y-229574D02*
X664863Y-229574D01*
X674863Y-236774D01*
X676863Y-236774D01*
X676863Y-227174D01*
G54D10*
X855778Y-214175D02*
X859778Y-218175D01*
X859778Y-226175D01*
X857778Y-228175D01*
X857778Y-260175D01*
X859778Y-262175D01*
X859778Y-270175D01*
X855778Y-274175D01*
X839778Y-274175D01*
X835778Y-270175D01*
X835778Y-262175D01*
X837778Y-260175D01*
X837778Y-228175D01*
X835778Y-226175D01*
X835778Y-218175D01*
X839778Y-214175D01*
X855778Y-214175D01*
G54D10*
X857778Y-228175D02*
X837778Y-228175D01*
G54D10*
X857778Y-260175D02*
X837778Y-260175D01*
G54D10*
X850778Y-203175D02*
X850778Y-214175D01*
G54D10*
X844778Y-203175D02*
X844778Y-214175D01*
G54D10*
X844778Y-285175D02*
X844778Y-274175D01*
G54D10*
X850778Y-285175D02*
X850778Y-274175D01*
G54D13*
X847462Y-252985D02*
X848907Y-250385D01*
X850351Y-249518D01*
X853240Y-249518D01*
G54D13*
X853240Y-256452D02*
X841685Y-256452D01*
X841685Y-252118D01*
X842407Y-250385D01*
X843851Y-249518D01*
X845296Y-249518D01*
X846740Y-250385D01*
X847462Y-252118D01*
X847462Y-256452D01*
G54D13*
X846018Y-246341D02*
X841685Y-242008D01*
X853240Y-242008D01*
G54D13*
X843851Y-231896D02*
X842407Y-232763D01*
X841685Y-234496D01*
X841685Y-236230D01*
X842407Y-237963D01*
X843851Y-238830D01*
X847462Y-238830D01*
X848185Y-238830D01*
X846740Y-236230D01*
X846740Y-234496D01*
X847462Y-232763D01*
X848907Y-231896D01*
X851074Y-231896D01*
X852518Y-232763D01*
X853240Y-234496D01*
X853240Y-236230D01*
X852518Y-237963D01*
X851074Y-238830D01*
X847462Y-238830D01*
G54D10*
X755778Y-214175D02*
X759778Y-218175D01*
X759778Y-226175D01*
X757778Y-228175D01*
X757778Y-260175D01*
X759778Y-262175D01*
X759778Y-270175D01*
X755778Y-274175D01*
X739778Y-274175D01*
X735778Y-270175D01*
X735778Y-262175D01*
X737778Y-260175D01*
X737778Y-228175D01*
X735778Y-226175D01*
X735778Y-218175D01*
X739778Y-214175D01*
X755778Y-214175D01*
G54D10*
X757778Y-228175D02*
X737778Y-228175D01*
G54D10*
X757778Y-260175D02*
X737778Y-260175D01*
G54D10*
X750778Y-203175D02*
X750778Y-214175D01*
G54D10*
X744778Y-203175D02*
X744778Y-214175D01*
G54D10*
X744778Y-285175D02*
X744778Y-274175D01*
G54D10*
X750778Y-285175D02*
X750778Y-274175D01*
G54D13*
X747462Y-252985D02*
X748907Y-250385D01*
X750351Y-249518D01*
X753240Y-249518D01*
G54D13*
X753240Y-256452D02*
X741685Y-256452D01*
X741685Y-252118D01*
X742407Y-250385D01*
X743851Y-249518D01*
X745296Y-249518D01*
X746740Y-250385D01*
X747462Y-252118D01*
X747462Y-256452D01*
G54D13*
X746018Y-246341D02*
X741685Y-242008D01*
X753240Y-242008D01*
G54D13*
X741685Y-231896D02*
X741685Y-238830D01*
X746740Y-238830D01*
X746740Y-237963D01*
X746018Y-236230D01*
X746018Y-234496D01*
X746740Y-232763D01*
X748185Y-231896D01*
X751074Y-231896D01*
X752518Y-232763D01*
X753240Y-234496D01*
X753240Y-236230D01*
X752518Y-237963D01*
X751074Y-238830D01*
G54D10*
G75*
G01X306228Y-330268D02*
G03X311154Y-302331I-8450J15893D01*
G01*
G54D10*
G75*
G01X283989Y-302805D02*
G03X289327Y-330268I13789J-11570D01*
G01*
G54D10*
X311278Y-302375D02*
X306478Y-302375D01*
G54D10*
X284278Y-302475D02*
X289078Y-302475D01*
G54D11*
X288728Y-321400D02*
X297140Y-312988D01*
G54D12*
X297928Y-311588D02*
X297928Y-303000D01*
G54D11*
X297928Y-312400D02*
X306928Y-321400D01*
G54D12*
X288928Y-321400D02*
X306928Y-321400D01*
G54D12*
X288928Y-311400D02*
X306428Y-311400D01*
G54D12*
X297728Y-328600D02*
X297728Y-321900D01*
G54D10*
X308840Y-317288D02*
X315190Y-310938D01*
G54D10*
X308840Y-310938D02*
X315190Y-304588D01*
G54D10*
X312015Y-304588D02*
X315190Y-304588D01*
X315190Y-307762D01*
G54D10*
X312015Y-310938D02*
X315190Y-310938D01*
X315190Y-314112D01*
G54D13*
X234172Y-299526D02*
X234172Y-311082D01*
X240239Y-311082D01*
G54D13*
X249484Y-311082D02*
X243417Y-311082D01*
X243417Y-299526D01*
X249484Y-299526D01*
G54D13*
X243417Y-305304D02*
X249484Y-305304D01*
G54D13*
X252662Y-311082D02*
X252662Y-299526D01*
X256995Y-299526D01*
X258729Y-300248D01*
X259595Y-301693D01*
X259595Y-308915D01*
X258729Y-310359D01*
X256995Y-311082D01*
X252662Y-311082D01*
G54D13*
X262773Y-303859D02*
X267106Y-299526D01*
X267106Y-311082D01*
G54D13*
X270284Y-303859D02*
X274617Y-299526D01*
X274617Y-311082D01*
G54D10*
G75*
G01X406228Y-330268D02*
G03X411154Y-302331I-8450J15893D01*
G01*
G54D10*
G75*
G01X383989Y-302805D02*
G03X389327Y-330268I13789J-11570D01*
G01*
G54D10*
X411278Y-302375D02*
X406478Y-302375D01*
G54D10*
X384278Y-302475D02*
X389078Y-302475D01*
G54D11*
X388728Y-321400D02*
X397140Y-312988D01*
G54D12*
X397928Y-311588D02*
X397928Y-303000D01*
G54D11*
X397928Y-312400D02*
X406928Y-321400D01*
G54D12*
X388928Y-321400D02*
X406928Y-321400D01*
G54D12*
X388928Y-311400D02*
X406428Y-311400D01*
G54D12*
X397728Y-328600D02*
X397728Y-321900D01*
G54D10*
X408840Y-317288D02*
X415190Y-310938D01*
G54D10*
X408840Y-310938D02*
X415190Y-304588D01*
G54D10*
X412015Y-304588D02*
X415190Y-304588D01*
X415190Y-307762D01*
G54D10*
X412015Y-310938D02*
X415190Y-310938D01*
X415190Y-314112D01*
G54D13*
X331314Y-299526D02*
X331314Y-311082D01*
X337381Y-311082D01*
G54D13*
X346626Y-311082D02*
X340560Y-311082D01*
X340560Y-299526D01*
X346626Y-299526D01*
G54D13*
X340560Y-305304D02*
X346626Y-305304D01*
G54D13*
X349804Y-311082D02*
X349804Y-299526D01*
X354138Y-299526D01*
X355871Y-300248D01*
X356738Y-301693D01*
X356738Y-308915D01*
X355871Y-310359D01*
X354138Y-311082D01*
X349804Y-311082D01*
G54D13*
X359916Y-303859D02*
X364249Y-299526D01*
X364249Y-311082D01*
G54D13*
X374360Y-311082D02*
X367426Y-311082D01*
X367426Y-310359D01*
X368293Y-308915D01*
X373493Y-304582D01*
X374360Y-303137D01*
X374360Y-301693D01*
X373493Y-300248D01*
X371760Y-299526D01*
X370026Y-299526D01*
X368293Y-300248D01*
X367426Y-301693D01*
G54D10*
G75*
G01X506228Y-330268D02*
G03X511154Y-302331I-8450J15893D01*
G01*
G54D10*
G75*
G01X483989Y-302805D02*
G03X489327Y-330268I13789J-11570D01*
G01*
G54D10*
X511278Y-302375D02*
X506478Y-302375D01*
G54D10*
X484278Y-302475D02*
X489078Y-302475D01*
G54D11*
X488728Y-321400D02*
X497140Y-312988D01*
G54D12*
X497928Y-311588D02*
X497928Y-303000D01*
G54D11*
X497928Y-312400D02*
X506928Y-321400D01*
G54D12*
X488928Y-321400D02*
X506928Y-321400D01*
G54D12*
X488928Y-311400D02*
X506428Y-311400D01*
G54D12*
X497728Y-328600D02*
X497728Y-321900D01*
G54D10*
X508840Y-317288D02*
X515190Y-310938D01*
G54D10*
X508840Y-310938D02*
X515190Y-304588D01*
G54D10*
X512015Y-304588D02*
X515190Y-304588D01*
X515190Y-307762D01*
G54D10*
X512015Y-310938D02*
X515190Y-310938D01*
X515190Y-314112D01*
G54D13*
X521802Y-299526D02*
X521802Y-311082D01*
X527869Y-311082D01*
G54D13*
X537114Y-311082D02*
X531047Y-311082D01*
X531047Y-299526D01*
X537114Y-299526D01*
G54D13*
X531047Y-305304D02*
X537114Y-305304D01*
G54D13*
X540292Y-311082D02*
X540292Y-299526D01*
X544625Y-299526D01*
X546359Y-300248D01*
X547225Y-301693D01*
X547225Y-308915D01*
X546359Y-310359D01*
X544625Y-311082D01*
X540292Y-311082D01*
G54D13*
X550403Y-303859D02*
X554736Y-299526D01*
X554736Y-311082D01*
G54D13*
X557914Y-301693D02*
X558781Y-300248D01*
X560514Y-299526D01*
X562247Y-299526D01*
X563981Y-300248D01*
X564847Y-301693D01*
X564847Y-303137D01*
X563981Y-304582D01*
X562247Y-305304D01*
X563981Y-306026D01*
X564847Y-307470D01*
X564847Y-308915D01*
X563981Y-310359D01*
X562247Y-311082D01*
X560514Y-311082D01*
X558781Y-310359D01*
X557914Y-308915D01*
G54D10*
G75*
G01X606228Y-330268D02*
G03X611154Y-302331I-8450J15893D01*
G01*
G54D10*
G75*
G01X583989Y-302805D02*
G03X589327Y-330268I13789J-11570D01*
G01*
G54D10*
X611278Y-302375D02*
X606478Y-302375D01*
G54D10*
X584278Y-302475D02*
X589078Y-302475D01*
G54D11*
X588728Y-321400D02*
X597140Y-312988D01*
G54D12*
X597928Y-311588D02*
X597928Y-303000D01*
G54D11*
X597928Y-312400D02*
X606928Y-321400D01*
G54D12*
X588928Y-321400D02*
X606928Y-321400D01*
G54D12*
X588928Y-311400D02*
X606428Y-311400D01*
G54D12*
X597728Y-328600D02*
X597728Y-321900D01*
G54D10*
X608840Y-317288D02*
X615190Y-310938D01*
G54D10*
X608840Y-310938D02*
X615190Y-304588D01*
G54D10*
X612015Y-304588D02*
X615190Y-304588D01*
X615190Y-307762D01*
G54D10*
X612015Y-310938D02*
X615190Y-310938D01*
X615190Y-314112D01*
G54D13*
X621802Y-299526D02*
X621802Y-311082D01*
X627869Y-311082D01*
G54D13*
X637114Y-311082D02*
X631047Y-311082D01*
X631047Y-299526D01*
X637114Y-299526D01*
G54D13*
X631047Y-305304D02*
X637114Y-305304D01*
G54D13*
X640292Y-311082D02*
X640292Y-299526D01*
X644625Y-299526D01*
X646359Y-300248D01*
X647225Y-301693D01*
X647225Y-308915D01*
X646359Y-310359D01*
X644625Y-311082D01*
X640292Y-311082D01*
G54D13*
X650403Y-303859D02*
X654736Y-299526D01*
X654736Y-311082D01*
G54D13*
X663114Y-311082D02*
X663114Y-299526D01*
X657914Y-306748D01*
X657914Y-308193D01*
X664847Y-308193D01*
G54D10*
G75*
G01X706228Y-330268D02*
G03X711154Y-302331I-8450J15893D01*
G01*
G54D10*
G75*
G01X683989Y-302805D02*
G03X689327Y-330268I13789J-11570D01*
G01*
G54D10*
X711278Y-302375D02*
X706478Y-302375D01*
G54D10*
X684278Y-302475D02*
X689078Y-302475D01*
G54D11*
X688728Y-321400D02*
X697140Y-312988D01*
G54D12*
X697928Y-311588D02*
X697928Y-303000D01*
G54D11*
X697928Y-312400D02*
X706928Y-321400D01*
G54D12*
X688928Y-321400D02*
X706928Y-321400D01*
G54D12*
X688928Y-311400D02*
X706428Y-311400D01*
G54D12*
X697728Y-328600D02*
X697728Y-321900D01*
G54D10*
X708840Y-317288D02*
X715190Y-310938D01*
G54D10*
X708840Y-310938D02*
X715190Y-304588D01*
G54D10*
X712015Y-304588D02*
X715190Y-304588D01*
X715190Y-307762D01*
G54D10*
X712015Y-310938D02*
X715190Y-310938D01*
X715190Y-314112D01*
G54D13*
X721802Y-299526D02*
X721802Y-311082D01*
X727869Y-311082D01*
G54D13*
X737114Y-311082D02*
X731047Y-311082D01*
X731047Y-299526D01*
X737114Y-299526D01*
G54D13*
X731047Y-305304D02*
X737114Y-305304D01*
G54D13*
X740292Y-311082D02*
X740292Y-299526D01*
X744625Y-299526D01*
X746359Y-300248D01*
X747225Y-301693D01*
X747225Y-308915D01*
X746359Y-310359D01*
X744625Y-311082D01*
X740292Y-311082D01*
G54D13*
X750403Y-303859D02*
X754736Y-299526D01*
X754736Y-311082D01*
G54D13*
X764847Y-299526D02*
X757914Y-299526D01*
X757914Y-304582D01*
X758781Y-304582D01*
X760514Y-303859D01*
X762247Y-303859D01*
X763981Y-304582D01*
X764847Y-306026D01*
X764847Y-308915D01*
X763981Y-310359D01*
X762247Y-311082D01*
X760514Y-311082D01*
X758781Y-310359D01*
X757914Y-308915D01*
G54D10*
G75*
G01X806228Y-330268D02*
G03X811154Y-302331I-8450J15893D01*
G01*
G54D10*
G75*
G01X783989Y-302805D02*
G03X789327Y-330268I13789J-11570D01*
G01*
G54D10*
X811278Y-302375D02*
X806478Y-302375D01*
G54D10*
X784278Y-302475D02*
X789078Y-302475D01*
G54D11*
X788728Y-321400D02*
X797140Y-312988D01*
G54D12*
X797928Y-311588D02*
X797928Y-303000D01*
G54D11*
X797928Y-312400D02*
X806928Y-321400D01*
G54D12*
X788928Y-321400D02*
X806928Y-321400D01*
G54D12*
X788928Y-311400D02*
X806428Y-311400D01*
G54D12*
X797728Y-328600D02*
X797728Y-321900D01*
G54D10*
X808840Y-317288D02*
X815190Y-310938D01*
G54D10*
X808840Y-310938D02*
X815190Y-304588D01*
G54D10*
X812015Y-304588D02*
X815190Y-304588D01*
X815190Y-307762D01*
G54D10*
X812015Y-310938D02*
X815190Y-310938D01*
X815190Y-314112D01*
G54D13*
X821802Y-299526D02*
X821802Y-311082D01*
X827869Y-311082D01*
G54D13*
X837114Y-311082D02*
X831047Y-311082D01*
X831047Y-299526D01*
X837114Y-299526D01*
G54D13*
X831047Y-305304D02*
X837114Y-305304D01*
G54D13*
X840292Y-311082D02*
X840292Y-299526D01*
X844625Y-299526D01*
X846359Y-300248D01*
X847225Y-301693D01*
X847225Y-308915D01*
X846359Y-310359D01*
X844625Y-311082D01*
X840292Y-311082D01*
G54D13*
X850403Y-303859D02*
X854736Y-299526D01*
X854736Y-311082D01*
G54D13*
X864847Y-301693D02*
X863981Y-300248D01*
X862247Y-299526D01*
X860514Y-299526D01*
X858781Y-300248D01*
X857914Y-301693D01*
X857914Y-305304D01*
X857914Y-306026D01*
X860514Y-304582D01*
X862247Y-304582D01*
X863981Y-305304D01*
X864847Y-306748D01*
X864847Y-308915D01*
X863981Y-310359D01*
X862247Y-311082D01*
X860514Y-311082D01*
X858781Y-310359D01*
X857914Y-308915D01*
X857914Y-305304D01*
M02*
