%FSLAX34Y34*%
%MOMM*%
%LNCOPPER_BOTTOM*%
G71*
G01*
%ADD10C, 2.100*%
%ADD11C, 1.000*%
%ADD12R, 1.600X1.600*%
%ADD13C, 1.200*%
%ADD14C, 2.200*%
%ADD15C, 0.600*%
%ADD16C, 1.800*%
%ADD17C, 0.311*%
%ADD18C, 2.500*%
%ADD19C, 1.900*%
%ADD20C, 0.800*%
%ADD21C, 0.300*%
%ADD22C, 1.900*%
%ADD23C, 1.800*%
%ADD24C, 1.900*%
%ADD25C, 2.100*%
%LPD*%
X57150Y801688D02*
G54D10*
D03*
X82550Y801688D02*
G54D10*
D03*
X107950Y801688D02*
G54D10*
D03*
X133350Y801688D02*
G54D10*
D03*
X158750Y801688D02*
G54D10*
D03*
X184150Y801688D02*
G54D10*
D03*
X209550Y801688D02*
G54D10*
D03*
X234950Y801688D02*
G54D10*
D03*
X260350Y801688D02*
G54D10*
D03*
X285750Y801688D02*
G54D10*
D03*
X311150Y801688D02*
G54D10*
D03*
X336550Y801688D02*
G54D10*
D03*
X361950Y801688D02*
G54D10*
D03*
X387350Y801688D02*
G54D10*
D03*
X412750Y801688D02*
G54D10*
D03*
X57150Y649288D02*
G54D10*
D03*
X82550Y649288D02*
G54D10*
D03*
X107950Y649288D02*
G54D10*
D03*
X133350Y649288D02*
G54D10*
D03*
X158750Y649288D02*
G54D10*
D03*
X184150Y649288D02*
G54D10*
D03*
X209550Y649288D02*
G54D10*
D03*
X234950Y649288D02*
G54D10*
D03*
X260350Y649288D02*
G54D10*
D03*
X285750Y649288D02*
G54D10*
D03*
X311150Y649288D02*
G54D10*
D03*
X336550Y649288D02*
G54D10*
D03*
X361950Y649288D02*
G54D10*
D03*
X387350Y649288D02*
G54D10*
D03*
X412750Y649288D02*
G54D10*
D03*
X387350Y852488D02*
G54D10*
D03*
X412750Y852488D02*
G54D10*
D03*
X311150Y852488D02*
G54D10*
D03*
G54D11*
X82550Y852488D02*
X82550Y801688D01*
G54D11*
X412750Y852488D02*
X412750Y801688D01*
X476250Y712788D02*
G54D10*
D03*
X476250Y763627D02*
G54D10*
D03*
X476250Y738227D02*
G54D10*
D03*
X476250Y789027D02*
G54D10*
D03*
X476250Y763627D02*
G54D10*
D03*
X285750Y725488D02*
G54D10*
D03*
X425450Y725488D02*
G54D10*
D03*
X285750Y700088D02*
G54D10*
D03*
X425450Y700088D02*
G54D10*
D03*
X363250Y749986D02*
G54D12*
D03*
X335250Y749986D02*
G54D12*
D03*
X476250Y789027D02*
G54D10*
D03*
X476250Y763627D02*
G54D10*
D03*
X476250Y738227D02*
G54D10*
D03*
X476250Y712827D02*
G54D10*
D03*
G54D11*
X234950Y649288D02*
X234950Y674688D01*
X260350Y700088D01*
X285750Y700088D01*
G54D11*
X285750Y725488D02*
X298450Y725488D01*
X311150Y712788D01*
X311150Y687388D01*
X298450Y674688D01*
X273050Y674688D01*
X260350Y661988D01*
X260350Y649288D01*
G54D11*
X387350Y649288D02*
X387350Y731838D01*
X400050Y744538D01*
G54D11*
X82550Y649288D02*
X82550Y763588D01*
X95250Y776288D01*
X387350Y776288D01*
G54D11*
X107950Y852488D02*
X107950Y801688D01*
G54D11*
X133350Y852488D02*
X133350Y801688D01*
G54D11*
X158750Y852488D02*
X158750Y801688D01*
G54D11*
X184150Y852488D02*
X184150Y801688D01*
G54D11*
X209550Y852488D02*
X209550Y801688D01*
G54D11*
X234950Y852488D02*
X234950Y801688D01*
G54D11*
X260350Y852488D02*
X260350Y801688D01*
G54D11*
X285750Y827088D02*
X285750Y801688D01*
G54D11*
X311150Y852488D02*
X311150Y801688D01*
G54D11*
X387350Y852488D02*
X387350Y801688D01*
G54D11*
X158750Y649288D02*
X158750Y598488D01*
G54D11*
X184150Y649288D02*
X184150Y598488D01*
G54D11*
X209550Y649288D02*
X209550Y598488D01*
G54D11*
X311150Y649288D02*
X311150Y598488D01*
X361950Y852488D02*
G54D10*
D03*
X336550Y852488D02*
G54D10*
D03*
G54D11*
X336550Y852488D02*
X336550Y801688D01*
G54D11*
X361950Y852488D02*
X361950Y801688D01*
G54D11*
X311150Y649288D02*
X311150Y661988D01*
X336550Y687388D01*
X336550Y743836D01*
G54D13*
X336550Y649288D02*
X336550Y661988D01*
X349250Y674688D01*
X361950Y674688D01*
X361950Y674688D02*
G54D10*
D03*
X425450Y674688D02*
G54D10*
D03*
X336550Y598488D02*
G54D10*
D03*
X311150Y598488D02*
G54D10*
D03*
X374650Y534988D02*
G54D14*
D03*
X374650Y560388D02*
G54D14*
D03*
G54D13*
X387350Y598488D02*
X387350Y649288D01*
G54D11*
X387350Y776288D02*
X425450Y776288D01*
X438190Y789027D01*
X476250Y789027D01*
G54D11*
X400050Y744538D02*
X406400Y750888D01*
X425450Y750888D01*
X438190Y763627D01*
X476250Y763627D01*
G54D11*
X425450Y725488D02*
X438190Y738227D01*
X476250Y738227D01*
G54D11*
X425450Y700088D02*
X431800Y700088D01*
X444540Y712827D01*
X476250Y712788D01*
G54D13*
X425450Y674688D02*
X438150Y687388D01*
X501650Y687388D01*
X501650Y623888D01*
X488950Y611187D01*
X476250Y611187D01*
G54D13*
X412750Y649288D02*
X438150Y649288D01*
X450850Y661988D01*
X476250Y661988D01*
G54D13*
X476250Y636587D02*
X450850Y636588D01*
X412750Y598488D01*
X438150Y852488D02*
G54D10*
D03*
X463550Y852487D02*
G54D10*
D03*
X285750Y827088D02*
G54D10*
D03*
X463550Y827088D02*
G54D10*
D03*
X488950Y852488D02*
G54D10*
D03*
X463550Y852488D02*
G54D10*
D03*
X438190Y763627D02*
G54D10*
D03*
X438150Y808038D02*
G54D10*
D03*
G54D11*
X438150Y852488D02*
X438150Y808038D01*
G54D11*
X463550Y852487D02*
X463550Y827088D01*
G54D11*
X488950Y852488D02*
X501650Y839788D01*
X501650Y687388D01*
X158750Y598488D02*
G54D10*
D03*
X184150Y598488D02*
G54D10*
D03*
X209550Y598488D02*
G54D10*
D03*
G54D11*
X82550Y598488D02*
X82550Y611188D01*
X57150Y636588D01*
X57150Y649288D01*
G54D11*
X107950Y598488D02*
X107950Y611188D01*
X133350Y636588D01*
X133350Y649288D01*
G54D15*
X611126Y977663D02*
X23928Y977663D01*
X23928Y423820D01*
X611188Y423820D01*
G54D15*
X611126Y977663D02*
X976312Y977666D01*
X976312Y912812D01*
X605002Y912400D01*
X604838Y490538D01*
G54D15*
X604838Y490538D02*
X976312Y490538D01*
X976312Y423862D01*
X611188Y423820D01*
X611505Y905828D02*
G54D16*
D03*
X611505Y496570D02*
G54D16*
D03*
X976312Y905828D02*
G54D16*
D03*
X976312Y496570D02*
G54D16*
D03*
G54D17*
X913454Y934849D02*
X904120Y959738D01*
X894787Y934849D01*
G54D17*
X909720Y944182D02*
X898520Y944182D01*
G54D17*
X876742Y948849D02*
X876742Y934849D01*
G54D17*
X876742Y937960D02*
X878609Y935471D01*
X882342Y934849D01*
X886076Y935471D01*
X887942Y937960D01*
X887942Y948849D01*
G54D17*
X866165Y959738D02*
X866165Y936405D01*
X864298Y934849D01*
X862432Y935471D01*
G54D17*
X869898Y948849D02*
X862432Y948849D01*
G54D17*
X855588Y934849D02*
X855588Y959738D01*
G54D17*
X855588Y944805D02*
X853721Y947916D01*
X849988Y948849D01*
X846254Y947916D01*
X844388Y944805D01*
X844388Y934849D01*
G54D17*
X826344Y938582D02*
X826344Y944805D01*
X828210Y947916D01*
X831944Y948849D01*
X835677Y947916D01*
X837544Y944805D01*
X837544Y938582D01*
X835677Y935471D01*
X831944Y934849D01*
X828210Y935471D01*
X826344Y938582D01*
G54D17*
X819500Y934849D02*
X819500Y948849D01*
G54D17*
X819500Y945738D02*
X815766Y948849D01*
X812033Y948849D01*
G54D17*
X805188Y934849D02*
X803695Y934849D01*
X803695Y936093D01*
X805188Y936093D01*
X805188Y934849D01*
G54D17*
X803695Y953516D02*
X805188Y953516D01*
X805188Y954760D01*
X803695Y954760D01*
X803695Y953516D01*
G54D17*
X789634Y936405D02*
X785901Y934849D01*
X782168Y934849D01*
X778434Y936405D01*
X778434Y939516D01*
X780301Y941071D01*
X787768Y942627D01*
X789634Y944182D01*
X789634Y947293D01*
X785901Y948849D01*
X782168Y948849D01*
X778434Y947293D01*
G54D17*
X771590Y934849D02*
X771590Y959738D01*
G54D17*
X771590Y944805D02*
X769724Y947916D01*
X765990Y948849D01*
X762257Y947916D01*
X760390Y944805D01*
X760390Y934849D01*
G54D17*
X744213Y947916D02*
X747946Y948849D01*
X751680Y947916D01*
X753546Y944805D01*
X753546Y938582D01*
X751680Y935471D01*
X747946Y934849D01*
X744213Y935471D01*
G54D17*
X737370Y934849D02*
X737370Y959738D01*
G54D17*
X737370Y944805D02*
X735503Y947916D01*
X731770Y948849D01*
X728036Y947916D01*
X726170Y944805D01*
X726170Y934849D01*
G54D17*
X708126Y948849D02*
X708126Y934849D01*
G54D17*
X708126Y937960D02*
X709992Y935471D01*
X713726Y934849D01*
X717459Y935471D01*
X719326Y937960D01*
X719326Y948849D01*
G54D17*
X701282Y934849D02*
X701282Y959738D01*
G54D17*
X695682Y944182D02*
X690082Y934849D01*
G54D17*
X701282Y941071D02*
X690082Y948849D01*
G54D17*
X672038Y938582D02*
X672038Y944805D01*
X673904Y947916D01*
X677638Y948849D01*
X681371Y947916D01*
X683238Y944805D01*
X683238Y938582D01*
X681371Y935471D01*
X677638Y934849D01*
X673904Y935471D01*
X672038Y938582D01*
G54D17*
X314773Y937538D02*
X314773Y962427D01*
X305440Y946872D01*
X296107Y962427D01*
X296107Y937538D01*
G54D17*
X278062Y939094D02*
X281049Y937538D01*
X284782Y937538D01*
X288516Y939094D01*
X289262Y942205D01*
X289262Y947494D01*
X287396Y950605D01*
X283662Y951538D01*
X279929Y950605D01*
X278062Y948427D01*
X278062Y945316D01*
X289262Y945316D01*
G54D17*
X267485Y962427D02*
X267485Y939094D01*
X265618Y937538D01*
X263752Y938161D01*
G54D17*
X271218Y951538D02*
X263752Y951538D01*
G54D17*
X245707Y939094D02*
X248694Y937538D01*
X252427Y937538D01*
X256161Y939094D01*
X256907Y942205D01*
X256907Y947494D01*
X255041Y950605D01*
X251307Y951538D01*
X247574Y950605D01*
X245707Y948427D01*
X245707Y945316D01*
X256907Y945316D01*
G54D17*
X227663Y941272D02*
X227663Y947494D01*
X229530Y950605D01*
X233263Y951538D01*
X236997Y950605D01*
X238863Y947494D01*
X238863Y941272D01*
X236997Y938161D01*
X233263Y937538D01*
X229530Y938161D01*
X227663Y941272D01*
G54D17*
X220819Y937538D02*
X220819Y962427D01*
X211486Y962427D01*
X207753Y960872D01*
X205886Y957761D01*
X205886Y954650D01*
X207753Y951538D01*
X211486Y949983D01*
X207753Y948427D01*
X205886Y945316D01*
X205886Y942205D01*
X207753Y939094D01*
X211486Y937538D01*
X220819Y937538D01*
G54D17*
X220819Y949983D02*
X211486Y949983D01*
G54D17*
X187842Y941272D02*
X187842Y947494D01*
X189709Y950605D01*
X193442Y951538D01*
X197176Y950605D01*
X199042Y947494D01*
X199042Y941272D01*
X197176Y938161D01*
X193442Y937538D01*
X189709Y938161D01*
X187842Y941272D01*
G54D17*
X180998Y951538D02*
X166065Y937538D01*
G54D17*
X180998Y937538D02*
X166065Y951538D01*
G54D17*
X152004Y951538D02*
X144538Y937538D01*
X137071Y951538D01*
G54D17*
X130227Y953094D02*
X120894Y962427D01*
X120894Y937538D01*
G54D17*
X112557Y937538D02*
X114050Y937538D01*
X114050Y938783D01*
X112557Y938783D01*
X112557Y937538D01*
X114050Y937538D01*
G54D17*
X90780Y957761D02*
X90780Y942205D01*
X92647Y939094D01*
X96380Y937538D01*
X100113Y937538D01*
X103847Y939094D01*
X105713Y942205D01*
X105713Y957761D01*
X103847Y960872D01*
X100113Y962427D01*
X96380Y962427D01*
X92647Y960872D01*
X90780Y957761D01*
G54D18*
X82550Y547488D02*
X82550Y522488D01*
G54D18*
X142550Y547488D02*
X142550Y522488D01*
G54D18*
X105150Y485188D02*
X130150Y485188D01*
G54D13*
X82550Y534988D02*
X82550Y547688D01*
X107950Y573088D01*
X165100Y573088D01*
X177800Y560388D01*
X374650Y560388D01*
X387350Y573088D01*
X387350Y598488D01*
G54D13*
X142550Y534988D02*
X387350Y534988D01*
X412750Y560388D01*
X412750Y598488D01*
G54D11*
X363250Y749986D02*
X405498Y749986D01*
X387350Y731838D01*
X288916Y559861D02*
G54D10*
D03*
X288916Y534461D02*
G54D10*
D03*
X49817Y950337D02*
G54D19*
D03*
X949930Y950337D02*
G54D19*
D03*
X949930Y450592D02*
G54D19*
D03*
X49817Y450592D02*
G54D19*
D03*
G54D20*
G75*
G01X66817Y450592D02*
G03X66817Y450592I-17000J0D01*
G01*
G54D21*
G75*
G01X57717Y450592D02*
G03X57717Y450592I-7900J0D01*
G01*
G54D21*
X55430Y456205D02*
X72829Y473604D01*
G54D21*
X26805Y427580D02*
X44204Y444980D01*
G54D21*
X26182Y473694D02*
X43581Y456295D01*
G54D21*
X55368Y444508D02*
X72767Y427109D01*
G54D20*
G75*
G01X66818Y950771D02*
G03X66818Y950771I-17000J0D01*
G01*
G54D21*
G75*
G01X57718Y950771D02*
G03X57718Y950771I-7900J0D01*
G01*
G54D21*
X55431Y956384D02*
X72830Y973783D01*
G54D21*
X26806Y927759D02*
X44205Y945159D01*
G54D21*
X26183Y973873D02*
X43582Y956474D01*
G54D21*
X55369Y944687D02*
X72768Y927288D01*
G54D20*
G75*
G01X966930Y950337D02*
G03X966930Y950337I-17000J0D01*
G01*
G54D21*
G75*
G01X957830Y950337D02*
G03X957830Y950337I-7900J0D01*
G01*
G54D21*
X944318Y955950D02*
X926919Y973349D01*
G54D21*
X972942Y927325D02*
X955543Y944724D01*
G54D21*
X973566Y973439D02*
X956166Y956040D01*
G54D21*
X944380Y944253D02*
X926980Y926854D01*
G54D20*
G75*
G01X967271Y449876D02*
G03X967271Y449876I-17000J0D01*
G01*
G54D21*
G75*
G01X958171Y449876D02*
G03X958171Y449876I-7900J0D01*
G01*
G54D21*
X944659Y455489D02*
X927260Y472888D01*
G54D21*
X973284Y426864D02*
X955884Y444264D01*
G54D21*
X973907Y472978D02*
X956507Y455579D01*
G54D21*
X944721Y443792D02*
X927321Y426393D01*
X82750Y545388D02*
G54D22*
D03*
X82750Y540388D02*
G54D22*
D03*
X82750Y529388D02*
G54D22*
D03*
X82750Y524388D02*
G54D22*
D03*
X142250Y545388D02*
G54D22*
D03*
X142250Y540388D02*
G54D22*
D03*
X142250Y529388D02*
G54D22*
D03*
X142250Y524388D02*
G54D22*
D03*
X124938Y484988D02*
G54D22*
D03*
X129938Y484988D02*
G54D22*
D03*
X113938Y484988D02*
G54D22*
D03*
X108938Y484988D02*
G54D22*
D03*
G54D17*
X898803Y450691D02*
X900669Y447580D01*
X904403Y446024D01*
X908136Y446024D01*
X911869Y447580D01*
X913736Y450691D01*
X913736Y466247D01*
X911869Y469358D01*
X908136Y470913D01*
X904403Y470913D01*
X900669Y469358D01*
X898803Y466247D01*
G54D17*
X880759Y449758D02*
X880759Y455980D01*
X882626Y459091D01*
X886359Y460024D01*
X890092Y459091D01*
X891959Y455980D01*
X891959Y449758D01*
X890092Y446647D01*
X886359Y446024D01*
X882626Y446647D01*
X880759Y449758D01*
G54D17*
X873915Y446024D02*
X873915Y460024D01*
G54D17*
X873915Y456913D02*
X872048Y459091D01*
X868315Y460024D01*
X864582Y459091D01*
X862715Y456913D01*
X862715Y446024D01*
G54D17*
X852138Y470913D02*
X852138Y447580D01*
X850271Y446024D01*
X848404Y446647D01*
G54D17*
X855871Y460024D02*
X848404Y460024D01*
G54D17*
X841560Y446024D02*
X841560Y460024D01*
G54D17*
X841560Y456913D02*
X837827Y460024D01*
X834093Y460024D01*
G54D17*
X816049Y449758D02*
X816049Y455980D01*
X817916Y459091D01*
X821649Y460024D01*
X825382Y459091D01*
X827249Y455980D01*
X827249Y449758D01*
X825382Y446647D01*
X821649Y446024D01*
X817916Y446647D01*
X816049Y449758D01*
G54D17*
X809205Y446024D02*
X809205Y470913D01*
G54D17*
X802361Y446024D02*
X802361Y470913D01*
G54D17*
X784317Y447580D02*
X787304Y446024D01*
X791037Y446024D01*
X794770Y447580D01*
X795517Y450691D01*
X795517Y455980D01*
X793650Y459091D01*
X789917Y460024D01*
X786184Y459091D01*
X784317Y456913D01*
X784317Y453802D01*
X795517Y453802D01*
G54D17*
X777473Y446024D02*
X777473Y460024D01*
G54D17*
X777473Y456913D02*
X773740Y460024D01*
X770006Y460024D01*
G54D17*
X755945Y446024D02*
X755945Y460024D01*
G54D17*
X755945Y457536D02*
X752212Y460024D01*
X748478Y459091D01*
X746612Y456913D01*
X746612Y446024D01*
G54D17*
X746612Y457536D02*
X742878Y460024D01*
X739145Y459091D01*
X737278Y456913D01*
X737278Y446024D01*
G54D17*
X719234Y449758D02*
X719234Y455980D01*
X721101Y459091D01*
X724834Y460024D01*
X728567Y459091D01*
X730434Y455980D01*
X730434Y449758D01*
X728567Y446647D01*
X724834Y446024D01*
X721101Y446647D01*
X719234Y449758D01*
G54D17*
X701190Y446024D02*
X701190Y470913D01*
G54D17*
X701190Y455980D02*
X703057Y459091D01*
X706790Y460024D01*
X710523Y459091D01*
X712390Y455980D01*
X712390Y449758D01*
X710523Y446647D01*
X706790Y446024D01*
X703057Y446647D01*
X701190Y449758D01*
G54D17*
X683146Y460024D02*
X683146Y446024D01*
G54D17*
X683146Y449136D02*
X685013Y446647D01*
X688746Y446024D01*
X692479Y446647D01*
X694346Y449136D01*
X694346Y460024D01*
G54D17*
X676302Y446024D02*
X676302Y470913D01*
G54D17*
X658258Y447580D02*
X661245Y446024D01*
X664978Y446024D01*
X668711Y447580D01*
X669458Y450691D01*
X669458Y455980D01*
X667591Y459091D01*
X663858Y460024D01*
X660125Y459091D01*
X658258Y456913D01*
X658258Y453802D01*
X669458Y453802D01*
G54D11*
X57150Y801688D02*
X57150Y681038D01*
G54D11*
X57150Y612775D02*
X57150Y598488D01*
G54D11*
X57150Y681038D02*
X38100Y661988D01*
X38100Y631825D01*
X57150Y612775D01*
X242888Y522446D02*
G54D23*
D03*
X242888Y573246D02*
G54D23*
D03*
G54D11*
X336550Y598488D02*
X336550Y649288D01*
X387350Y598488D02*
G54D24*
D03*
G54D11*
X242888Y573246D02*
X242888Y562146D01*
G54D11*
X242888Y522446D02*
X242888Y533546D01*
X476250Y661988D02*
G54D25*
D03*
X476250Y636588D02*
G54D25*
D03*
X476250Y611187D02*
G54D25*
D03*
X184150Y852488D02*
G54D24*
D03*
X209550Y852488D02*
G54D24*
D03*
X234950Y852488D02*
G54D24*
D03*
X260350Y852488D02*
G54D24*
D03*
X82550Y852488D02*
G54D24*
D03*
X107950Y852488D02*
G54D24*
D03*
X133350Y852488D02*
G54D24*
D03*
X158750Y852488D02*
G54D24*
D03*
X57150Y598488D02*
G54D10*
D03*
X82550Y598488D02*
G54D10*
D03*
X107950Y598488D02*
G54D10*
D03*
M02*
