%FSLAX34Y34*%
%MOMM*%
%LNSILK_TOP*%
G71*
G01*
%ADD10C, 0.200*%
%ADD11C, 0.011*%
%ADD12C, 0.167*%
%ADD13C, 0.222*%
%ADD14C, 0.144*%
%ADD15C, 0.156*%
%ADD16C, 0.211*%
%ADD17C, 0.300*%
%ADD18C, 0.006*%
%ADD19C, 0.289*%
%ADD20C, 0.311*%
%ADD21C, 0.400*%
%ADD22C, 0.267*%
%ADD23C, 1.500*%
%ADD24C, 0.233*%
%ADD25C, 0.600*%
%ADD26C, 0.100*%
%LPD*%
G54D10*
X57150Y814388D02*
X50750Y814388D01*
X44450Y808088D01*
X44450Y795288D01*
X50750Y788988D01*
X63550Y788988D01*
X69850Y795288D01*
X69850Y808088D01*
X63550Y814388D01*
X57150Y814388D01*
G54D10*
X82550Y814388D02*
X76150Y814388D01*
X69850Y808088D01*
X69850Y795288D01*
X76150Y788988D01*
X88950Y788988D01*
X95250Y795288D01*
X95250Y808088D01*
X88950Y814388D01*
X82550Y814388D01*
G54D10*
X107950Y814388D02*
X101550Y814388D01*
X95250Y808088D01*
X95250Y795288D01*
X101550Y788988D01*
X114350Y788988D01*
X120650Y795288D01*
X120650Y808088D01*
X114350Y814388D01*
X107950Y814388D01*
G54D10*
X133350Y814388D02*
X126950Y814388D01*
X120650Y808088D01*
X120650Y795288D01*
X126950Y788988D01*
X139750Y788988D01*
X146050Y795288D01*
X146050Y808088D01*
X139750Y814388D01*
X133350Y814388D01*
G54D10*
X158750Y814388D02*
X152350Y814388D01*
X146050Y808088D01*
X146050Y795288D01*
X152350Y788988D01*
X165150Y788988D01*
X171450Y795288D01*
X171450Y808088D01*
X165150Y814388D01*
X158750Y814388D01*
G54D10*
X184150Y814388D02*
X177750Y814388D01*
X171450Y808088D01*
X171450Y795288D01*
X177750Y788988D01*
X190550Y788988D01*
X196850Y795288D01*
X196850Y808088D01*
X190550Y814388D01*
X184150Y814388D01*
G54D10*
X209550Y814388D02*
X203150Y814388D01*
X196850Y808088D01*
X196850Y795288D01*
X203150Y788988D01*
X215950Y788988D01*
X222250Y795288D01*
X222250Y808088D01*
X215950Y814388D01*
X209550Y814388D01*
G54D10*
X234950Y814388D02*
X228550Y814388D01*
X222250Y808088D01*
X222250Y795288D01*
X228550Y788988D01*
X241350Y788988D01*
X247650Y795288D01*
X247650Y808088D01*
X241350Y814388D01*
X234950Y814388D01*
G54D10*
X260350Y814388D02*
X253950Y814388D01*
X247650Y808088D01*
X247650Y795288D01*
X253950Y788988D01*
X266750Y788988D01*
X273050Y795288D01*
X273050Y808088D01*
X266750Y814388D01*
X260350Y814388D01*
G54D10*
X285750Y814388D02*
X279350Y814388D01*
X273050Y808088D01*
X273050Y795288D01*
X279350Y788988D01*
X292150Y788988D01*
X298450Y795288D01*
X298450Y808088D01*
X292150Y814388D01*
X285750Y814388D01*
G54D10*
X311150Y814388D02*
X304750Y814388D01*
X298450Y808088D01*
X298450Y795288D01*
X304750Y788988D01*
X317550Y788988D01*
X323850Y795288D01*
X323850Y808088D01*
X317550Y814388D01*
X311150Y814388D01*
G54D10*
X336550Y814388D02*
X330150Y814388D01*
X323850Y808088D01*
X323850Y795288D01*
X330150Y788988D01*
X342950Y788988D01*
X349250Y795288D01*
X349250Y808088D01*
X342950Y814388D01*
X336550Y814388D01*
G54D10*
X361950Y814388D02*
X355550Y814388D01*
X349250Y808088D01*
X349250Y795288D01*
X355550Y788988D01*
X368350Y788988D01*
X374650Y795288D01*
X374650Y808088D01*
X368350Y814388D01*
X361950Y814388D01*
G54D10*
X387350Y814388D02*
X380950Y814388D01*
X374650Y808088D01*
X374650Y795288D01*
X380950Y788988D01*
X393750Y788988D01*
X400050Y795288D01*
X400050Y808088D01*
X393750Y814388D01*
X387350Y814388D01*
G54D10*
X412750Y814388D02*
X406350Y814388D01*
X400050Y808088D01*
X400050Y795288D01*
X406350Y788988D01*
X419150Y788988D01*
X425450Y795288D01*
X425450Y808088D01*
X419150Y814388D01*
X412750Y814388D01*
G54D11*
X43823Y841654D02*
X43770Y841654D01*
X43770Y841699D01*
X43823Y841699D01*
X43823Y841654D01*
X43770Y841654D01*
G54D11*
X43823Y822154D02*
X43770Y822154D01*
X43770Y822199D01*
X43823Y822199D01*
X43823Y822154D01*
X43770Y822154D01*
G54D10*
X57150Y661988D02*
X50750Y661988D01*
X44450Y655688D01*
X44450Y642888D01*
X50750Y636588D01*
X63550Y636588D01*
X69850Y642888D01*
X69850Y655688D01*
X63550Y661988D01*
X57150Y661988D01*
G54D10*
X82550Y661988D02*
X76150Y661988D01*
X69850Y655688D01*
X69850Y642888D01*
X76150Y636588D01*
X88950Y636588D01*
X95250Y642888D01*
X95250Y655688D01*
X88950Y661988D01*
X82550Y661988D01*
G54D10*
X107950Y661988D02*
X101550Y661988D01*
X95250Y655688D01*
X95250Y642888D01*
X101550Y636588D01*
X114350Y636588D01*
X120650Y642888D01*
X120650Y655688D01*
X114350Y661988D01*
X107950Y661988D01*
G54D10*
X133350Y661988D02*
X126950Y661988D01*
X120650Y655688D01*
X120650Y642888D01*
X126950Y636588D01*
X139750Y636588D01*
X146050Y642888D01*
X146050Y655688D01*
X139750Y661988D01*
X133350Y661988D01*
G54D10*
X158750Y661988D02*
X152350Y661988D01*
X146050Y655688D01*
X146050Y642888D01*
X152350Y636588D01*
X165150Y636588D01*
X171450Y642888D01*
X171450Y655688D01*
X165150Y661988D01*
X158750Y661988D01*
G54D10*
X184150Y661988D02*
X177750Y661988D01*
X171450Y655688D01*
X171450Y642888D01*
X177750Y636588D01*
X190550Y636588D01*
X196850Y642888D01*
X196850Y655688D01*
X190550Y661988D01*
X184150Y661988D01*
G54D10*
X209550Y661988D02*
X203150Y661988D01*
X196850Y655688D01*
X196850Y642888D01*
X203150Y636588D01*
X215950Y636588D01*
X222250Y642888D01*
X222250Y655688D01*
X215950Y661988D01*
X209550Y661988D01*
G54D10*
X234950Y661988D02*
X228550Y661988D01*
X222250Y655688D01*
X222250Y642888D01*
X228550Y636588D01*
X241350Y636588D01*
X247650Y642888D01*
X247650Y655688D01*
X241350Y661988D01*
X234950Y661988D01*
G54D10*
X260350Y661988D02*
X253950Y661988D01*
X247650Y655688D01*
X247650Y642888D01*
X253950Y636588D01*
X266750Y636588D01*
X273050Y642888D01*
X273050Y655688D01*
X266750Y661988D01*
X260350Y661988D01*
G54D10*
X285750Y661988D02*
X279350Y661988D01*
X273050Y655688D01*
X273050Y642888D01*
X279350Y636588D01*
X292150Y636588D01*
X298450Y642888D01*
X298450Y655688D01*
X292150Y661988D01*
X285750Y661988D01*
G54D10*
X311150Y661988D02*
X304750Y661988D01*
X298450Y655688D01*
X298450Y642888D01*
X304750Y636588D01*
X317550Y636588D01*
X323850Y642888D01*
X323850Y655688D01*
X317550Y661988D01*
X311150Y661988D01*
G54D10*
X336550Y661988D02*
X330150Y661988D01*
X323850Y655688D01*
X323850Y642888D01*
X330150Y636588D01*
X342950Y636588D01*
X349250Y642888D01*
X349250Y655688D01*
X342950Y661988D01*
X336550Y661988D01*
G54D10*
X361950Y661988D02*
X355550Y661988D01*
X349250Y655688D01*
X349250Y642888D01*
X355550Y636588D01*
X368350Y636588D01*
X374650Y642888D01*
X374650Y655688D01*
X368350Y661988D01*
X361950Y661988D01*
G54D10*
X387350Y661988D02*
X380950Y661988D01*
X374650Y655688D01*
X374650Y642888D01*
X380950Y636588D01*
X393750Y636588D01*
X400050Y642888D01*
X400050Y655688D01*
X393750Y661988D01*
X387350Y661988D01*
G54D10*
X412750Y661988D02*
X406350Y661988D01*
X400050Y655688D01*
X400050Y642888D01*
X406350Y636588D01*
X419150Y636588D01*
X425450Y642888D01*
X425450Y655688D01*
X419150Y661988D01*
X412750Y661988D01*
G54D11*
X43823Y676551D02*
X43770Y676551D01*
X43770Y676595D01*
X43823Y676595D01*
X43823Y676551D01*
X43770Y676551D01*
G54D11*
X43823Y669754D02*
X43770Y669754D01*
X43770Y669799D01*
X43823Y669799D01*
X43823Y669754D01*
X43770Y669754D01*
G54D12*
X408691Y773191D02*
X413691Y778191D01*
X413691Y764857D01*
G54D13*
X252599Y684360D02*
X234821Y684360D01*
X252599Y695026D01*
X234821Y695026D01*
G54D13*
X243710Y699916D02*
X242599Y702582D01*
X242599Y705782D01*
X244821Y707916D01*
X252599Y707916D01*
G54D13*
X249265Y707916D02*
X247043Y706582D01*
X246599Y703916D01*
X247043Y701249D01*
X249265Y699916D01*
X251488Y700449D01*
X252599Y702582D01*
X252599Y703916D01*
X252599Y704449D01*
X251488Y706582D01*
X249265Y707916D01*
G54D13*
X252599Y712805D02*
X242599Y712805D01*
G54D13*
X244821Y712805D02*
X243265Y714138D01*
X242599Y716805D01*
X243265Y719471D01*
X244821Y720805D01*
X252599Y720805D01*
G54D13*
X249932Y733694D02*
X245488Y733694D01*
X243265Y732360D01*
X242599Y729694D01*
X243265Y727027D01*
X245488Y725694D01*
X249932Y725694D01*
X252154Y727027D01*
X252599Y729694D01*
X252154Y732360D01*
X249932Y733694D01*
G54D13*
X242599Y743739D02*
X252599Y749072D01*
X242599Y754405D01*
G54D13*
X238154Y759295D02*
X235932Y760628D01*
X234821Y763295D01*
X234821Y765961D01*
X235932Y768628D01*
X238154Y769961D01*
X240376Y769961D01*
X242599Y768628D01*
X243710Y765961D01*
X244821Y768628D01*
X247043Y769961D01*
X249265Y769961D01*
X251488Y768628D01*
X252599Y765961D01*
X252599Y763295D01*
X251488Y760628D01*
X249265Y759295D01*
G54D10*
X387350Y865188D02*
X380950Y865188D01*
X374650Y858888D01*
X374650Y846088D01*
X380950Y839788D01*
X393750Y839788D01*
X400050Y846088D01*
X400050Y858888D01*
X393750Y865188D01*
X387350Y865188D01*
G54D10*
X412750Y865188D02*
X406350Y865188D01*
X400050Y858888D01*
X400050Y846088D01*
X406350Y839788D01*
X419150Y839788D01*
X425450Y846088D01*
X425450Y858888D01*
X419150Y865188D01*
X412750Y865188D01*
G54D11*
X367038Y896262D02*
X366985Y896262D01*
X366985Y896307D01*
X367038Y896307D01*
X367038Y896262D01*
X366985Y896262D01*
G54D11*
X374023Y872955D02*
X373970Y872955D01*
X373970Y872999D01*
X374023Y872999D01*
X374023Y872955D01*
X373970Y872955D01*
G54D10*
X311150Y865188D02*
X304750Y865188D01*
X298450Y858888D01*
X298450Y846088D01*
X304750Y839788D01*
X317550Y839788D01*
X323850Y846088D01*
X323850Y858888D01*
X317550Y865188D01*
X311150Y865188D01*
G54D11*
X276233Y897532D02*
X276180Y897532D01*
X276180Y897576D01*
X276233Y897576D01*
X276233Y897532D01*
X276180Y897532D01*
G54D11*
X297823Y872954D02*
X297770Y872954D01*
X297770Y872999D01*
X297823Y872999D01*
X297823Y872954D01*
X297770Y872954D01*
G54D12*
X505635Y794106D02*
X506635Y795772D01*
X508635Y796606D01*
X510635Y796606D01*
X512635Y795772D01*
X513635Y794106D01*
X513635Y792439D01*
X512635Y790772D01*
X510635Y789939D01*
X512635Y789106D01*
X513635Y787439D01*
X513635Y785772D01*
X512635Y784106D01*
X510635Y783272D01*
X508635Y783272D01*
X506635Y784106D01*
X505635Y785772D01*
G54D12*
X517302Y796606D02*
X522302Y783272D01*
X527302Y796606D01*
G54D12*
X530969Y794106D02*
X531969Y795772D01*
X533969Y796606D01*
X535969Y796606D01*
X537969Y795772D01*
X538969Y794106D01*
X538969Y792439D01*
X537969Y790772D01*
X535969Y789939D01*
X537969Y789106D01*
X538969Y787439D01*
X538969Y785772D01*
X537969Y784106D01*
X535969Y783272D01*
X533969Y783272D01*
X531969Y784106D01*
X530969Y785772D01*
G54D12*
X509284Y764539D02*
X513284Y764539D01*
X513284Y760372D01*
X512284Y758706D01*
X510284Y757872D01*
X508284Y757872D01*
X506284Y758706D01*
X505284Y760372D01*
X505284Y768706D01*
X506284Y770372D01*
X508284Y771206D01*
X510284Y771206D01*
X512284Y770372D01*
X513284Y768706D01*
G54D12*
X516952Y757872D02*
X516952Y771206D01*
X524952Y757872D01*
X524952Y771206D01*
G54D12*
X528618Y757872D02*
X528618Y771206D01*
X533618Y771206D01*
X535618Y770372D01*
X536618Y768706D01*
X536618Y760372D01*
X535618Y758706D01*
X533618Y757872D01*
X528618Y757872D01*
G54D12*
X505100Y734972D02*
X506100Y733306D01*
X508100Y732472D01*
X510100Y732472D01*
X512100Y733306D01*
X513100Y734972D01*
X513100Y736639D01*
X512100Y738306D01*
X510100Y739139D01*
X508100Y739139D01*
X506100Y739972D01*
X505100Y741639D01*
X505100Y743306D01*
X506100Y744972D01*
X508100Y745806D01*
X510100Y745806D01*
X512100Y744972D01*
X513100Y743306D01*
G54D12*
X524766Y734972D02*
X523766Y733306D01*
X521766Y732472D01*
X519766Y732472D01*
X517766Y733306D01*
X516766Y734972D01*
X516766Y743306D01*
X517766Y744972D01*
X519766Y745806D01*
X521766Y745806D01*
X523766Y744972D01*
X524766Y743306D01*
G54D12*
X528434Y745806D02*
X528434Y732472D01*
X535434Y732472D01*
G54D12*
X505610Y709572D02*
X506610Y707906D01*
X508610Y707072D01*
X510610Y707072D01*
X512610Y707906D01*
X513610Y709572D01*
X513610Y711239D01*
X512610Y712906D01*
X510610Y713739D01*
X508610Y713739D01*
X506610Y714572D01*
X505610Y716239D01*
X505610Y717906D01*
X506610Y719572D01*
X508610Y720406D01*
X510610Y720406D01*
X512610Y719572D01*
X513610Y717906D01*
G54D12*
X517276Y707072D02*
X517276Y720406D01*
X522276Y720406D01*
X524276Y719572D01*
X525276Y717906D01*
X525276Y709572D01*
X524276Y707906D01*
X522276Y707072D01*
X517276Y707072D01*
G54D12*
X528944Y707072D02*
X533944Y720406D01*
X538944Y707072D01*
G54D12*
X530944Y712072D02*
X536944Y712072D01*
G54D10*
X488950Y789027D02*
X488950Y795427D01*
X482650Y801727D01*
X469850Y801727D01*
X463550Y795427D01*
X463550Y782627D01*
X469850Y776327D01*
X482650Y776327D01*
X488950Y782627D01*
X488950Y789027D01*
G54D10*
X488950Y763627D02*
X488950Y770027D01*
X482650Y776327D01*
X469850Y776327D01*
X463550Y770027D01*
X463550Y757227D01*
X469850Y750927D01*
X482650Y750927D01*
X488950Y757227D01*
X488950Y763627D01*
G54D10*
X488950Y738227D02*
X488950Y744627D01*
X482650Y750927D01*
X469850Y750927D01*
X463550Y744627D01*
X463550Y731827D01*
X469850Y725527D01*
X482650Y725527D01*
X488950Y731827D01*
X488950Y738227D01*
G54D10*
X488950Y712827D02*
X488950Y719227D01*
X482650Y725527D01*
X469850Y725527D01*
X463550Y719227D01*
X463550Y706427D01*
X469850Y700127D01*
X482650Y700127D01*
X488950Y706427D01*
X488950Y712827D01*
G54D10*
X361950Y839788D02*
X368350Y839788D01*
X374650Y846088D01*
X374650Y858888D01*
X368350Y865188D01*
X355550Y865188D01*
X349250Y858888D01*
X349250Y846088D01*
X355550Y839788D01*
X361950Y839788D01*
G54D10*
X336550Y839788D02*
X342950Y839788D01*
X349250Y846088D01*
X349250Y858888D01*
X342950Y865188D01*
X330150Y865188D01*
X323850Y858888D01*
X323850Y846088D01*
X330150Y839788D01*
X336550Y839788D01*
G54D11*
X290203Y897528D02*
X290150Y897528D01*
X290150Y897572D01*
X290203Y897572D01*
X290203Y897528D01*
X290150Y897528D01*
G54D11*
X323223Y872956D02*
X323170Y872956D01*
X323170Y873000D01*
X323223Y873000D01*
X323223Y872956D01*
X323170Y872956D01*
G54D10*
X336550Y585788D02*
X342950Y585788D01*
X349250Y592088D01*
X349250Y604888D01*
X342950Y611188D01*
X330150Y611188D01*
X323850Y604888D01*
X323850Y592088D01*
X330150Y585788D01*
X336550Y585788D01*
G54D10*
X311150Y585788D02*
X317550Y585788D01*
X323850Y592088D01*
X323850Y604888D01*
X317550Y611188D01*
X304750Y611188D01*
X298450Y604888D01*
X298450Y592088D01*
X304750Y585788D01*
X311150Y585788D01*
G54D14*
X298143Y638188D02*
X297450Y638188D01*
X297450Y638765D01*
X298143Y638765D01*
X298143Y638188D01*
X297450Y638188D01*
G54D11*
X297823Y618955D02*
X297770Y618955D01*
X297770Y618999D01*
X297823Y618999D01*
X297823Y618955D01*
X297770Y618955D01*
G54D15*
X308643Y872569D02*
X308643Y880036D01*
G54D15*
X311754Y876302D02*
X305532Y876302D01*
G54D15*
X314865Y872569D02*
X314865Y880036D01*
G54D15*
X316420Y890925D02*
X316420Y883458D01*
X315643Y883458D01*
X314087Y884391D01*
X309420Y889991D01*
X307865Y890925D01*
X306309Y890925D01*
X304754Y889991D01*
X303976Y888125D01*
X303976Y886258D01*
X304754Y884391D01*
X306309Y883458D01*
G54D15*
X303976Y901814D02*
X303976Y894347D01*
X309420Y894347D01*
X309420Y895280D01*
X308643Y897147D01*
X308643Y899014D01*
X309420Y900880D01*
X310976Y901814D01*
X314087Y901814D01*
X315643Y900880D01*
X316420Y899014D01*
X316420Y897147D01*
X315643Y895280D01*
X314087Y894347D01*
G54D15*
X316420Y908845D02*
X303976Y908845D01*
X303976Y913512D01*
X304754Y915378D01*
X306309Y916312D01*
X307865Y916312D01*
X309420Y915378D01*
X310198Y913512D01*
X310198Y908845D01*
G54D15*
X310198Y919734D02*
X309420Y921601D01*
X309420Y923841D01*
X310976Y925334D01*
X316420Y925334D01*
G54D15*
X314087Y925334D02*
X312532Y924401D01*
X312220Y922534D01*
X312532Y920667D01*
X314087Y919734D01*
X315643Y920107D01*
X316420Y921601D01*
X316420Y922534D01*
X316420Y922907D01*
X315643Y924401D01*
X314087Y925334D01*
G54D15*
X316420Y928756D02*
X303976Y936223D01*
G54D15*
X316420Y939645D02*
X303976Y939645D01*
G54D15*
X311443Y939645D02*
X309887Y940578D01*
X309420Y942445D01*
X309887Y944312D01*
X311443Y945245D01*
X316420Y945245D01*
G54D15*
X388764Y872402D02*
X388764Y879869D01*
G54D15*
X385652Y876135D02*
X391875Y876135D01*
G54D15*
X394208Y890758D02*
X394208Y883291D01*
X393430Y883291D01*
X391875Y884224D01*
X387208Y889824D01*
X385652Y890758D01*
X384097Y890758D01*
X382541Y889824D01*
X381764Y887958D01*
X381764Y886091D01*
X382541Y884224D01*
X384097Y883291D01*
G54D15*
X394208Y901647D02*
X394208Y894180D01*
X393430Y894180D01*
X391875Y895113D01*
X387208Y900713D01*
X385652Y901647D01*
X384097Y901647D01*
X382541Y900713D01*
X381764Y898847D01*
X381764Y896980D01*
X382541Y895113D01*
X384097Y894180D01*
G54D15*
X382230Y908429D02*
X381764Y906936D01*
X382230Y905629D01*
X383630Y905069D01*
X385030Y905629D01*
X385497Y906936D01*
X385030Y908429D01*
X383630Y908802D01*
X382230Y908429D01*
G54D15*
X391875Y919691D02*
X393430Y918757D01*
X394208Y916891D01*
X394208Y915024D01*
X393430Y913157D01*
X391875Y912224D01*
X384097Y912224D01*
X382541Y913157D01*
X381764Y915024D01*
X381764Y916891D01*
X382541Y918757D01*
X384097Y919691D01*
G54D15*
X330458Y880839D02*
X330458Y893283D01*
X335125Y893283D01*
X336992Y892505D01*
X337925Y890950D01*
X337925Y889394D01*
X336991Y887839D01*
X335125Y887061D01*
X336991Y886283D01*
X337925Y884727D01*
X337925Y883172D01*
X336992Y881616D01*
X335125Y880839D01*
X330458Y880839D01*
G54D15*
X330458Y887061D02*
X335125Y887061D01*
G54D15*
X341347Y893283D02*
X341347Y883172D01*
X342280Y881616D01*
X344147Y880839D01*
X346014Y880839D01*
X347880Y881616D01*
X348814Y883172D01*
X348814Y893283D01*
G54D15*
X355970Y880839D02*
X355969Y893283D01*
G54D15*
X352236Y893283D02*
X359703Y893283D01*
G54D15*
X366858Y880839D02*
X366858Y893283D01*
G54D15*
X363125Y893283D02*
X370592Y893283D01*
G54D15*
X338954Y902936D02*
X341754Y901380D01*
X342687Y899825D01*
X342687Y896714D01*
G54D15*
X335221Y896714D02*
X335221Y909158D01*
X339887Y909158D01*
X341754Y908380D01*
X342687Y906825D01*
X342687Y905269D01*
X341754Y903714D01*
X339887Y902936D01*
X335221Y902936D01*
G54D15*
X346110Y899047D02*
X347043Y897491D01*
X348910Y896714D01*
X350776Y896714D01*
X352643Y897491D01*
X353576Y899047D01*
X353576Y900602D01*
X352643Y902158D01*
X350776Y902936D01*
X348910Y902936D01*
X347043Y903714D01*
X346110Y905269D01*
X346110Y906825D01*
X347043Y908380D01*
X348910Y909158D01*
X350776Y909158D01*
X352643Y908380D01*
X353576Y906825D01*
G54D15*
X360732Y896714D02*
X360732Y909158D01*
G54D15*
X356999Y909158D02*
X364465Y909158D01*
G54D15*
X184294Y869743D02*
X184294Y877210D01*
G54D15*
X181182Y873476D02*
X187405Y873476D01*
G54D15*
X189738Y888099D02*
X189738Y880632D01*
X188960Y880632D01*
X187405Y881565D01*
X182738Y887165D01*
X181182Y888099D01*
X179627Y888099D01*
X178071Y887165D01*
X177294Y885299D01*
X177294Y883432D01*
X178071Y881565D01*
X179627Y880632D01*
G54D15*
X179627Y898988D02*
X187405Y898988D01*
X188960Y898054D01*
X189738Y896188D01*
X189738Y894321D01*
X188960Y892454D01*
X187405Y891521D01*
X179627Y891521D01*
X178071Y892454D01*
X177294Y894321D01*
X177294Y896188D01*
X178071Y898054D01*
X179627Y898988D01*
G54D15*
X179627Y909877D02*
X187405Y909877D01*
X188960Y908943D01*
X189738Y907077D01*
X189738Y905210D01*
X188960Y903343D01*
X187405Y902410D01*
X179627Y902410D01*
X178071Y903343D01*
X177294Y905210D01*
X177294Y907077D01*
X178071Y908943D01*
X179627Y909877D01*
G54D15*
X189738Y916908D02*
X177294Y916908D01*
X177294Y921575D01*
X178071Y923441D01*
X179627Y924375D01*
X181182Y924375D01*
X182738Y923441D01*
X183516Y921575D01*
X183516Y916908D01*
G54D15*
X183516Y927797D02*
X182738Y929664D01*
X182738Y931904D01*
X184294Y933397D01*
X189738Y933397D01*
G54D15*
X187405Y933397D02*
X185849Y932464D01*
X185538Y930597D01*
X185849Y928730D01*
X187405Y927797D01*
X188960Y928170D01*
X189738Y929664D01*
X189738Y930597D01*
X189738Y930970D01*
X188960Y932464D01*
X187405Y933397D01*
G54D15*
X189738Y936819D02*
X177294Y944286D01*
G54D15*
X189738Y947708D02*
X177294Y947708D01*
G54D15*
X184760Y947708D02*
X183205Y948641D01*
X182738Y950508D01*
X183205Y952375D01*
X184760Y953308D01*
X189738Y953308D01*
G54D15*
X209694Y870143D02*
X209694Y877610D01*
G54D15*
X206582Y873876D02*
X212805Y873876D01*
G54D15*
X207360Y881032D02*
X202694Y885699D01*
X215138Y885699D01*
G54D15*
X202694Y896588D02*
X202694Y889121D01*
X208138Y889121D01*
X208138Y890054D01*
X207360Y891921D01*
X207360Y893788D01*
X208138Y895654D01*
X209694Y896588D01*
X212805Y896588D01*
X214360Y895654D01*
X215138Y893788D01*
X215138Y891921D01*
X214360Y890054D01*
X212805Y889121D01*
G54D15*
X205027Y907477D02*
X212805Y907477D01*
X214360Y906543D01*
X215138Y904677D01*
X215138Y902810D01*
X214360Y900943D01*
X212805Y900010D01*
X205027Y900010D01*
X203471Y900943D01*
X202694Y902810D01*
X202694Y904677D01*
X203471Y906543D01*
X205027Y907477D01*
G54D15*
X215138Y914508D02*
X202694Y914508D01*
X202694Y919175D01*
X203471Y921041D01*
X205027Y921975D01*
X206582Y921975D01*
X208138Y921041D01*
X208916Y919175D01*
X208916Y914508D01*
G54D15*
X208916Y925397D02*
X208138Y927264D01*
X208138Y929504D01*
X209694Y930997D01*
X215138Y930997D01*
G54D15*
X212805Y930997D02*
X211249Y930064D01*
X210938Y928197D01*
X211249Y926330D01*
X212805Y925397D01*
X214360Y925770D01*
X215138Y927264D01*
X215138Y928197D01*
X215138Y928570D01*
X214360Y930064D01*
X212805Y930997D01*
G54D15*
X215138Y934419D02*
X202694Y941886D01*
G54D15*
X215138Y945308D02*
X202694Y945308D01*
G54D15*
X210160Y945308D02*
X208605Y946241D01*
X208138Y948108D01*
X208605Y949975D01*
X210160Y950908D01*
X215138Y950908D01*
G54D15*
X419608Y872020D02*
X407164Y872020D01*
X407164Y876686D01*
X407941Y878553D01*
X409497Y879486D01*
X411052Y879486D01*
X412608Y878553D01*
X413386Y876686D01*
X413386Y872020D01*
G54D15*
X407164Y882908D02*
X419608Y882908D01*
X411830Y887575D01*
X419608Y892242D01*
X407164Y892242D01*
G54D15*
X413386Y899397D02*
X414941Y902197D01*
X416497Y903130D01*
X419608Y903130D01*
G54D15*
X419608Y895664D02*
X407164Y895664D01*
X407164Y900330D01*
X407941Y902197D01*
X409497Y903130D01*
X411052Y903130D01*
X412608Y902197D01*
X413386Y900330D01*
X413386Y895664D01*
G54D15*
X407164Y910162D02*
X419608Y910162D01*
X419608Y916695D01*
G54D15*
X419608Y926650D02*
X419608Y920116D01*
X407164Y920116D01*
X407164Y926650D01*
G54D15*
X413386Y920116D02*
X413386Y926650D01*
G54D15*
X419608Y930072D02*
X407164Y930072D01*
X407164Y934738D01*
X407941Y936605D01*
X409497Y937538D01*
X417275Y937538D01*
X418830Y936605D01*
X419608Y934738D01*
X419608Y930072D01*
G54D15*
X235094Y870143D02*
X235094Y877610D01*
G54D15*
X231982Y873876D02*
X238205Y873876D01*
G54D15*
X232760Y881032D02*
X228094Y885699D01*
X240538Y885699D01*
G54D15*
X230427Y896588D02*
X238205Y896588D01*
X239760Y895654D01*
X240538Y893788D01*
X240538Y891921D01*
X239760Y890054D01*
X238205Y889121D01*
X230427Y889121D01*
X228871Y890054D01*
X228094Y891921D01*
X228094Y893788D01*
X228871Y895654D01*
X230427Y896588D01*
G54D15*
X230427Y907477D02*
X238205Y907477D01*
X239760Y906543D01*
X240538Y904677D01*
X240538Y902810D01*
X239760Y900943D01*
X238205Y900010D01*
X230427Y900010D01*
X228871Y900943D01*
X228094Y902810D01*
X228094Y904677D01*
X228871Y906543D01*
X230427Y907477D01*
G54D15*
X240538Y914508D02*
X228094Y914508D01*
X228094Y919175D01*
X228871Y921041D01*
X230427Y921975D01*
X231982Y921975D01*
X233538Y921041D01*
X234316Y919175D01*
X234316Y914508D01*
G54D15*
X234316Y925397D02*
X233538Y927264D01*
X233538Y929504D01*
X235094Y930997D01*
X240538Y930997D01*
G54D15*
X238205Y930997D02*
X236649Y930064D01*
X236338Y928197D01*
X236649Y926330D01*
X238205Y925397D01*
X239760Y925770D01*
X240538Y927264D01*
X240538Y928197D01*
X240538Y928570D01*
X239760Y930064D01*
X238205Y930997D01*
G54D15*
X240538Y934419D02*
X228094Y941886D01*
G54D15*
X240538Y945308D02*
X228094Y945308D01*
G54D15*
X235560Y945308D02*
X234005Y946241D01*
X233538Y948108D01*
X234005Y949975D01*
X235560Y950908D01*
X240538Y950908D01*
G54D15*
X260494Y869712D02*
X260494Y877178D01*
G54D15*
X257382Y873445D02*
X263605Y873445D01*
G54D15*
X253494Y888067D02*
X253494Y880600D01*
X258938Y880600D01*
X258938Y881534D01*
X258160Y883400D01*
X258160Y885267D01*
X258938Y887134D01*
X260494Y888067D01*
X263605Y888067D01*
X265160Y887134D01*
X265938Y885267D01*
X265938Y883400D01*
X265160Y881534D01*
X263605Y880600D01*
G54D15*
X255827Y898956D02*
X263605Y898956D01*
X265160Y898023D01*
X265938Y896156D01*
X265938Y894290D01*
X265160Y892423D01*
X263605Y891490D01*
X255827Y891490D01*
X254271Y892423D01*
X253494Y894290D01*
X253494Y896156D01*
X254271Y898023D01*
X255827Y898956D01*
G54D15*
X265938Y905988D02*
X253494Y905988D01*
X253494Y910654D01*
X254271Y912521D01*
X255827Y913454D01*
X257382Y913454D01*
X258938Y912521D01*
X259716Y910654D01*
X259716Y905988D01*
G54D15*
X259716Y916876D02*
X258938Y918743D01*
X258938Y920983D01*
X260494Y922476D01*
X265938Y922476D01*
G54D15*
X263605Y922476D02*
X262049Y921543D01*
X261738Y919676D01*
X262049Y917810D01*
X263605Y916876D01*
X265160Y917250D01*
X265938Y918743D01*
X265938Y919676D01*
X265938Y920050D01*
X265160Y921543D01*
X263605Y922476D01*
G54D15*
X265938Y925898D02*
X253494Y933365D01*
G54D15*
X265938Y936788D02*
X253494Y936788D01*
G54D15*
X260960Y936788D02*
X259405Y937721D01*
X258938Y939588D01*
X259405Y941454D01*
X260960Y942388D01*
X265938Y942388D01*
G54D15*
X158894Y869712D02*
X158894Y877178D01*
G54D15*
X151894Y888067D02*
X151894Y880600D01*
X157338Y880600D01*
X157338Y881534D01*
X156560Y883400D01*
X156560Y885267D01*
X157338Y887134D01*
X158894Y888067D01*
X162005Y888067D01*
X163560Y887134D01*
X164338Y885267D01*
X164338Y883400D01*
X163560Y881534D01*
X162005Y880600D01*
G54D15*
X154227Y898956D02*
X162005Y898956D01*
X163560Y898023D01*
X164338Y896156D01*
X164338Y894290D01*
X163560Y892423D01*
X162005Y891490D01*
X154227Y891490D01*
X152671Y892423D01*
X151894Y894290D01*
X151894Y896156D01*
X152671Y898023D01*
X154227Y898956D01*
G54D15*
X164338Y905988D02*
X151894Y905988D01*
X151894Y910654D01*
X152671Y912521D01*
X154227Y913454D01*
X155782Y913454D01*
X157338Y912521D01*
X158116Y910654D01*
X158116Y905988D01*
G54D15*
X158116Y916876D02*
X157338Y918743D01*
X157338Y920983D01*
X158894Y922476D01*
X164338Y922476D01*
G54D15*
X162005Y922476D02*
X160449Y921543D01*
X160138Y919676D01*
X160449Y917810D01*
X162005Y916876D01*
X163560Y917250D01*
X164338Y918743D01*
X164338Y919676D01*
X164338Y920050D01*
X163560Y921543D01*
X162005Y922476D01*
G54D15*
X164338Y925898D02*
X151894Y933365D01*
G54D15*
X164338Y936788D02*
X151894Y936788D01*
G54D15*
X159360Y936788D02*
X157805Y937721D01*
X157338Y939588D01*
X157805Y941454D01*
X159360Y942388D01*
X164338Y942388D01*
G54D15*
X133811Y869834D02*
X133811Y874812D01*
G54D15*
X131478Y878234D02*
X126811Y881346D01*
X139256Y881346D01*
G54D15*
X129144Y889745D02*
X136922Y889745D01*
X138478Y889123D01*
X139256Y887879D01*
X139256Y886634D01*
X138478Y885390D01*
X136922Y884768D01*
X129144Y884768D01*
X127589Y885390D01*
X126811Y886634D01*
X126811Y887879D01*
X127589Y889123D01*
X129144Y889745D01*
G54D15*
X129144Y898145D02*
X136922Y898145D01*
X138478Y897523D01*
X139256Y896279D01*
X139256Y895034D01*
X138478Y893790D01*
X136922Y893168D01*
X129144Y893168D01*
X127589Y893790D01*
X126811Y895034D01*
X126811Y896279D01*
X127589Y897523D01*
X129144Y898145D01*
G54D15*
X139256Y905114D02*
X126811Y905114D01*
X126811Y908225D01*
X127589Y909469D01*
X129144Y910091D01*
X130700Y910091D01*
X132256Y909469D01*
X133033Y908225D01*
X133033Y905114D01*
G54D15*
X133033Y913514D02*
X132256Y914758D01*
X132256Y916251D01*
X133811Y917247D01*
X139256Y917247D01*
G54D15*
X136922Y917247D02*
X135367Y916625D01*
X135056Y915380D01*
X135367Y914136D01*
X136922Y913514D01*
X138478Y913762D01*
X139256Y914758D01*
X139256Y915380D01*
X139256Y915629D01*
X138478Y916625D01*
X136922Y917247D01*
G54D15*
X139256Y920668D02*
X126811Y925646D01*
G54D15*
X139256Y929068D02*
X126811Y929068D01*
G54D15*
X134278Y929068D02*
X132722Y929691D01*
X132256Y930935D01*
X132722Y932180D01*
X134278Y932802D01*
X139256Y932802D01*
G54D15*
X108094Y869834D02*
X108094Y874812D01*
G54D15*
X105760Y878234D02*
X101094Y881345D01*
X113538Y881345D01*
G54D15*
X101094Y889745D02*
X101094Y884767D01*
X106538Y884767D01*
X106538Y885389D01*
X105760Y886634D01*
X105760Y887878D01*
X106538Y889123D01*
X108094Y889745D01*
X111205Y889745D01*
X112760Y889123D01*
X113538Y887878D01*
X113538Y886634D01*
X112760Y885389D01*
X111205Y884767D01*
G54D15*
X103427Y898145D02*
X111205Y898145D01*
X112760Y897523D01*
X113538Y896278D01*
X113538Y895034D01*
X112760Y893789D01*
X111205Y893167D01*
X103427Y893167D01*
X101871Y893789D01*
X101094Y895034D01*
X101094Y896278D01*
X101871Y897523D01*
X103427Y898145D01*
G54D15*
X113538Y901567D02*
X101094Y901567D01*
X101094Y904678D01*
X101871Y905923D01*
X103427Y906545D01*
X104982Y906545D01*
X106538Y905923D01*
X107316Y904678D01*
X107316Y901567D01*
G54D15*
X107316Y909967D02*
X106538Y911211D01*
X106538Y912705D01*
X108094Y913700D01*
X113538Y913700D01*
G54D15*
X111205Y913700D02*
X109649Y913078D01*
X109338Y911834D01*
X109649Y910589D01*
X111205Y909967D01*
X112760Y910216D01*
X113538Y911211D01*
X113538Y911834D01*
X113538Y912083D01*
X112760Y913078D01*
X111205Y913700D01*
G54D15*
X113538Y917122D02*
X101094Y922100D01*
G54D15*
X113538Y925522D02*
X101094Y925522D01*
G54D15*
X108560Y925522D02*
X107005Y926144D01*
X106538Y927389D01*
X107005Y928633D01*
X108560Y929255D01*
X113538Y929255D01*
G54D15*
X82694Y869900D02*
X82694Y874878D01*
G54D15*
X88138Y883278D02*
X88138Y878300D01*
X87360Y878300D01*
X85805Y878923D01*
X81138Y882656D01*
X79582Y883278D01*
X78027Y883278D01*
X76471Y882656D01*
X75694Y881412D01*
X75694Y880167D01*
X76471Y878923D01*
X78027Y878300D01*
G54D15*
X78027Y891678D02*
X85805Y891678D01*
X87360Y891056D01*
X88138Y889812D01*
X88138Y888567D01*
X87360Y887323D01*
X85805Y886700D01*
X78027Y886700D01*
X76471Y887323D01*
X75694Y888567D01*
X75694Y889812D01*
X76471Y891056D01*
X78027Y891678D01*
G54D15*
X78027Y900078D02*
X85805Y900078D01*
X87360Y899456D01*
X88138Y898212D01*
X88138Y896967D01*
X87360Y895723D01*
X85805Y895100D01*
X78027Y895100D01*
X76471Y895723D01*
X75694Y896967D01*
X75694Y898212D01*
X76471Y899456D01*
X78027Y900078D01*
G54D15*
X88138Y903500D02*
X75694Y903500D01*
X75694Y906612D01*
X76471Y907856D01*
X78027Y908478D01*
X79582Y908478D01*
X81138Y907856D01*
X81916Y906612D01*
X81916Y903500D01*
G54D15*
X81916Y911900D02*
X81138Y913145D01*
X81138Y914638D01*
X82694Y915634D01*
X88138Y915634D01*
G54D15*
X85805Y915634D02*
X84249Y915012D01*
X83938Y913767D01*
X84249Y912523D01*
X85805Y911900D01*
X87360Y912149D01*
X88138Y913145D01*
X88138Y913767D01*
X88138Y914016D01*
X87360Y915012D01*
X85805Y915634D01*
G54D15*
X88138Y919056D02*
X75694Y924033D01*
G54D15*
X88138Y927456D02*
X75694Y927456D01*
G54D15*
X83160Y927456D02*
X81605Y928078D01*
X81138Y929322D01*
X81605Y930567D01*
X83160Y931189D01*
X88138Y931189D01*
G54D15*
X36021Y587686D02*
X36021Y595153D01*
G54D15*
X32910Y591419D02*
X39132Y591419D01*
G54D15*
X33688Y598575D02*
X29021Y603242D01*
X41466Y603242D01*
G54D15*
X31354Y614131D02*
X29799Y613197D01*
X29021Y611331D01*
X29021Y609464D01*
X29799Y607597D01*
X31354Y606664D01*
X35243Y606664D01*
X36021Y606664D01*
X34466Y609464D01*
X34466Y611331D01*
X35243Y613197D01*
X36799Y614131D01*
X39132Y614131D01*
X40688Y613197D01*
X41466Y611331D01*
X41466Y609464D01*
X40688Y607597D01*
X39132Y606664D01*
X35243Y606664D01*
G54D15*
X29488Y620913D02*
X29021Y619420D01*
X29488Y618113D01*
X30888Y617553D01*
X32288Y618113D01*
X32754Y619420D01*
X32288Y620913D01*
X30888Y621286D01*
X29488Y620913D01*
G54D15*
X39132Y632175D02*
X40688Y631241D01*
X41466Y629375D01*
X41466Y627508D01*
X40688Y625641D01*
X39132Y624708D01*
X31354Y624708D01*
X29799Y625641D01*
X29021Y627508D01*
X29021Y629375D01*
X29799Y631241D01*
X31354Y632175D01*
G54D15*
X60029Y623709D02*
X67496Y623709D01*
G54D15*
X63762Y626821D02*
X63762Y620598D01*
G54D15*
X70918Y626043D02*
X75585Y630709D01*
X75585Y618265D01*
G54D15*
X83674Y624487D02*
X81807Y624487D01*
X79940Y625265D01*
X79007Y626821D01*
X79007Y628376D01*
X79940Y629932D01*
X81807Y630709D01*
X83674Y630709D01*
X85540Y629932D01*
X86474Y628376D01*
X86474Y626821D01*
X85540Y625265D01*
X83674Y624487D01*
X85540Y623709D01*
X86474Y622154D01*
X86474Y620598D01*
X85540Y619043D01*
X83674Y618265D01*
X81807Y618265D01*
X79940Y619043D01*
X79007Y620598D01*
X79007Y622154D01*
X79940Y623709D01*
X81807Y624487D01*
G54D15*
X93256Y630243D02*
X91763Y630709D01*
X90456Y630243D01*
X89896Y628843D01*
X90456Y627443D01*
X91763Y626976D01*
X93256Y627443D01*
X93629Y628843D01*
X93256Y630243D01*
G54D15*
X104518Y620598D02*
X103584Y619043D01*
X101718Y618265D01*
X99851Y618265D01*
X97984Y619043D01*
X97051Y620598D01*
X97051Y628376D01*
X97984Y629932D01*
X99851Y630709D01*
X101718Y630709D01*
X103584Y629932D01*
X104518Y628376D01*
G54D15*
X130954Y585698D02*
X130954Y593165D01*
G54D15*
X127842Y589432D02*
X134065Y589432D01*
G54D15*
X136398Y604054D02*
X136398Y596588D01*
X135620Y596588D01*
X134065Y597521D01*
X129398Y603121D01*
X127842Y604054D01*
X126287Y604054D01*
X124731Y603121D01*
X123954Y601254D01*
X123954Y599388D01*
X124731Y597521D01*
X126287Y596588D01*
G54D15*
X126287Y614943D02*
X134065Y614943D01*
X135620Y614010D01*
X136398Y612143D01*
X136398Y610276D01*
X135620Y608410D01*
X134065Y607476D01*
X126287Y607476D01*
X124731Y608410D01*
X123954Y610276D01*
X123954Y612143D01*
X124731Y614010D01*
X126287Y614943D01*
G54D15*
X124420Y621726D02*
X123954Y620232D01*
X124420Y618926D01*
X125820Y618366D01*
X127220Y618926D01*
X127687Y620232D01*
X127220Y621726D01*
X125820Y622099D01*
X124420Y621726D01*
G54D15*
X134065Y632987D02*
X135620Y632054D01*
X136398Y630187D01*
X136398Y628320D01*
X135620Y626454D01*
X134065Y625520D01*
X126287Y625520D01*
X124731Y626454D01*
X123954Y628320D01*
X123954Y630187D01*
X124731Y632054D01*
X126287Y632987D01*
G54D15*
X166514Y533312D02*
X166514Y540779D01*
G54D15*
X163402Y537045D02*
X169625Y537045D01*
G54D15*
X171958Y551668D02*
X171958Y544201D01*
X171180Y544201D01*
X169625Y545134D01*
X164958Y550734D01*
X163402Y551668D01*
X161847Y551668D01*
X160291Y550734D01*
X159514Y548868D01*
X159514Y547001D01*
X160291Y545134D01*
X161847Y544201D01*
G54D15*
X171958Y560690D02*
X159514Y560690D01*
X167291Y555090D01*
X168847Y555090D01*
X168847Y562557D01*
G54D15*
X159980Y569339D02*
X159514Y567846D01*
X159980Y566539D01*
X161380Y565979D01*
X162780Y566539D01*
X163247Y567846D01*
X162780Y569339D01*
X161380Y569712D01*
X159980Y569339D01*
G54D15*
X169625Y580601D02*
X171180Y579667D01*
X171958Y577801D01*
X171958Y575934D01*
X171180Y574067D01*
X169625Y573134D01*
X161847Y573134D01*
X160291Y574067D01*
X159514Y575934D01*
X159514Y577801D01*
X160291Y579667D01*
X161847Y580601D01*
G54D15*
X216044Y533312D02*
X216044Y540779D01*
G54D15*
X212932Y537045D02*
X219155Y537045D01*
G54D15*
X221488Y551668D02*
X221488Y544201D01*
X220710Y544201D01*
X219155Y545134D01*
X214488Y550734D01*
X212932Y551668D01*
X211377Y551668D01*
X209821Y550734D01*
X209044Y548868D01*
X209044Y547001D01*
X209821Y545134D01*
X211377Y544201D01*
G54D15*
X215266Y559757D02*
X215266Y557890D01*
X214488Y556023D01*
X212932Y555090D01*
X211377Y555090D01*
X209821Y556023D01*
X209044Y557890D01*
X209044Y559757D01*
X209821Y561623D01*
X211377Y562557D01*
X212932Y562557D01*
X214488Y561623D01*
X215266Y559757D01*
X216044Y561623D01*
X217599Y562557D01*
X219155Y562557D01*
X220710Y561623D01*
X221488Y559757D01*
X221488Y557890D01*
X220710Y556023D01*
X219155Y555090D01*
X217599Y555090D01*
X216044Y556023D01*
X215266Y557890D01*
G54D15*
X209510Y569339D02*
X209044Y567846D01*
X209510Y566539D01*
X210910Y565979D01*
X212310Y566539D01*
X212777Y567846D01*
X212310Y569339D01*
X210910Y569712D01*
X209510Y569339D01*
G54D15*
X219155Y580601D02*
X220710Y579667D01*
X221488Y577801D01*
X221488Y575934D01*
X220710Y574067D01*
X219155Y573134D01*
X211377Y573134D01*
X209821Y574067D01*
X209044Y575934D01*
X209044Y577801D01*
X209821Y579667D01*
X211377Y580601D01*
G54D15*
X190644Y533312D02*
X190644Y540779D01*
G54D15*
X187532Y537045D02*
X193755Y537045D01*
G54D15*
X196088Y551668D02*
X196088Y544201D01*
X195310Y544201D01*
X193755Y545134D01*
X189088Y550734D01*
X187532Y551668D01*
X185977Y551668D01*
X184421Y550734D01*
X183644Y548868D01*
X183644Y547001D01*
X184421Y545134D01*
X185977Y544201D01*
G54D15*
X185977Y562557D02*
X184421Y561623D01*
X183644Y559757D01*
X183644Y557890D01*
X184421Y556023D01*
X185977Y555090D01*
X189866Y555090D01*
X190644Y555090D01*
X189088Y557890D01*
X189088Y559757D01*
X189866Y561623D01*
X191421Y562557D01*
X193755Y562557D01*
X195310Y561623D01*
X196088Y559757D01*
X196088Y557890D01*
X195310Y556023D01*
X193755Y555090D01*
X189866Y555090D01*
G54D15*
X184110Y569339D02*
X183644Y567846D01*
X184110Y566539D01*
X185510Y565979D01*
X186910Y566539D01*
X187377Y567846D01*
X186910Y569339D01*
X185510Y569712D01*
X184110Y569339D01*
G54D15*
X193755Y580601D02*
X195310Y579667D01*
X196088Y577801D01*
X196088Y575934D01*
X195310Y574067D01*
X193755Y573134D01*
X185977Y573134D01*
X184421Y574067D01*
X183644Y575934D01*
X183644Y577801D01*
X184421Y579667D01*
X185977Y580601D01*
G54D16*
X496571Y809932D02*
X496571Y826821D01*
X502904Y826821D01*
X505437Y825765D01*
X506704Y823654D01*
X506704Y821543D01*
X505437Y819432D01*
X502904Y818376D01*
X505437Y817321D01*
X506704Y815210D01*
X506704Y813099D01*
X505437Y810988D01*
X502904Y809932D01*
X496571Y809932D01*
G54D16*
X496571Y818376D02*
X502904Y818376D01*
G54D16*
X511348Y809932D02*
X511348Y826821D01*
X517681Y816265D01*
X524014Y826821D01*
X524014Y809932D01*
G54D16*
X528659Y809932D02*
X528659Y826821D01*
X534992Y826821D01*
X537525Y825765D01*
X538792Y823654D01*
X538792Y821543D01*
X537525Y819432D01*
X534992Y818376D01*
X528659Y818376D01*
G54D16*
X543436Y820488D02*
X549769Y826821D01*
X549769Y809932D01*
G54D16*
X560746Y818376D02*
X558213Y818376D01*
X555679Y819432D01*
X554413Y821543D01*
X554413Y823654D01*
X555679Y825765D01*
X558213Y826821D01*
X560746Y826821D01*
X563279Y825765D01*
X564546Y823654D01*
X564546Y821543D01*
X563279Y819432D01*
X560746Y818376D01*
X563279Y817321D01*
X564546Y815210D01*
X564546Y813099D01*
X563279Y810988D01*
X560746Y809932D01*
X558213Y809932D01*
X555679Y810988D01*
X554413Y813099D01*
X554413Y815210D01*
X555679Y817321D01*
X558213Y818376D01*
G54D16*
X579323Y823654D02*
X579323Y813099D01*
X578056Y810988D01*
X575523Y809932D01*
X572990Y809932D01*
X570456Y810988D01*
X569190Y813099D01*
X569190Y823654D01*
X570456Y825765D01*
X572990Y826821D01*
X575523Y826821D01*
X578056Y825765D01*
X579323Y823654D01*
G54D10*
X412750Y566738D02*
X419150Y566738D01*
X425450Y573038D01*
X425450Y585838D01*
X419150Y592138D01*
X406350Y592138D01*
X400050Y585838D01*
X400050Y573038D01*
X406350Y566738D01*
X412750Y566738D01*
G54D10*
X387350Y566738D02*
X393750Y566738D01*
X400050Y573038D01*
X400050Y585838D01*
X393750Y592138D01*
X380950Y592138D01*
X374650Y585838D01*
X374650Y573038D01*
X380950Y566738D01*
X387350Y566738D01*
G54D11*
X374023Y619407D02*
X373970Y619407D01*
X373970Y619451D01*
X374023Y619451D01*
X374023Y619407D01*
X373970Y619407D01*
G54D11*
X374023Y599907D02*
X373970Y599907D01*
X373970Y599951D01*
X374023Y599951D01*
X374023Y599907D01*
X373970Y599907D01*
G54D12*
X405449Y519916D02*
X418782Y524916D01*
X405449Y529916D01*
G54D12*
X411782Y538583D02*
X411282Y536583D01*
X411782Y534583D01*
X413449Y533583D01*
X416782Y533583D01*
X418449Y534583D01*
X418782Y536583D01*
X418449Y538583D01*
G54D12*
X411782Y547250D02*
X411282Y545250D01*
X411782Y543250D01*
X413449Y542250D01*
X416782Y542250D01*
X418449Y543250D01*
X418782Y545250D01*
X418449Y547250D01*
G54D12*
X386716Y524239D02*
X386716Y528239D01*
X390882Y528239D01*
X392549Y527239D01*
X393382Y525239D01*
X393382Y523239D01*
X392549Y521239D01*
X390882Y520239D01*
X382549Y520239D01*
X380882Y521239D01*
X380049Y523239D01*
X380049Y525239D01*
X380882Y527239D01*
X382549Y528239D01*
G54D12*
X393382Y531906D02*
X380049Y531906D01*
X393382Y539906D01*
X380049Y539906D01*
G54D12*
X393382Y543573D02*
X380049Y543573D01*
X380049Y548573D01*
X380882Y550573D01*
X382549Y551573D01*
X390882Y551573D01*
X392549Y550573D01*
X393382Y548573D01*
X393382Y543573D01*
G54D15*
X468075Y882426D02*
X469630Y883360D01*
X470408Y885226D01*
X470408Y887093D01*
X469630Y888960D01*
X468075Y889893D01*
X466519Y889893D01*
X464964Y888960D01*
X464186Y887093D01*
X464186Y885226D01*
X463408Y883360D01*
X461852Y882426D01*
X460297Y882426D01*
X458741Y883360D01*
X457964Y885226D01*
X457964Y887093D01*
X458741Y888960D01*
X460297Y889893D01*
G54D15*
X470408Y893316D02*
X470408Y900782D01*
G54D15*
X470408Y897049D02*
X457964Y897049D01*
G54D15*
X457964Y893316D02*
X457964Y900782D01*
G54D15*
X464186Y907938D02*
X464186Y911671D01*
X468075Y911671D01*
X469630Y910738D01*
X470408Y908871D01*
X470408Y907004D01*
X469630Y905138D01*
X468075Y904204D01*
X460297Y904204D01*
X458741Y905138D01*
X457964Y907004D01*
X457964Y908871D01*
X458741Y910738D01*
X460297Y911671D01*
G54D15*
X470408Y915094D02*
X457964Y915094D01*
X470408Y922560D01*
X457964Y922560D01*
G54D15*
X470408Y925982D02*
X457964Y930649D01*
X470408Y935316D01*
G54D15*
X465741Y927849D02*
X465741Y933449D01*
G54D15*
X457964Y938738D02*
X470408Y938738D01*
X470408Y945271D01*
G54D10*
X438150Y865187D02*
X431750Y865187D01*
X425450Y858887D01*
X425450Y846087D01*
X431750Y839787D01*
X444550Y839787D01*
X450850Y846087D01*
X450850Y858887D01*
X444550Y865187D01*
X438150Y865187D01*
G54D10*
X463550Y865187D02*
X457150Y865187D01*
X450850Y858887D01*
X450850Y846087D01*
X457150Y839787D01*
X469950Y839787D01*
X476250Y846088D01*
X476250Y858888D01*
X469950Y865188D01*
X463550Y865187D01*
G54D11*
X476930Y812476D02*
X476877Y812476D01*
X476877Y812521D01*
X476930Y812521D01*
X476930Y812476D01*
X476877Y812476D01*
G54D11*
X476930Y831976D02*
X476877Y831976D01*
X476877Y832021D01*
X476930Y832021D01*
X476930Y831976D01*
X476877Y831976D01*
G54D15*
X490364Y879785D02*
X490364Y887252D01*
G54D15*
X487252Y883518D02*
X493475Y883518D01*
G54D15*
X483364Y898141D02*
X483364Y890674D01*
X488808Y890674D01*
X488808Y891607D01*
X488030Y893474D01*
X488030Y895341D01*
X488808Y897207D01*
X490364Y898141D01*
X493475Y898141D01*
X495030Y897207D01*
X495808Y895341D01*
X495808Y893474D01*
X495030Y891607D01*
X493475Y890674D01*
G54D15*
X483364Y901563D02*
X495808Y906230D01*
X483364Y910896D01*
G54D15*
X438786Y883792D02*
X438786Y887525D01*
X442675Y887525D01*
X444230Y886592D01*
X445008Y884725D01*
X445008Y882858D01*
X444230Y880992D01*
X442675Y880058D01*
X434897Y880058D01*
X433341Y880992D01*
X432564Y882858D01*
X432564Y884725D01*
X433341Y886592D01*
X434897Y887525D01*
G54D15*
X445008Y890948D02*
X432564Y890948D01*
X445008Y898414D01*
X432564Y898414D01*
G54D15*
X445008Y901836D02*
X432564Y901836D01*
X432564Y906503D01*
X433341Y908370D01*
X434897Y909303D01*
X442675Y909303D01*
X444230Y908370D01*
X445008Y906503D01*
X445008Y901836D01*
G54D10*
X488950Y839788D02*
X495350Y839788D01*
X501650Y846088D01*
X501650Y858888D01*
X495350Y865188D01*
X482550Y865188D01*
X476250Y858888D01*
X476250Y846088D01*
X482550Y839788D01*
X488950Y839788D01*
G54D10*
X463550Y839788D02*
X469950Y839788D01*
X476250Y846088D01*
X476250Y858888D01*
X469950Y865188D01*
X457150Y865188D01*
X450850Y858888D01*
X450850Y846088D01*
X457150Y839788D01*
X463550Y839788D01*
G54D11*
X442603Y903882D02*
X442550Y903882D01*
X442550Y903927D01*
X442603Y903927D01*
X442603Y903882D01*
X442550Y903882D01*
G54D11*
X450223Y872954D02*
X450170Y872954D01*
X450170Y872999D01*
X450223Y872999D01*
X450223Y872954D01*
X450170Y872954D01*
G54D10*
X82550Y865188D02*
X76150Y865188D01*
X69850Y858888D01*
X69850Y846088D01*
X76150Y839788D01*
X88950Y839788D01*
X95250Y846088D01*
X95250Y858888D01*
X88950Y865188D01*
X82550Y865188D01*
G54D10*
X107950Y865188D02*
X101550Y865188D01*
X95250Y858888D01*
X95250Y846088D01*
X101550Y839788D01*
X114350Y839788D01*
X120650Y846088D01*
X120650Y858888D01*
X114350Y865188D01*
X107950Y865188D01*
G54D10*
X133350Y865188D02*
X126950Y865188D01*
X120650Y858888D01*
X120650Y846088D01*
X126950Y839788D01*
X139750Y839788D01*
X146050Y846088D01*
X146050Y858888D01*
X139750Y865188D01*
X133350Y865188D01*
G54D10*
X158750Y865188D02*
X152350Y865188D01*
X146050Y858888D01*
X146050Y846088D01*
X152350Y839788D01*
X165150Y839788D01*
X171450Y846088D01*
X171450Y858888D01*
X165150Y865188D01*
X158750Y865188D01*
G54D10*
X184150Y865188D02*
X177750Y865188D01*
X171450Y858888D01*
X171450Y846088D01*
X177750Y839788D01*
X190550Y839788D01*
X196850Y846088D01*
X196850Y858888D01*
X190550Y865188D01*
X184150Y865188D01*
G54D10*
X209550Y865188D02*
X203150Y865188D01*
X196850Y858888D01*
X196850Y846088D01*
X203150Y839788D01*
X215950Y839788D01*
X222250Y846088D01*
X222250Y858888D01*
X215950Y865188D01*
X209550Y865188D01*
G54D10*
X234950Y865188D02*
X228550Y865188D01*
X222250Y858888D01*
X222250Y846088D01*
X228550Y839788D01*
X241350Y839788D01*
X247650Y846088D01*
X247650Y858888D01*
X241350Y865188D01*
X234950Y865188D01*
G54D10*
X260350Y865188D02*
X253950Y865188D01*
X247650Y858888D01*
X247650Y846088D01*
X253950Y839788D01*
X266750Y839788D01*
X273050Y846088D01*
X273050Y858888D01*
X266750Y865188D01*
X260350Y865188D01*
G54D11*
X73033Y892770D02*
X72980Y892770D01*
X72980Y892814D01*
X73033Y892814D01*
X73033Y892770D01*
X72980Y892770D01*
G54D11*
X69223Y872954D02*
X69170Y872954D01*
X69170Y872999D01*
X69223Y872999D01*
X69223Y872954D01*
X69170Y872954D01*
G54D10*
X57150Y611188D02*
X50750Y611188D01*
X44450Y604888D01*
X44450Y592088D01*
X50750Y585788D01*
X63550Y585788D01*
X69850Y592088D01*
X69850Y604888D01*
X63550Y611188D01*
X57150Y611188D01*
G54D10*
X82550Y611188D02*
X76150Y611188D01*
X69850Y604888D01*
X69850Y592088D01*
X76150Y585788D01*
X88950Y585788D01*
X95250Y592088D01*
X95250Y604888D01*
X88950Y611188D01*
X82550Y611188D01*
G54D10*
X107950Y611188D02*
X101550Y611188D01*
X95250Y604888D01*
X95250Y592088D01*
X101550Y585788D01*
X114350Y585788D01*
X120650Y592088D01*
X120650Y604888D01*
X114350Y611188D01*
X107950Y611188D01*
G54D11*
X43823Y638454D02*
X43770Y638454D01*
X43770Y638499D01*
X43823Y638499D01*
X43823Y638454D01*
X43770Y638454D01*
G54D11*
X43823Y618954D02*
X43770Y618954D01*
X43770Y618999D01*
X43823Y618999D01*
X43823Y618954D01*
X43770Y618954D01*
G54D10*
X158750Y611188D02*
X152350Y611188D01*
X146050Y604888D01*
X146050Y592088D01*
X152350Y585788D01*
X165150Y585788D01*
X171450Y592088D01*
X171450Y604888D01*
X165150Y611188D01*
X158750Y611188D01*
G54D10*
X184150Y611188D02*
X177750Y611188D01*
X171450Y604888D01*
X171450Y592088D01*
X177750Y585788D01*
X190550Y585788D01*
X196850Y592088D01*
X196850Y604888D01*
X190550Y611188D01*
X184150Y611188D01*
G54D10*
X209550Y611188D02*
X203150Y611188D01*
X196850Y604888D01*
X196850Y592088D01*
X203150Y585788D01*
X215950Y585788D01*
X222250Y592088D01*
X222250Y604888D01*
X215950Y611188D01*
X209550Y611188D01*
G54D14*
X145743Y638188D02*
X145050Y638188D01*
X145050Y638765D01*
X145743Y638765D01*
X145743Y638188D01*
X145050Y638188D01*
G54D11*
X145423Y618954D02*
X145370Y618954D01*
X145370Y618999D01*
X145423Y618999D01*
X145423Y618954D01*
X145370Y618954D01*
G54D10*
X88950Y865188D02*
X165150Y865188D01*
G54D10*
X76150Y839788D02*
X165150Y839788D01*
G54D10*
X177750Y865188D02*
X266750Y865188D01*
G54D10*
X266750Y839788D02*
X177750Y839788D01*
G54D10*
X330150Y865188D02*
X368350Y865188D01*
G54D10*
X368350Y839788D02*
X330150Y839788D01*
G54D10*
X431750Y865187D02*
X495350Y865188D01*
G54D10*
X495350Y839788D02*
X431750Y839787D01*
G54D10*
X463550Y788988D02*
X463550Y706427D01*
G54D10*
X488950Y706427D02*
X488950Y795427D01*
G54D10*
X419150Y814388D02*
X50750Y814388D01*
G54D10*
X50750Y788988D02*
X419150Y788988D01*
G54D10*
X50750Y611188D02*
X114350Y611188D01*
G54D10*
X50750Y585788D02*
X114350Y585788D01*
G54D10*
X152350Y611188D02*
X215950Y611188D01*
G54D10*
X215950Y585788D02*
X152350Y585788D01*
G54D10*
X304750Y611188D02*
X342950Y611188D01*
G54D10*
X342950Y585788D02*
X304750Y585788D01*
G54D10*
X380950Y566738D02*
X419150Y566738D01*
G54D10*
X380950Y592138D02*
X419150Y592138D01*
G54D10*
X50750Y661988D02*
X419150Y661988D01*
G54D10*
X419150Y636588D02*
X50750Y636588D01*
G54D17*
X137350Y509788D02*
X147350Y509788D01*
X147350Y559788D01*
X137350Y559788D01*
G54D17*
X137350Y559788D02*
X137350Y579788D01*
G54D17*
X137350Y509788D02*
X137350Y489788D01*
G54D17*
X137350Y579788D02*
X7350Y579788D01*
X7350Y489788D01*
X137350Y489788D01*
G54D17*
X37350Y579788D02*
X37350Y489788D01*
G54D17*
X137350Y569788D02*
X37350Y569788D01*
G54D17*
X137350Y499788D02*
X37350Y499788D01*
G54D18*
X113920Y503720D02*
X113920Y504609D01*
X114143Y504609D01*
X114232Y504553D01*
X114276Y504442D01*
X114276Y503887D01*
X114232Y503776D01*
X114143Y503720D01*
X113920Y503720D01*
G54D18*
X114810Y503887D02*
X114766Y503776D01*
X114677Y503720D01*
X114588Y503720D01*
X114499Y503776D01*
X114454Y503887D01*
X114454Y504442D01*
X114499Y504553D01*
X114588Y504609D01*
X114677Y504609D01*
X114766Y504553D01*
X114810Y504442D01*
G54D18*
X115264Y504387D02*
X115264Y504387D01*
G54D18*
X115176Y503498D02*
X115220Y503498D01*
X115264Y503587D01*
X115264Y504220D01*
G54D18*
X115442Y504164D02*
X115531Y504220D01*
X115638Y504220D01*
X115709Y504109D01*
X115709Y503720D01*
G54D18*
X115709Y503887D02*
X115665Y503998D01*
X115576Y504020D01*
X115487Y503998D01*
X115442Y503887D01*
X115460Y503776D01*
X115531Y503720D01*
X115576Y503720D01*
X115594Y503720D01*
X115665Y503776D01*
X115709Y503887D01*
G54D18*
X116110Y504187D02*
X116021Y504220D01*
X115932Y504187D01*
X115888Y504076D01*
X115888Y503853D01*
X115932Y503742D01*
X116021Y503720D01*
X116110Y503742D01*
G54D18*
X116288Y503720D02*
X116288Y504609D01*
G54D18*
X116421Y504053D02*
X116554Y503720D01*
G54D18*
X116288Y503942D02*
X116554Y504220D01*
G54D18*
X116920Y504442D02*
X116964Y504553D01*
X117053Y504609D01*
X117142Y504609D01*
X117231Y504553D01*
X117275Y504442D01*
X117275Y504331D01*
X117231Y504220D01*
X117142Y504164D01*
X117231Y504109D01*
X117275Y503998D01*
X117275Y503887D01*
X117231Y503776D01*
X117142Y503720D01*
X117053Y503720D01*
X116964Y503776D01*
X116920Y503887D01*
G54D18*
X117809Y504442D02*
X117809Y503887D01*
X117765Y503776D01*
X117676Y503720D01*
X117587Y503720D01*
X117498Y503776D01*
X117454Y503887D01*
X117454Y504442D01*
X117498Y504553D01*
X117587Y504609D01*
X117676Y504609D01*
X117765Y504553D01*
X117809Y504442D01*
G54D18*
X117988Y504276D02*
X118210Y504609D01*
X118210Y503720D01*
G54D18*
X118743Y504442D02*
X118699Y504553D01*
X118610Y504609D01*
X118521Y504609D01*
X118432Y504553D01*
X118388Y504442D01*
X118388Y504164D01*
X118388Y504109D01*
X118521Y504220D01*
X118610Y504220D01*
X118699Y504164D01*
X118743Y504053D01*
X118743Y503887D01*
X118699Y503776D01*
X118610Y503720D01*
X118521Y503720D01*
X118432Y503776D01*
X118388Y503887D01*
X118388Y504164D01*
G54D17*
X84850Y547988D02*
X84850Y521988D01*
X80850Y521988D01*
X80850Y547988D01*
X84850Y547988D01*
G54D17*
X144350Y547988D02*
X144350Y521988D01*
X140350Y521988D01*
X140350Y547988D01*
X144350Y547988D01*
G54D17*
X130850Y482988D02*
X104850Y482988D01*
X104850Y486988D01*
X130850Y486988D01*
X130850Y482988D01*
G54D18*
X151306Y533931D02*
X151661Y533931D01*
G54D18*
X151483Y534153D02*
X151483Y533709D01*
G54D18*
X90306Y535331D02*
X90661Y535331D01*
G54D10*
X298416Y544303D02*
X298416Y541103D01*
X279416Y541103D01*
X279416Y544303D01*
X298416Y544303D01*
G54D10*
G75*
G01X317516Y544304D02*
G03X317516Y544304I-28600J0D01*
G01*
G54D10*
X273016Y531603D02*
X266716Y531603D01*
G54D10*
X269816Y534803D02*
X269816Y528403D01*
G54D10*
X298416Y547503D02*
X279416Y547503D01*
G54D19*
X656602Y923842D02*
X656602Y946953D01*
X665269Y932509D01*
X673936Y946953D01*
X673936Y923842D01*
G54D19*
X690692Y925287D02*
X687918Y923842D01*
X684452Y923842D01*
X680985Y925287D01*
X680292Y928176D01*
X680292Y933087D01*
X682025Y935976D01*
X685492Y936842D01*
X688958Y935976D01*
X690692Y933953D01*
X690692Y931064D01*
X680292Y931064D01*
G54D19*
X700514Y946953D02*
X700514Y925287D01*
X702248Y923842D01*
X703981Y924420D01*
G54D19*
X697048Y936842D02*
X703981Y936842D01*
G54D19*
X720736Y925287D02*
X717963Y923842D01*
X714496Y923842D01*
X711030Y925287D01*
X710336Y928176D01*
X710336Y933087D01*
X712070Y935976D01*
X715536Y936842D01*
X719003Y935976D01*
X720736Y933953D01*
X720736Y931064D01*
X710336Y931064D01*
G54D19*
X737492Y927309D02*
X737492Y933087D01*
X735759Y935976D01*
X732292Y936842D01*
X728826Y935976D01*
X727092Y933087D01*
X727092Y927309D01*
X728826Y924420D01*
X732292Y923842D01*
X735759Y924420D01*
X737492Y927309D01*
G54D19*
X743848Y923842D02*
X743848Y946953D01*
X752515Y946953D01*
X755982Y945509D01*
X757715Y942620D01*
X757715Y939731D01*
X755982Y936842D01*
X752515Y935398D01*
X755982Y933953D01*
X757715Y931064D01*
X757715Y928176D01*
X755982Y925287D01*
X752515Y923842D01*
X743848Y923842D01*
G54D19*
X743848Y935398D02*
X752515Y935398D01*
G54D19*
X774472Y927309D02*
X774472Y933087D01*
X772738Y935976D01*
X769272Y936842D01*
X765805Y935976D01*
X764072Y933087D01*
X764072Y927309D01*
X765805Y924420D01*
X769272Y923842D01*
X772738Y924420D01*
X774472Y927309D01*
G54D19*
X780828Y936842D02*
X794694Y923842D01*
G54D19*
X780828Y923842D02*
X794694Y936842D01*
G54D19*
X807754Y936842D02*
X814687Y923842D01*
X821620Y936842D01*
G54D19*
X827976Y938287D02*
X836643Y946953D01*
X836643Y923842D01*
G54D19*
X844386Y923842D02*
X843000Y923842D01*
X843000Y924998D01*
X844386Y924998D01*
X844386Y923842D01*
X843000Y923842D01*
G54D19*
X864609Y942620D02*
X864609Y928176D01*
X862876Y925287D01*
X859409Y923842D01*
X855942Y923842D01*
X852476Y925287D01*
X850742Y928176D01*
X850742Y942620D01*
X852476Y945509D01*
X855942Y946953D01*
X859409Y946953D01*
X862876Y945509D01*
X864609Y942620D01*
G54D20*
X655376Y449143D02*
X657243Y446032D01*
X660976Y444476D01*
X664710Y444476D01*
X668443Y446032D01*
X670310Y449143D01*
X670310Y452254D01*
X668443Y455365D01*
X664710Y456921D01*
X660976Y456921D01*
X657243Y458476D01*
X655376Y461588D01*
X655376Y464699D01*
X657243Y467810D01*
X660976Y469365D01*
X664710Y469365D01*
X668443Y467810D01*
X670310Y464699D01*
G54D20*
X677154Y444476D02*
X677154Y469365D01*
G54D20*
X677154Y454432D02*
X679020Y457543D01*
X682754Y458476D01*
X686487Y457543D01*
X688354Y454432D01*
X688354Y444476D01*
G54D20*
X704531Y457543D02*
X700798Y458476D01*
X697064Y457543D01*
X695198Y454432D01*
X695198Y448210D01*
X697064Y445099D01*
X700798Y444476D01*
X704531Y445099D01*
G54D20*
X711374Y444476D02*
X711374Y469365D01*
G54D20*
X711374Y454432D02*
X713241Y457543D01*
X716974Y458476D01*
X720708Y457543D01*
X722574Y454432D01*
X722574Y444476D01*
G54D20*
X740618Y458476D02*
X740618Y444476D01*
G54D20*
X740618Y447588D02*
X738752Y445099D01*
X735018Y444476D01*
X731285Y445099D01*
X729418Y447588D01*
X729418Y458476D01*
G54D20*
X747462Y444476D02*
X747462Y469365D01*
G54D20*
X753062Y453810D02*
X758662Y444476D01*
G54D20*
X747462Y450699D02*
X758662Y458476D01*
G54D20*
X776706Y448210D02*
X776706Y454432D01*
X774840Y457543D01*
X771106Y458476D01*
X767373Y457543D01*
X765506Y454432D01*
X765506Y448210D01*
X767373Y445099D01*
X771106Y444476D01*
X774840Y445099D01*
X776706Y448210D01*
G54D20*
X791017Y444476D02*
X791017Y469365D01*
G54D20*
X783550Y469365D02*
X798484Y469365D01*
G54D20*
X816528Y446032D02*
X813541Y444476D01*
X809808Y444476D01*
X806074Y446032D01*
X805328Y449143D01*
X805328Y454432D01*
X807194Y457543D01*
X810928Y458476D01*
X814661Y457543D01*
X816528Y455365D01*
X816528Y452254D01*
X805328Y452254D01*
G54D20*
X832705Y457543D02*
X828972Y458476D01*
X825238Y457543D01*
X823372Y454432D01*
X823372Y448210D01*
X825238Y445099D01*
X828972Y444476D01*
X832705Y445099D01*
G54D20*
X839548Y444476D02*
X839548Y469365D01*
G54D20*
X839548Y454432D02*
X841415Y457543D01*
X845148Y458476D01*
X848882Y457543D01*
X850748Y454432D01*
X850748Y444476D01*
G54D16*
X656391Y952409D02*
X656391Y968242D01*
X657657Y969298D01*
X658924Y968664D01*
G54D16*
X653857Y961909D02*
X658924Y961909D01*
G54D16*
X671168Y954942D02*
X671168Y959164D01*
X669902Y961276D01*
X667368Y961909D01*
X664835Y961276D01*
X663568Y959164D01*
X663568Y954942D01*
X664835Y952831D01*
X667368Y952409D01*
X669902Y952831D01*
X671168Y954942D01*
G54D16*
X675812Y952409D02*
X675812Y961909D01*
G54D16*
X675812Y959798D02*
X678346Y961909D01*
X680879Y961909D01*
G54D16*
X690420Y955576D02*
X691687Y953464D01*
X694220Y952409D01*
X696754Y952409D01*
X699287Y953464D01*
X700554Y955576D01*
X700554Y957687D01*
X699287Y959798D01*
X696754Y960853D01*
X694220Y960853D01*
X691687Y961909D01*
X690420Y964020D01*
X690420Y966131D01*
X691687Y968242D01*
X694220Y969298D01*
X696754Y969298D01*
X699287Y968242D01*
X700554Y966131D01*
G54D16*
X705197Y960853D02*
X707730Y961909D01*
X710770Y961909D01*
X712797Y959798D01*
X712797Y952409D01*
G54D16*
X712797Y955576D02*
X711530Y957687D01*
X708997Y958109D01*
X706464Y957687D01*
X705197Y955576D01*
X705704Y953464D01*
X707730Y952409D01*
X708997Y952409D01*
X709504Y952409D01*
X711530Y953464D01*
X712797Y955576D01*
G54D16*
X717441Y953464D02*
X719974Y952409D01*
X722508Y952409D01*
X725041Y953464D01*
X725041Y955576D01*
X723774Y956631D01*
X718708Y957687D01*
X717441Y958742D01*
X717441Y960853D01*
X719974Y961909D01*
X722508Y961909D01*
X725041Y960853D01*
G54D16*
X729685Y952409D02*
X729685Y969298D01*
G54D16*
X729685Y959164D02*
X730952Y961276D01*
X733485Y961909D01*
X736019Y961276D01*
X737285Y959164D01*
X737285Y952409D01*
G54D16*
X741929Y960853D02*
X744463Y961909D01*
X747503Y961909D01*
X749529Y959798D01*
X749529Y952409D01*
G54D16*
X749529Y955576D02*
X748263Y957687D01*
X745729Y958109D01*
X743196Y957687D01*
X741929Y955576D01*
X742436Y953464D01*
X744463Y952409D01*
X745729Y952409D01*
X746236Y952409D01*
X748263Y953464D01*
X749529Y955576D01*
G54D16*
X759070Y969298D02*
X765404Y952409D01*
X771737Y969298D01*
G54D16*
X776381Y960853D02*
X778915Y961909D01*
X781955Y961909D01*
X783981Y959798D01*
X783981Y952409D01*
G54D16*
X783981Y955576D02*
X782715Y957687D01*
X780181Y958109D01*
X777648Y957687D01*
X776381Y955576D01*
X776888Y953464D01*
X778915Y952409D01*
X780181Y952409D01*
X780688Y952409D01*
X782715Y953464D01*
X783981Y955576D01*
G54D16*
X788625Y952409D02*
X788625Y969298D01*
G54D16*
X800869Y953464D02*
X798843Y952409D01*
X796309Y952409D01*
X793776Y953464D01*
X793269Y955576D01*
X793269Y959164D01*
X794536Y961276D01*
X797069Y961909D01*
X799603Y961276D01*
X800869Y959798D01*
X800869Y957687D01*
X793269Y957687D01*
G54D16*
X808047Y969298D02*
X808047Y953464D01*
X809313Y952409D01*
X810580Y952831D01*
G54D16*
X805513Y961909D02*
X810580Y961909D01*
G54D16*
X822824Y954942D02*
X822824Y959164D01*
X821558Y961276D01*
X819024Y961909D01*
X816491Y961276D01*
X815224Y959164D01*
X815224Y954942D01*
X816491Y952831D01*
X819024Y952409D01*
X821558Y952831D01*
X822824Y954942D01*
G54D16*
X827468Y961909D02*
X832535Y952409D01*
X837602Y961909D01*
G54D16*
X842245Y960853D02*
X844779Y961909D01*
X847819Y961909D01*
X849845Y959798D01*
X849845Y952409D01*
G54D16*
X849845Y955576D02*
X848579Y957687D01*
X846045Y958109D01*
X843512Y957687D01*
X842245Y955576D01*
X842752Y953464D01*
X844779Y952409D01*
X846045Y952409D01*
X846552Y952409D01*
X848579Y953464D01*
X849845Y955576D01*
G54D10*
X60027Y615213D02*
X104404Y615240D01*
G54D21*
X285750Y725488D02*
X425450Y725488D01*
G54D21*
X438190Y763627D02*
X438150Y808038D01*
G54D21*
X285750Y700088D02*
X425450Y700088D01*
G54D21*
X425450Y674688D02*
X361950Y674688D01*
G54D21*
X285750Y827088D02*
X463550Y827088D01*
G54D12*
X517525Y599255D02*
X522525Y585922D01*
X527525Y599255D01*
G54D12*
X536192Y592922D02*
X534192Y593422D01*
X532192Y592922D01*
X531192Y591255D01*
X531192Y587922D01*
X532192Y586255D01*
X534192Y585922D01*
X536192Y586255D01*
G54D12*
X544859Y592922D02*
X542859Y593422D01*
X540859Y592922D01*
X539859Y591255D01*
X539859Y587922D01*
X540859Y586255D01*
X542859Y585922D01*
X544859Y586255D01*
G54D12*
X499089Y564985D02*
X500089Y563318D01*
X502089Y562485D01*
X504089Y562485D01*
X506089Y563318D01*
X507089Y564985D01*
X507089Y566651D01*
X506089Y568318D01*
X504089Y569151D01*
X502089Y569151D01*
X500089Y569985D01*
X499089Y571651D01*
X499089Y573318D01*
X500089Y574985D01*
X502089Y575818D01*
X504089Y575818D01*
X506089Y574985D01*
X507089Y573318D01*
G54D12*
X510756Y575818D02*
X510756Y562485D01*
X515756Y570818D01*
X520756Y562485D01*
X520756Y575818D01*
G54D12*
X524423Y562485D02*
X532423Y562485D01*
G54D12*
X528423Y562485D02*
X528423Y575818D01*
G54D12*
X524423Y575818D02*
X532423Y575818D01*
G54D12*
X540090Y562485D02*
X540090Y575818D01*
G54D12*
X536090Y575818D02*
X544090Y575818D01*
G54D12*
X555757Y564985D02*
X554757Y563318D01*
X552757Y562485D01*
X550757Y562485D01*
X548757Y563318D01*
X547757Y564985D01*
X547757Y573318D01*
X548757Y574985D01*
X550757Y575818D01*
X552757Y575818D01*
X554757Y574985D01*
X555757Y573318D01*
G54D12*
X559424Y562485D02*
X559424Y575818D01*
G54D12*
X567424Y562485D02*
X567424Y575818D01*
G54D12*
X559424Y569151D02*
X567424Y569151D01*
G54D10*
X463550Y674688D02*
X463550Y598488D01*
G54D10*
X488950Y674688D02*
X463550Y674688D01*
G54D10*
X488950Y598488D02*
X488950Y674688D01*
G54D10*
X463550Y598488D02*
X488950Y598488D01*
G54D10*
X488950Y649288D02*
X463550Y649288D01*
G54D10*
X488931Y624088D02*
X463531Y624088D01*
G54D10*
G75*
G01X108584Y432988D02*
G03X108584Y467988I0J17500D01*
G01*
G54D10*
X108789Y467680D02*
X108789Y432881D01*
G54D10*
X72305Y450646D02*
X108691Y459899D01*
G54D10*
X107784Y441671D02*
X72241Y450386D01*
G54D10*
X108364Y444098D02*
X95976Y456486D01*
G54D10*
X100426Y443304D02*
X88832Y454898D01*
G54D10*
X89314Y446479D02*
X82482Y453311D01*
G54D10*
G75*
G01X108585Y933167D02*
G03X108585Y968167I0J17500D01*
G01*
G54D10*
X108790Y967859D02*
X108790Y933060D01*
G54D10*
X72306Y950825D02*
X108692Y960078D01*
G54D10*
X107785Y941850D02*
X72242Y950565D01*
G54D10*
X108365Y944277D02*
X95977Y956665D01*
G54D10*
X100427Y943483D02*
X88833Y955077D01*
G54D10*
X89314Y946658D02*
X82483Y953490D01*
G54D10*
G75*
G01X891163Y967733D02*
G03X891163Y932733I0J-17500D01*
G01*
G54D10*
X890959Y967425D02*
X890959Y932626D01*
G54D10*
X927442Y950391D02*
X891056Y959644D01*
G54D10*
X891963Y941416D02*
X927506Y950131D01*
G54D10*
X891384Y943843D02*
X903772Y956231D01*
G54D10*
X899322Y943049D02*
X910916Y954643D01*
G54D10*
X910434Y946224D02*
X917266Y953056D01*
G54D10*
G75*
G01X891504Y467272D02*
G03X891504Y432272I0J-17500D01*
G01*
G54D10*
X891300Y466964D02*
X891300Y432165D01*
G54D10*
X927783Y449930D02*
X891397Y459183D01*
G54D10*
X892304Y440955D02*
X927847Y449670D01*
G54D10*
X891725Y443382D02*
X904113Y455770D01*
G54D10*
X899662Y442588D02*
X911257Y454182D01*
G54D10*
X910775Y445763D02*
X917607Y452594D01*
G54D21*
G75*
G01X64108Y450592D02*
G03X64108Y450592I-14291J0D01*
G01*
G54D21*
G75*
G01X64109Y950338D02*
G03X64109Y950338I-14291J0D01*
G01*
G54D21*
G75*
G01X964221Y950337D02*
G03X964221Y950337I-14291J0D01*
G01*
G54D21*
G75*
G01X964221Y450592D02*
G03X964221Y450592I-14291J0D01*
G01*
G54D22*
X166060Y438785D02*
X164460Y436118D01*
X161260Y434785D01*
X158060Y434785D01*
X154860Y436118D01*
X153260Y438785D01*
X153260Y452118D01*
X154860Y454785D01*
X158060Y456118D01*
X161260Y456118D01*
X164460Y454785D01*
X166060Y452118D01*
G54D22*
X181527Y437985D02*
X181527Y443318D01*
X179927Y445985D01*
X176727Y446785D01*
X173527Y445985D01*
X171927Y443318D01*
X171927Y437985D01*
X173527Y435318D01*
X176727Y434785D01*
X179927Y435318D01*
X181527Y437985D01*
G54D22*
X187394Y434785D02*
X187394Y446785D01*
G54D22*
X187394Y444118D02*
X188994Y445985D01*
X192194Y446785D01*
X195394Y445985D01*
X196994Y444118D01*
X196994Y434785D01*
G54D22*
X206061Y456118D02*
X206061Y436118D01*
X207661Y434785D01*
X209261Y435318D01*
G54D22*
X202861Y446785D02*
X209261Y446785D01*
G54D22*
X215128Y434785D02*
X215128Y446785D01*
G54D22*
X215128Y444118D02*
X218328Y446785D01*
X221528Y446785D01*
G54D22*
X236995Y437985D02*
X236995Y443318D01*
X235395Y445985D01*
X232195Y446785D01*
X228995Y445985D01*
X227395Y443318D01*
X227395Y437985D01*
X228995Y435318D01*
X232195Y434785D01*
X235395Y435318D01*
X236995Y437985D01*
G54D22*
X242862Y434785D02*
X242862Y456118D01*
G54D22*
X248729Y434785D02*
X248729Y456118D01*
G54D22*
X264196Y436118D02*
X261636Y434785D01*
X258436Y434785D01*
X255236Y436118D01*
X254596Y438785D01*
X254596Y443318D01*
X256196Y445985D01*
X259396Y446785D01*
X262596Y445985D01*
X264196Y444118D01*
X264196Y441452D01*
X254596Y441452D01*
G54D22*
X270063Y434785D02*
X270063Y446785D01*
G54D22*
X270063Y444118D02*
X273263Y446785D01*
X276463Y446785D01*
G54D22*
X288517Y434785D02*
X288517Y446785D01*
G54D22*
X288517Y444652D02*
X291717Y446785D01*
X294917Y445985D01*
X296517Y444118D01*
X296517Y434785D01*
G54D22*
X296517Y444652D02*
X299717Y446785D01*
X302917Y445985D01*
X304517Y444118D01*
X304517Y434785D01*
G54D22*
X319984Y437985D02*
X319984Y443318D01*
X318384Y445985D01*
X315184Y446785D01*
X311984Y445985D01*
X310384Y443318D01*
X310384Y437985D01*
X311984Y435318D01*
X315184Y434785D01*
X318384Y435318D01*
X319984Y437985D01*
G54D22*
X335451Y434785D02*
X335451Y456118D01*
G54D22*
X335451Y443318D02*
X333851Y445985D01*
X330651Y446785D01*
X327451Y445985D01*
X325851Y443318D01*
X325851Y437985D01*
X327451Y435318D01*
X330651Y434785D01*
X333851Y435318D01*
X335451Y437985D01*
G54D22*
X350918Y446785D02*
X350918Y434785D01*
G54D22*
X350918Y437452D02*
X349318Y435318D01*
X346118Y434785D01*
X342918Y435318D01*
X341318Y437452D01*
X341318Y446785D01*
G54D22*
X356785Y434785D02*
X356785Y456118D01*
G54D22*
X372252Y436118D02*
X369692Y434785D01*
X366492Y434785D01*
X363292Y436118D01*
X362652Y438785D01*
X362652Y443318D01*
X364252Y445985D01*
X367452Y446785D01*
X370652Y445985D01*
X372252Y444118D01*
X372252Y441452D01*
X362652Y441452D01*
G54D10*
X82550Y611188D02*
X82550Y614802D01*
X949930Y950337D02*
G54D23*
D03*
X949930Y450592D02*
G54D23*
D03*
X49817Y450592D02*
G54D23*
D03*
X49817Y950337D02*
G54D23*
D03*
G54D10*
X352425Y582612D02*
X349250Y579438D01*
X298450Y579438D01*
X295275Y582612D01*
X247650Y582612D01*
G54D24*
X248518Y605608D02*
X248518Y586941D01*
X258318Y586941D01*
G54D24*
X263451Y586941D02*
X263451Y605608D01*
X270451Y605608D01*
X273251Y604441D01*
X274651Y602108D01*
X274651Y590441D01*
X273251Y588108D01*
X270451Y586941D01*
X263451Y586941D01*
G54D24*
X285384Y596275D02*
X289584Y593941D01*
X290984Y591608D01*
X290984Y586941D01*
G54D24*
X279784Y586941D02*
X279784Y605608D01*
X286784Y605608D01*
X289584Y604441D01*
X290984Y602108D01*
X290984Y599775D01*
X289584Y597441D01*
X286784Y596275D01*
X279784Y596275D01*
G54D10*
X371475Y563562D02*
X374650Y560388D01*
X425550Y560388D01*
X428725Y563562D01*
X482700Y563562D01*
G54D24*
X432451Y567256D02*
X432451Y585923D01*
X439451Y585923D01*
X442251Y584756D01*
X443651Y582423D01*
X443651Y580090D01*
X442251Y577756D01*
X439451Y576590D01*
X432451Y576590D01*
G54D24*
X448784Y585923D02*
X448784Y567256D01*
X455784Y578923D01*
X462784Y567256D01*
X462784Y585923D01*
G54D24*
X473517Y576590D02*
X477717Y574256D01*
X479117Y571923D01*
X479117Y567256D01*
G54D24*
X467917Y567256D02*
X467917Y585923D01*
X474917Y585923D01*
X477717Y584756D01*
X479117Y582423D01*
X479117Y580090D01*
X477717Y577756D01*
X474917Y576590D01*
X467917Y576590D01*
G54D10*
X425550Y871538D02*
X428725Y874712D01*
X498575Y874712D01*
X501750Y871538D01*
X577950Y871538D01*
G54D13*
X507414Y876311D02*
X507414Y894089D01*
X514080Y894089D01*
X516747Y892978D01*
X518080Y890755D01*
X518080Y888533D01*
X516747Y886311D01*
X514080Y885200D01*
X516747Y884089D01*
X518080Y881866D01*
X518080Y879644D01*
X516747Y877422D01*
X514080Y876311D01*
X507414Y876311D01*
G54D13*
X507414Y885200D02*
X514080Y885200D01*
G54D13*
X522970Y894089D02*
X522970Y879644D01*
X524303Y877422D01*
X526970Y876311D01*
X529636Y876311D01*
X532303Y877422D01*
X533636Y879644D01*
X533636Y894089D01*
G54D13*
X543859Y876311D02*
X543859Y894089D01*
G54D13*
X538526Y894089D02*
X549192Y894089D01*
G54D13*
X559415Y876311D02*
X559415Y894089D01*
G54D13*
X554082Y894089D02*
X564748Y894089D01*
G54D13*
X569638Y887422D02*
X576304Y894089D01*
X576304Y876311D01*
G54D10*
X495300Y696912D02*
X498475Y700088D01*
X498475Y798512D01*
X495300Y801688D01*
X495300Y804862D01*
G54D10*
X495300Y804862D02*
X581025Y804862D01*
G54D10*
X374650Y871538D02*
X371475Y874712D01*
X327025Y874712D01*
X323850Y871538D01*
G54D10*
X41275Y788988D02*
X47625Y782638D01*
X403225Y782638D01*
G54D10*
X41275Y661988D02*
X47625Y668338D01*
X422275Y668338D01*
X428625Y661988D01*
G54D10*
X260300Y782638D02*
X260300Y715962D01*
G54D10*
X400050Y782638D02*
X422275Y782638D01*
X428625Y788988D01*
G36*
X419150Y814388D02*
X425450Y814388D01*
X425450Y808088D01*
X419150Y814388D01*
G37*
G54D10*
X419150Y814388D02*
X425450Y814388D01*
X425450Y808088D01*
X419150Y814388D01*
G54D10*
X228550Y735012D02*
X228550Y668338D01*
G36*
X342950Y865188D02*
X349250Y858888D01*
X355550Y865188D01*
X342950Y865188D01*
G37*
G54D10*
X342950Y865188D02*
X349250Y858888D01*
X355550Y865188D01*
X342950Y865188D01*
G36*
X349250Y846088D02*
X355550Y839788D01*
X346075Y839788D01*
X346075Y842912D01*
X349250Y846088D01*
G37*
G54D10*
X349250Y846088D02*
X355550Y839788D01*
X346075Y839788D01*
X346075Y842912D01*
X349250Y846088D01*
G36*
X444550Y865187D02*
X450850Y858887D01*
X457150Y865187D01*
X469950Y865188D01*
X476250Y858888D01*
X482550Y865188D01*
X444550Y865187D01*
G37*
G54D10*
X444550Y865187D02*
X450850Y858887D01*
X457150Y865187D01*
X469950Y865188D01*
X476250Y858888D01*
X482550Y865188D01*
X444550Y865187D01*
G36*
X444550Y839787D02*
X450850Y846087D01*
X457150Y839787D01*
X469950Y839787D01*
X476250Y846088D01*
X482550Y839788D01*
X444550Y839787D01*
G37*
G54D10*
X444550Y839787D02*
X450850Y846087D01*
X457150Y839787D01*
X469950Y839787D01*
X476250Y846088D01*
X482550Y839788D01*
X444550Y839787D01*
G36*
X463550Y782627D02*
X469850Y776327D01*
X482650Y776327D01*
X488950Y782627D01*
X488950Y770027D01*
X482650Y776327D01*
X469850Y776327D01*
X463550Y770027D01*
X463550Y782627D01*
G37*
G54D10*
X463550Y782627D02*
X469850Y776327D01*
X482650Y776327D01*
X488950Y782627D01*
X488950Y770027D01*
X482650Y776327D01*
X469850Y776327D01*
X463550Y770027D01*
X463550Y782627D01*
G36*
X463550Y757227D02*
X469850Y750927D01*
X482650Y750927D01*
X488950Y757227D01*
X488950Y744627D01*
X482650Y750927D01*
X469850Y750927D01*
X463550Y744627D01*
X463550Y757227D01*
G37*
G54D10*
X463550Y757227D02*
X469850Y750927D01*
X482650Y750927D01*
X488950Y757227D01*
X488950Y744627D01*
X482650Y750927D01*
X469850Y750927D01*
X463550Y744627D01*
X463550Y757227D01*
G36*
X463550Y731827D02*
X469850Y725527D01*
X482650Y725527D01*
X488950Y731827D01*
X488950Y719227D01*
X482650Y725527D01*
X469850Y725527D01*
X463550Y719227D01*
X463550Y731827D01*
G37*
G54D10*
X463550Y731827D02*
X469850Y725527D01*
X482650Y725527D01*
X488950Y731827D01*
X488950Y719227D01*
X482650Y725527D01*
X469850Y725527D01*
X463550Y719227D01*
X463550Y731827D01*
G36*
X63550Y814388D02*
X406350Y814388D01*
X400050Y808088D01*
X393750Y814388D01*
X380950Y814388D01*
X374650Y808088D01*
X368350Y814388D01*
X355550Y814388D01*
X349250Y808088D01*
X342950Y814388D01*
X330150Y814388D01*
X323850Y808088D01*
X317550Y814388D01*
X304750Y814388D01*
X298450Y808088D01*
X292150Y814388D01*
X63550Y814388D01*
G37*
G54D10*
X63550Y814388D02*
X406350Y814388D01*
X400050Y808088D01*
X393750Y814388D01*
X380950Y814388D01*
X374650Y808088D01*
X368350Y814388D01*
X355550Y814388D01*
X349250Y808088D01*
X342950Y814388D01*
X330150Y814388D01*
X323850Y808088D01*
X317550Y814388D01*
X304750Y814388D01*
X298450Y808088D01*
X292150Y814388D01*
X63550Y814388D01*
G36*
X279350Y814388D02*
X273050Y808088D01*
X266750Y814388D01*
X253950Y814388D01*
X247650Y808088D01*
X247600Y808088D01*
X241350Y814388D01*
X228550Y814388D01*
X222250Y808088D01*
X215950Y814388D01*
X203150Y814388D01*
X196850Y808088D01*
X190550Y814388D01*
X177750Y814388D01*
X171450Y808088D01*
X165150Y814388D01*
X152350Y814388D01*
X146050Y808088D01*
X139750Y814388D01*
X126950Y814388D01*
X120650Y808088D01*
X114350Y814388D01*
X101550Y814388D01*
X95250Y808088D01*
X88950Y814388D01*
X76150Y814388D01*
X69850Y808088D01*
X63550Y814388D01*
X285750Y814388D01*
X279350Y814388D01*
G37*
G54D10*
X279350Y814388D02*
X273050Y808088D01*
X266750Y814388D01*
X253950Y814388D01*
X247650Y808088D01*
X247600Y808088D01*
X241350Y814388D01*
X228550Y814388D01*
X222250Y808088D01*
X215950Y814388D01*
X203150Y814388D01*
X196850Y808088D01*
X190550Y814388D01*
X177750Y814388D01*
X171450Y808088D01*
X165150Y814388D01*
X152350Y814388D01*
X146050Y808088D01*
X139750Y814388D01*
X126950Y814388D01*
X120650Y808088D01*
X114350Y814388D01*
X101550Y814388D01*
X95250Y808088D01*
X88950Y814388D01*
X76150Y814388D01*
X69850Y808088D01*
X63550Y814388D01*
X285750Y814388D01*
X279350Y814388D01*
G36*
X63550Y661988D02*
X406350Y661988D01*
X400050Y655688D01*
X393750Y661988D01*
X380950Y661988D01*
X374650Y655688D01*
X368350Y661988D01*
X355550Y661988D01*
X349250Y655688D01*
X342950Y661988D01*
X330150Y661988D01*
X323850Y655688D01*
X317550Y661988D01*
X304750Y661988D01*
X298450Y655688D01*
X292150Y661988D01*
X63550Y661988D01*
G37*
G54D10*
X63550Y661988D02*
X406350Y661988D01*
X400050Y655688D01*
X393750Y661988D01*
X380950Y661988D01*
X374650Y655688D01*
X368350Y661988D01*
X355550Y661988D01*
X349250Y655688D01*
X342950Y661988D01*
X330150Y661988D01*
X323850Y655688D01*
X317550Y661988D01*
X304750Y661988D01*
X298450Y655688D01*
X292150Y661988D01*
X63550Y661988D01*
G36*
X279350Y661988D02*
X273050Y655688D01*
X266750Y661988D01*
X253950Y661988D01*
X247650Y655688D01*
X247600Y655688D01*
X241350Y661988D01*
X228550Y661988D01*
X222250Y655688D01*
X215950Y661988D01*
X203150Y661988D01*
X196850Y655688D01*
X190550Y661988D01*
X177750Y661988D01*
X171450Y655688D01*
X165150Y661988D01*
X152350Y661988D01*
X146050Y655688D01*
X139750Y661988D01*
X126950Y661988D01*
X120650Y655688D01*
X114350Y661988D01*
X101550Y661988D01*
X95250Y655688D01*
X88950Y661988D01*
X76150Y661988D01*
X69850Y655688D01*
X63550Y661988D01*
X285750Y661988D01*
X279350Y661988D01*
G37*
G54D10*
X279350Y661988D02*
X273050Y655688D01*
X266750Y661988D01*
X253950Y661988D01*
X247650Y655688D01*
X247600Y655688D01*
X241350Y661988D01*
X228550Y661988D01*
X222250Y655688D01*
X215950Y661988D01*
X203150Y661988D01*
X196850Y655688D01*
X190550Y661988D01*
X177750Y661988D01*
X171450Y655688D01*
X165150Y661988D01*
X152350Y661988D01*
X146050Y655688D01*
X139750Y661988D01*
X126950Y661988D01*
X120650Y655688D01*
X114350Y661988D01*
X101550Y661988D01*
X95250Y655688D01*
X88950Y661988D01*
X76150Y661988D01*
X69850Y655688D01*
X63550Y661988D01*
X285750Y661988D01*
X279350Y661988D01*
G36*
X63550Y788988D02*
X406350Y788988D01*
X400050Y795288D01*
X393750Y788988D01*
X380950Y788988D01*
X374650Y795288D01*
X368350Y788988D01*
X355550Y788988D01*
X349250Y795288D01*
X342950Y788988D01*
X330150Y788988D01*
X323850Y795288D01*
X317550Y788988D01*
X304750Y788988D01*
X298450Y795288D01*
X292150Y788988D01*
X63550Y788988D01*
G37*
G54D10*
X63550Y788988D02*
X406350Y788988D01*
X400050Y795288D01*
X393750Y788988D01*
X380950Y788988D01*
X374650Y795288D01*
X368350Y788988D01*
X355550Y788988D01*
X349250Y795288D01*
X342950Y788988D01*
X330150Y788988D01*
X323850Y795288D01*
X317550Y788988D01*
X304750Y788988D01*
X298450Y795288D01*
X292150Y788988D01*
X63550Y788988D01*
G36*
X279350Y788988D02*
X273050Y795288D01*
X266750Y788988D01*
X253950Y788988D01*
X247650Y795288D01*
X247600Y795288D01*
X241350Y788988D01*
X228550Y788988D01*
X222250Y795288D01*
X215950Y788988D01*
X203150Y788988D01*
X196850Y795288D01*
X190550Y788988D01*
X177750Y788988D01*
X171450Y795288D01*
X165150Y788988D01*
X152350Y788988D01*
X146050Y795288D01*
X139750Y788988D01*
X126950Y788988D01*
X120650Y795288D01*
X114350Y788988D01*
X101550Y788988D01*
X95250Y795288D01*
X88950Y788988D01*
X76150Y788988D01*
X69850Y795288D01*
X63550Y788988D01*
X285750Y788988D01*
X279350Y788988D01*
G37*
G54D10*
X279350Y788988D02*
X273050Y795288D01*
X266750Y788988D01*
X253950Y788988D01*
X247650Y795288D01*
X247600Y795288D01*
X241350Y788988D01*
X228550Y788988D01*
X222250Y795288D01*
X215950Y788988D01*
X203150Y788988D01*
X196850Y795288D01*
X190550Y788988D01*
X177750Y788988D01*
X171450Y795288D01*
X165150Y788988D01*
X152350Y788988D01*
X146050Y795288D01*
X139750Y788988D01*
X126950Y788988D01*
X120650Y795288D01*
X114350Y788988D01*
X101550Y788988D01*
X95250Y795288D01*
X88950Y788988D01*
X76150Y788988D01*
X69850Y795288D01*
X63550Y788988D01*
X285750Y788988D01*
X279350Y788988D01*
G36*
X406350Y636588D02*
X63550Y636588D01*
X69850Y642888D01*
X76150Y636588D01*
X88950Y636588D01*
X95250Y642888D01*
X101550Y636588D01*
X114350Y636588D01*
X120650Y642888D01*
X126950Y636588D01*
X139750Y636588D01*
X146050Y642888D01*
X152350Y636588D01*
X165150Y636588D01*
X171450Y642888D01*
X177750Y636588D01*
X406350Y636588D01*
G37*
G54D10*
X406350Y636588D02*
X63550Y636588D01*
X69850Y642888D01*
X76150Y636588D01*
X88950Y636588D01*
X95250Y642888D01*
X101550Y636588D01*
X114350Y636588D01*
X120650Y642888D01*
X126950Y636588D01*
X139750Y636588D01*
X146050Y642888D01*
X152350Y636588D01*
X165150Y636588D01*
X171450Y642888D01*
X177750Y636588D01*
X406350Y636588D01*
G36*
X190550Y636588D02*
X196850Y642888D01*
X203150Y636588D01*
X215950Y636588D01*
X222250Y642888D01*
X222300Y642888D01*
X228550Y636588D01*
X241350Y636588D01*
X247650Y642888D01*
X253950Y636588D01*
X266750Y636588D01*
X273050Y642888D01*
X279350Y636588D01*
X292150Y636588D01*
X298450Y642888D01*
X304750Y636588D01*
X317550Y636588D01*
X323850Y642888D01*
X330150Y636588D01*
X342950Y636588D01*
X349250Y642888D01*
X355550Y636588D01*
X368350Y636588D01*
X374650Y642888D01*
X380950Y636588D01*
X393750Y636588D01*
X400050Y642888D01*
X406350Y636588D01*
X184150Y636588D01*
X190550Y636588D01*
G37*
G54D10*
X190550Y636588D02*
X196850Y642888D01*
X203150Y636588D01*
X215950Y636588D01*
X222250Y642888D01*
X222300Y642888D01*
X228550Y636588D01*
X241350Y636588D01*
X247650Y642888D01*
X253950Y636588D01*
X266750Y636588D01*
X273050Y642888D01*
X279350Y636588D01*
X292150Y636588D01*
X298450Y642888D01*
X304750Y636588D01*
X317550Y636588D01*
X323850Y642888D01*
X330150Y636588D01*
X342950Y636588D01*
X349250Y642888D01*
X355550Y636588D01*
X368350Y636588D01*
X374650Y642888D01*
X380950Y636588D01*
X393750Y636588D01*
X400050Y642888D01*
X406350Y636588D01*
X184150Y636588D01*
X190550Y636588D01*
G36*
X165150Y611188D02*
X171450Y604888D01*
X177750Y611188D01*
X190550Y611188D01*
X196850Y604888D01*
X203150Y611188D01*
X165150Y611188D01*
G37*
G54D10*
X165150Y611188D02*
X171450Y604888D01*
X177750Y611188D01*
X190550Y611188D01*
X196850Y604888D01*
X203150Y611188D01*
X165150Y611188D01*
G36*
X165150Y585788D02*
X171450Y592088D01*
X177750Y585788D01*
X190550Y585788D01*
X196850Y592088D01*
X203150Y585788D01*
X165150Y585788D01*
G37*
G54D10*
X165150Y585788D02*
X171450Y592088D01*
X177750Y585788D01*
X190550Y585788D01*
X196850Y592088D01*
X203150Y585788D01*
X165150Y585788D01*
G36*
X63550Y585788D02*
X69850Y592088D01*
X76150Y585788D01*
X88950Y585788D01*
X95250Y592088D01*
X101550Y585788D01*
X63550Y585788D01*
G37*
G54D10*
X63550Y585788D02*
X69850Y592088D01*
X76150Y585788D01*
X88950Y585788D01*
X95250Y592088D01*
X101550Y585788D01*
X63550Y585788D01*
G36*
X63550Y611188D02*
X69850Y604888D01*
X76150Y611188D01*
X88950Y611188D01*
X95250Y604888D01*
X101550Y611188D01*
X63550Y611188D01*
G37*
G54D10*
X63550Y611188D02*
X69850Y604888D01*
X76150Y611188D01*
X88950Y611188D01*
X95250Y604888D01*
X101550Y611188D01*
X63550Y611188D01*
G36*
X317550Y611188D02*
X323850Y604888D01*
X330150Y611188D01*
X317550Y611188D01*
G37*
G54D10*
X317550Y611188D02*
X323850Y604888D01*
X330150Y611188D01*
X317550Y611188D01*
G36*
X393750Y592138D02*
X400050Y585838D01*
X406350Y592138D01*
X393750Y592138D01*
G37*
G54D10*
X393750Y592138D02*
X400050Y585838D01*
X406350Y592138D01*
X393750Y592138D01*
G36*
X323850Y592088D02*
X330150Y585788D01*
X320675Y585788D01*
X320675Y588912D01*
X323850Y592088D01*
G37*
G54D10*
X323850Y592088D02*
X330150Y585788D01*
X320675Y585788D01*
X320675Y588912D01*
X323850Y592088D01*
G36*
X400050Y573038D02*
X406350Y566738D01*
X396875Y566738D01*
X396875Y569862D01*
X400050Y573038D01*
G37*
G54D10*
X400050Y573038D02*
X406350Y566738D01*
X396875Y566738D01*
X396875Y569862D01*
X400050Y573038D01*
G36*
X95250Y846088D02*
X101550Y839788D01*
X92075Y839788D01*
X92075Y842912D01*
X95250Y846088D01*
G37*
G54D10*
X95250Y846088D02*
X101550Y839788D01*
X92075Y839788D01*
X92075Y842912D01*
X95250Y846088D01*
G36*
X120650Y846088D02*
X126950Y839788D01*
X117475Y839788D01*
X117475Y842912D01*
X120650Y846088D01*
G37*
G54D10*
X120650Y846088D02*
X126950Y839788D01*
X117475Y839788D01*
X117475Y842912D01*
X120650Y846088D01*
G36*
X146050Y846088D02*
X152350Y839788D01*
X142875Y839788D01*
X142875Y842912D01*
X146050Y846088D01*
G37*
G54D10*
X146050Y846088D02*
X152350Y839788D01*
X142875Y839788D01*
X142875Y842912D01*
X146050Y846088D01*
G36*
X196850Y846088D02*
X203150Y839788D01*
X193675Y839788D01*
X193675Y842912D01*
X196850Y846088D01*
G37*
G54D10*
X196850Y846088D02*
X203150Y839788D01*
X193675Y839788D01*
X193675Y842912D01*
X196850Y846088D01*
G36*
X222250Y846088D02*
X228550Y839788D01*
X219075Y839788D01*
X219075Y842912D01*
X222250Y846088D01*
G37*
G54D10*
X222250Y846088D02*
X228550Y839788D01*
X219075Y839788D01*
X219075Y842912D01*
X222250Y846088D01*
G36*
X247650Y846088D02*
X253950Y839788D01*
X244475Y839788D01*
X244475Y842912D01*
X247650Y846088D01*
G37*
G54D10*
X247650Y846088D02*
X253950Y839788D01*
X244475Y839788D01*
X244475Y842912D01*
X247650Y846088D01*
G36*
X88950Y865188D02*
X95250Y858888D01*
X101550Y865188D01*
X114350Y865188D01*
X120650Y858888D01*
X126950Y865188D01*
X88950Y865188D01*
G37*
G54D10*
X88950Y865188D02*
X95250Y858888D01*
X101550Y865188D01*
X114350Y865188D01*
X120650Y858888D01*
X126950Y865188D01*
X88950Y865188D01*
G36*
X114350Y865188D02*
X120650Y858888D01*
X126950Y865188D01*
X139750Y865188D01*
X146050Y858888D01*
X152350Y865188D01*
X114350Y865188D01*
G37*
G54D10*
X114350Y865188D02*
X120650Y858888D01*
X126950Y865188D01*
X139750Y865188D01*
X146050Y858888D01*
X152350Y865188D01*
X114350Y865188D01*
G36*
X190550Y865188D02*
X196850Y858888D01*
X203150Y865188D01*
X215950Y865188D01*
X222250Y858888D01*
X228550Y865188D01*
X190550Y865188D01*
G37*
G54D10*
X190550Y865188D02*
X196850Y858888D01*
X203150Y865188D01*
X215950Y865188D01*
X222250Y858888D01*
X228550Y865188D01*
X190550Y865188D01*
G36*
X215950Y865188D02*
X222250Y858888D01*
X228550Y865188D01*
X241350Y865188D01*
X247650Y858888D01*
X253950Y865188D01*
X215950Y865188D01*
G37*
G54D10*
X215950Y865188D02*
X222250Y858888D01*
X228550Y865188D01*
X241350Y865188D01*
X247650Y858888D01*
X253950Y865188D01*
X215950Y865188D01*
G54D25*
X23928Y977663D02*
X23928Y423820D01*
X976270Y423820D01*
X976312Y423862D01*
X976312Y490538D01*
X604838Y490538D01*
X605002Y912400D01*
X976312Y912812D01*
X976312Y977666D01*
X23928Y977663D01*
G54D10*
X493712Y581025D02*
X574675Y581025D01*
G54D10*
X498475Y664369D02*
X504825Y658019D01*
X504825Y643731D01*
X498475Y637381D01*
G54D10*
X498475Y637381D02*
X504825Y631031D01*
X504825Y616744D01*
X498475Y610394D01*
G54D10*
X498475Y664369D02*
X495300Y664369D01*
G54D10*
X498475Y637381D02*
X495300Y637381D01*
G54D10*
X498475Y610394D02*
X495300Y610394D01*
G54D12*
X519175Y629283D02*
X511175Y629283D01*
X511175Y623450D01*
X512175Y623450D01*
X514175Y624283D01*
X516175Y624283D01*
X518175Y623450D01*
X519175Y621783D01*
X519175Y618450D01*
X518175Y616783D01*
X516175Y615950D01*
X514175Y615950D01*
X512175Y616783D01*
X511175Y618450D01*
G54D12*
X522842Y629283D02*
X527842Y615950D01*
X532842Y629283D01*
G54D12*
X511175Y657858D02*
X519175Y657858D01*
X518175Y656192D01*
X516175Y653692D01*
X514175Y650358D01*
X513175Y647858D01*
X513175Y644525D01*
G54D12*
X522842Y650358D02*
X530842Y650358D01*
G54D12*
X534509Y652858D02*
X539509Y657858D01*
X539509Y644525D01*
G54D12*
X551176Y644525D02*
X543176Y644525D01*
X543176Y645358D01*
X544176Y647025D01*
X550176Y652025D01*
X551176Y653692D01*
X551176Y655358D01*
X550176Y657025D01*
X548176Y657858D01*
X546176Y657858D01*
X544176Y657025D01*
X543176Y655358D01*
G54D12*
X554843Y657858D02*
X559843Y644525D01*
X564843Y657858D01*
G54D10*
X488950Y598488D02*
X488950Y585788D01*
X493712Y581025D01*
G54D10*
X502444Y660400D02*
X502444Y641350D01*
G54D10*
X504031Y658812D02*
X504031Y642938D01*
X502444Y641350D01*
G54D10*
X502444Y633412D02*
X502444Y614362D01*
G54D10*
X504031Y631825D02*
X504031Y615950D01*
X502444Y614362D01*
G54D26*
X230188Y508712D02*
X255588Y508712D01*
X255588Y580312D01*
X230188Y580312D01*
X230188Y508712D01*
G54D26*
X234888Y542912D02*
X250888Y542912D01*
G54D26*
X234888Y546112D02*
X250888Y546112D01*
G54D26*
X242888Y530212D02*
X242888Y542912D01*
G54D26*
X242888Y546112D02*
X242888Y558812D01*
M02*
